%TF.GenerationSoftware,KiCad,Pcbnew,7.0.11+dfsg-1build4*%
%TF.CreationDate,2026-09-27T08:57:37+00:00*%
%TF.ProjectId,canduino_oled_shield_V002,63616e64-7569-46e6-9f5f-6f6c65645f73,V002*%
%TF.SameCoordinates,Original*%
%TF.FileFunction,Drillmap*%
%TF.FilePolarity,Positive*%
%FSLAX45Y45*%
G04 Gerber Fmt 4.5, Leading zero omitted, Abs format (unit mm)*
G04 Created by KiCad (PCBNEW 7.0.11+dfsg-1build4) date 2026-09-27 08:57:37*
%MOMM*%
%LPD*%
G01*
G04 APERTURE LIST*
%ADD10C,0.100000*%
%ADD11C,0.200000*%
G04 APERTURE END LIST*
D10*
X10200000Y-5000000D02*
X12600000Y-5000000D01*
X12800000Y-5200000D02*
X12800000Y-11400000D01*
X12600000Y-11600000D02*
X10200000Y-11600000D01*
X10000000Y-11400000D02*
X10000000Y-5200000D01*
X10200000Y-5000000D02*
G75*
G03*
X10000000Y-5200000I0J-200000D01*
G01*
X12800000Y-5200000D02*
G75*
G03*
X12600000Y-5000000I-200000J0D01*
G01*
X12600000Y-11600000D02*
G75*
G03*
X12800000Y-11400000I0J200000D01*
G01*
X10000000Y-11400000D02*
G75*
G03*
X10200000Y-11600000I200000J0D01*
G01*
D11*
D10*
X10790000Y-9390000D02*
X10830000Y-9430000D01*
X10830000Y-9390000D02*
X10790000Y-9430000D01*
X10890000Y-7470000D02*
X10930000Y-7510000D01*
X10930000Y-7470000D02*
X10890000Y-7510000D01*
X11010000Y-7030000D02*
X11050000Y-7070000D01*
X11050000Y-7030000D02*
X11010000Y-7070000D01*
X11030000Y-9230000D02*
X11070000Y-9270000D01*
X11070000Y-9230000D02*
X11030000Y-9270000D01*
X11110000Y-6970000D02*
X11150000Y-7010000D01*
X11150000Y-6970000D02*
X11110000Y-7010000D01*
X11150000Y-9130000D02*
X11190000Y-9170000D01*
X11190000Y-9130000D02*
X11150000Y-9170000D01*
X11250000Y-8670000D02*
X11290000Y-8710000D01*
X11290000Y-8670000D02*
X11250000Y-8710000D01*
X11270000Y-9330000D02*
X11310000Y-9370000D01*
X11310000Y-9330000D02*
X11270000Y-9370000D01*
X11370000Y-8910000D02*
X11410000Y-8950000D01*
X11410000Y-8910000D02*
X11370000Y-8950000D01*
X11530000Y-9110000D02*
X11570000Y-9150000D01*
X11570000Y-9110000D02*
X11530000Y-9150000D01*
X11630000Y-9230000D02*
X11670000Y-9270000D01*
X11670000Y-9230000D02*
X11630000Y-9270000D01*
X11810000Y-10970000D02*
X11850000Y-11010000D01*
X11850000Y-10970000D02*
X11810000Y-11010000D01*
X11870000Y-9190000D02*
X11910000Y-9230000D01*
X11910000Y-9190000D02*
X11870000Y-9230000D01*
X11870000Y-9430000D02*
X11910000Y-9470000D01*
X11910000Y-9430000D02*
X11870000Y-9470000D01*
X11950000Y-9850000D02*
X11990000Y-9890000D01*
X11990000Y-9850000D02*
X11950000Y-9890000D01*
X12190000Y-9850000D02*
X12230000Y-9890000D01*
X12230000Y-9850000D02*
X12190000Y-9890000D01*
X12430000Y-7490000D02*
X12470000Y-7530000D01*
X12470000Y-7490000D02*
X12430000Y-7530000D01*
X12450000Y-8610000D02*
X12490000Y-8650000D01*
X12490000Y-8610000D02*
X12450000Y-8650000D01*
X12450000Y-9030000D02*
X12490000Y-9070000D01*
X12490000Y-9030000D02*
X12450000Y-9070000D01*
X11040000Y-8300000D02*
G75*
G03*
X10960000Y-8300000I-40000J0D01*
G01*
X10960000Y-8300000D02*
G75*
G03*
X11040000Y-8300000I40000J0D01*
G01*
X11040000Y-8554000D02*
G75*
G03*
X10960000Y-8554000I-40000J0D01*
G01*
X10960000Y-8554000D02*
G75*
G03*
X11040000Y-8554000I40000J0D01*
G01*
X11802000Y-8300000D02*
G75*
G03*
X11722000Y-8300000I-40000J0D01*
G01*
X11722000Y-8300000D02*
G75*
G03*
X11802000Y-8300000I40000J0D01*
G01*
X11802000Y-8554000D02*
G75*
G03*
X11722000Y-8554000I-40000J0D01*
G01*
X11722000Y-8554000D02*
G75*
G03*
X11802000Y-8554000I40000J0D01*
G01*
X10525000Y-11302500D02*
X10525000Y-11397500D01*
X10477500Y-11350000D02*
X10572500Y-11350000D01*
X10775000Y-11302500D02*
X10775000Y-11397500D01*
X10727500Y-11350000D02*
X10822500Y-11350000D01*
X11025000Y-5202500D02*
X11025000Y-5297500D01*
X10977500Y-5250000D02*
X11072500Y-5250000D01*
X11025000Y-11302500D02*
X11025000Y-11397500D01*
X10977500Y-11350000D02*
X11072500Y-11350000D01*
X11275000Y-5202500D02*
X11275000Y-5297500D01*
X11227500Y-5250000D02*
X11322500Y-5250000D01*
X11275000Y-11302500D02*
X11275000Y-11397500D01*
X11227500Y-11350000D02*
X11322500Y-11350000D01*
X11525000Y-5202500D02*
X11525000Y-5297500D01*
X11477500Y-5250000D02*
X11572500Y-5250000D01*
X11525000Y-11302500D02*
X11525000Y-11397500D01*
X11477500Y-11350000D02*
X11572500Y-11350000D01*
X11775000Y-5202500D02*
X11775000Y-5297500D01*
X11727500Y-5250000D02*
X11822500Y-5250000D01*
X11775000Y-11302500D02*
X11775000Y-11397500D01*
X11727500Y-11350000D02*
X11822500Y-11350000D01*
X12025000Y-11302500D02*
X12025000Y-11397500D01*
X11977500Y-11350000D02*
X12072500Y-11350000D01*
X12275000Y-11302500D02*
X12275000Y-11397500D01*
X12227500Y-11350000D02*
X12322500Y-11350000D01*
X10673356Y-5935356D02*
X10673356Y-5864644D01*
X10602644Y-5864644D01*
X10602644Y-5935356D01*
X10673356Y-5935356D01*
X10673356Y-6189356D02*
X10673356Y-6118644D01*
X10602644Y-6118644D01*
X10602644Y-6189356D01*
X10673356Y-6189356D01*
X10673356Y-6443356D02*
X10673356Y-6372644D01*
X10602644Y-6372644D01*
X10602644Y-6443356D01*
X10673356Y-6443356D01*
X10673356Y-6697356D02*
X10673356Y-6626644D01*
X10602644Y-6626644D01*
X10602644Y-6697356D01*
X10673356Y-6697356D01*
X10673356Y-6951356D02*
X10673356Y-6880644D01*
X10602644Y-6880644D01*
X10602644Y-6951356D01*
X10673356Y-6951356D01*
X10673356Y-7205356D02*
X10673356Y-7134644D01*
X10602644Y-7134644D01*
X10602644Y-7205356D01*
X10673356Y-7205356D01*
X10673356Y-7459356D02*
X10673356Y-7388644D01*
X10602644Y-7388644D01*
X10602644Y-7459356D01*
X10673356Y-7459356D01*
X10673356Y-7713356D02*
X10673356Y-7642644D01*
X10602644Y-7642644D01*
X10602644Y-7713356D01*
X10673356Y-7713356D01*
X10673356Y-7967356D02*
X10673356Y-7896644D01*
X10602644Y-7896644D01*
X10602644Y-7967356D01*
X10673356Y-7967356D01*
X10673356Y-8221356D02*
X10673356Y-8150644D01*
X10602644Y-8150644D01*
X10602644Y-8221356D01*
X10673356Y-8221356D01*
X10673356Y-8475356D02*
X10673356Y-8404644D01*
X10602644Y-8404644D01*
X10602644Y-8475356D01*
X10673356Y-8475356D01*
X10673356Y-8729356D02*
X10673356Y-8658644D01*
X10602644Y-8658644D01*
X10602644Y-8729356D01*
X10673356Y-8729356D01*
X10673356Y-8983356D02*
X10673356Y-8912644D01*
X10602644Y-8912644D01*
X10602644Y-8983356D01*
X10673356Y-8983356D01*
X10673356Y-9237356D02*
X10673356Y-9166644D01*
X10602644Y-9166644D01*
X10602644Y-9237356D01*
X10673356Y-9237356D01*
X10673356Y-9491356D02*
X10673356Y-9420644D01*
X10602644Y-9420644D01*
X10602644Y-9491356D01*
X10673356Y-9491356D01*
X10673356Y-9745356D02*
X10673356Y-9674644D01*
X10602644Y-9674644D01*
X10602644Y-9745356D01*
X10673356Y-9745356D01*
X11085356Y-6485356D02*
X11085356Y-6414644D01*
X11014644Y-6414644D01*
X11014644Y-6485356D01*
X11085356Y-6485356D01*
X11085356Y-7385356D02*
X11085356Y-7314644D01*
X11014644Y-7314644D01*
X11014644Y-7385356D01*
X11085356Y-7385356D01*
X11335356Y-6985356D02*
X11335356Y-6914644D01*
X11264644Y-6914644D01*
X11264644Y-6985356D01*
X11335356Y-6985356D01*
X11335356Y-7885356D02*
X11335356Y-7814644D01*
X11264644Y-7814644D01*
X11264644Y-7885356D01*
X11335356Y-7885356D01*
X11585356Y-6485356D02*
X11585356Y-6414644D01*
X11514644Y-6414644D01*
X11514644Y-6485356D01*
X11585356Y-6485356D01*
X11585356Y-7385356D02*
X11585356Y-7314644D01*
X11514644Y-7314644D01*
X11514644Y-7385356D01*
X11585356Y-7385356D01*
X12197356Y-5935356D02*
X12197356Y-5864644D01*
X12126644Y-5864644D01*
X12126644Y-5935356D01*
X12197356Y-5935356D01*
X12197356Y-6189356D02*
X12197356Y-6118644D01*
X12126644Y-6118644D01*
X12126644Y-6189356D01*
X12197356Y-6189356D01*
X12197356Y-6443356D02*
X12197356Y-6372644D01*
X12126644Y-6372644D01*
X12126644Y-6443356D01*
X12197356Y-6443356D01*
X12197356Y-6697356D02*
X12197356Y-6626644D01*
X12126644Y-6626644D01*
X12126644Y-6697356D01*
X12197356Y-6697356D01*
X12197356Y-6951356D02*
X12197356Y-6880644D01*
X12126644Y-6880644D01*
X12126644Y-6951356D01*
X12197356Y-6951356D01*
X12197356Y-7205356D02*
X12197356Y-7134644D01*
X12126644Y-7134644D01*
X12126644Y-7205356D01*
X12197356Y-7205356D01*
X12197356Y-7459356D02*
X12197356Y-7388644D01*
X12126644Y-7388644D01*
X12126644Y-7459356D01*
X12197356Y-7459356D01*
X12197356Y-7713356D02*
X12197356Y-7642644D01*
X12126644Y-7642644D01*
X12126644Y-7713356D01*
X12197356Y-7713356D01*
X12197356Y-7967356D02*
X12197356Y-7896644D01*
X12126644Y-7896644D01*
X12126644Y-7967356D01*
X12197356Y-7967356D01*
X12197356Y-8221356D02*
X12197356Y-8150644D01*
X12126644Y-8150644D01*
X12126644Y-8221356D01*
X12197356Y-8221356D01*
X12197356Y-8475356D02*
X12197356Y-8404644D01*
X12126644Y-8404644D01*
X12126644Y-8475356D01*
X12197356Y-8475356D01*
X12197356Y-8729356D02*
X12197356Y-8658644D01*
X12126644Y-8658644D01*
X12126644Y-8729356D01*
X12197356Y-8729356D01*
X12197356Y-8983356D02*
X12197356Y-8912644D01*
X12126644Y-8912644D01*
X12126644Y-8983356D01*
X12197356Y-8983356D01*
X12197356Y-9237356D02*
X12197356Y-9166644D01*
X12126644Y-9166644D01*
X12126644Y-9237356D01*
X12197356Y-9237356D01*
X12197356Y-9491356D02*
X12197356Y-9420644D01*
X12126644Y-9420644D01*
X12126644Y-9491356D01*
X12197356Y-9491356D01*
X12197356Y-9745356D02*
X12197356Y-9674644D01*
X12126644Y-9674644D01*
X12126644Y-9745356D01*
X12197356Y-9745356D01*
D11*
X10255777Y-11916484D02*
X10255777Y-11716484D01*
X10255777Y-11716484D02*
X10303396Y-11716484D01*
X10303396Y-11716484D02*
X10331967Y-11726008D01*
X10331967Y-11726008D02*
X10351015Y-11745055D01*
X10351015Y-11745055D02*
X10360539Y-11764103D01*
X10360539Y-11764103D02*
X10370063Y-11802198D01*
X10370063Y-11802198D02*
X10370063Y-11830769D01*
X10370063Y-11830769D02*
X10360539Y-11868865D01*
X10360539Y-11868865D02*
X10351015Y-11887912D01*
X10351015Y-11887912D02*
X10331967Y-11906960D01*
X10331967Y-11906960D02*
X10303396Y-11916484D01*
X10303396Y-11916484D02*
X10255777Y-11916484D01*
X10455777Y-11916484D02*
X10455777Y-11783150D01*
X10455777Y-11821246D02*
X10465301Y-11802198D01*
X10465301Y-11802198D02*
X10474824Y-11792674D01*
X10474824Y-11792674D02*
X10493872Y-11783150D01*
X10493872Y-11783150D02*
X10512920Y-11783150D01*
X10579586Y-11916484D02*
X10579586Y-11783150D01*
X10579586Y-11716484D02*
X10570063Y-11726008D01*
X10570063Y-11726008D02*
X10579586Y-11735531D01*
X10579586Y-11735531D02*
X10589110Y-11726008D01*
X10589110Y-11726008D02*
X10579586Y-11716484D01*
X10579586Y-11716484D02*
X10579586Y-11735531D01*
X10703396Y-11916484D02*
X10684348Y-11906960D01*
X10684348Y-11906960D02*
X10674824Y-11887912D01*
X10674824Y-11887912D02*
X10674824Y-11716484D01*
X10808158Y-11916484D02*
X10789110Y-11906960D01*
X10789110Y-11906960D02*
X10779586Y-11887912D01*
X10779586Y-11887912D02*
X10779586Y-11716484D01*
X11036729Y-11916484D02*
X11036729Y-11716484D01*
X11036729Y-11716484D02*
X11103396Y-11859341D01*
X11103396Y-11859341D02*
X11170063Y-11716484D01*
X11170063Y-11716484D02*
X11170063Y-11916484D01*
X11351015Y-11916484D02*
X11351015Y-11811722D01*
X11351015Y-11811722D02*
X11341491Y-11792674D01*
X11341491Y-11792674D02*
X11322443Y-11783150D01*
X11322443Y-11783150D02*
X11284348Y-11783150D01*
X11284348Y-11783150D02*
X11265301Y-11792674D01*
X11351015Y-11906960D02*
X11331967Y-11916484D01*
X11331967Y-11916484D02*
X11284348Y-11916484D01*
X11284348Y-11916484D02*
X11265301Y-11906960D01*
X11265301Y-11906960D02*
X11255777Y-11887912D01*
X11255777Y-11887912D02*
X11255777Y-11868865D01*
X11255777Y-11868865D02*
X11265301Y-11849817D01*
X11265301Y-11849817D02*
X11284348Y-11840293D01*
X11284348Y-11840293D02*
X11331967Y-11840293D01*
X11331967Y-11840293D02*
X11351015Y-11830769D01*
X11446253Y-11783150D02*
X11446253Y-11983150D01*
X11446253Y-11792674D02*
X11465301Y-11783150D01*
X11465301Y-11783150D02*
X11503396Y-11783150D01*
X11503396Y-11783150D02*
X11522443Y-11792674D01*
X11522443Y-11792674D02*
X11531967Y-11802198D01*
X11531967Y-11802198D02*
X11541491Y-11821246D01*
X11541491Y-11821246D02*
X11541491Y-11878388D01*
X11541491Y-11878388D02*
X11531967Y-11897436D01*
X11531967Y-11897436D02*
X11522443Y-11906960D01*
X11522443Y-11906960D02*
X11503396Y-11916484D01*
X11503396Y-11916484D02*
X11465301Y-11916484D01*
X11465301Y-11916484D02*
X11446253Y-11906960D01*
X11627205Y-11897436D02*
X11636729Y-11906960D01*
X11636729Y-11906960D02*
X11627205Y-11916484D01*
X11627205Y-11916484D02*
X11617682Y-11906960D01*
X11617682Y-11906960D02*
X11627205Y-11897436D01*
X11627205Y-11897436D02*
X11627205Y-11916484D01*
X11627205Y-11792674D02*
X11636729Y-11802198D01*
X11636729Y-11802198D02*
X11627205Y-11811722D01*
X11627205Y-11811722D02*
X11617682Y-11802198D01*
X11617682Y-11802198D02*
X11627205Y-11792674D01*
X11627205Y-11792674D02*
X11627205Y-11811722D01*
D10*
X9955000Y-12225000D02*
X9995000Y-12265000D01*
X9995000Y-12225000D02*
X9955000Y-12265000D01*
D11*
X10293872Y-12136484D02*
X10312920Y-12136484D01*
X10312920Y-12136484D02*
X10331967Y-12146008D01*
X10331967Y-12146008D02*
X10341491Y-12155531D01*
X10341491Y-12155531D02*
X10351015Y-12174579D01*
X10351015Y-12174579D02*
X10360539Y-12212674D01*
X10360539Y-12212674D02*
X10360539Y-12260293D01*
X10360539Y-12260293D02*
X10351015Y-12298388D01*
X10351015Y-12298388D02*
X10341491Y-12317436D01*
X10341491Y-12317436D02*
X10331967Y-12326960D01*
X10331967Y-12326960D02*
X10312920Y-12336484D01*
X10312920Y-12336484D02*
X10293872Y-12336484D01*
X10293872Y-12336484D02*
X10274824Y-12326960D01*
X10274824Y-12326960D02*
X10265301Y-12317436D01*
X10265301Y-12317436D02*
X10255777Y-12298388D01*
X10255777Y-12298388D02*
X10246253Y-12260293D01*
X10246253Y-12260293D02*
X10246253Y-12212674D01*
X10246253Y-12212674D02*
X10255777Y-12174579D01*
X10255777Y-12174579D02*
X10265301Y-12155531D01*
X10265301Y-12155531D02*
X10274824Y-12146008D01*
X10274824Y-12146008D02*
X10293872Y-12136484D01*
X10446253Y-12317436D02*
X10455777Y-12326960D01*
X10455777Y-12326960D02*
X10446253Y-12336484D01*
X10446253Y-12336484D02*
X10436729Y-12326960D01*
X10436729Y-12326960D02*
X10446253Y-12317436D01*
X10446253Y-12317436D02*
X10446253Y-12336484D01*
X10627205Y-12203150D02*
X10627205Y-12336484D01*
X10579586Y-12126960D02*
X10531967Y-12269817D01*
X10531967Y-12269817D02*
X10655777Y-12269817D01*
X10770063Y-12136484D02*
X10789110Y-12136484D01*
X10789110Y-12136484D02*
X10808158Y-12146008D01*
X10808158Y-12146008D02*
X10817682Y-12155531D01*
X10817682Y-12155531D02*
X10827205Y-12174579D01*
X10827205Y-12174579D02*
X10836729Y-12212674D01*
X10836729Y-12212674D02*
X10836729Y-12260293D01*
X10836729Y-12260293D02*
X10827205Y-12298388D01*
X10827205Y-12298388D02*
X10817682Y-12317436D01*
X10817682Y-12317436D02*
X10808158Y-12326960D01*
X10808158Y-12326960D02*
X10789110Y-12336484D01*
X10789110Y-12336484D02*
X10770063Y-12336484D01*
X10770063Y-12336484D02*
X10751015Y-12326960D01*
X10751015Y-12326960D02*
X10741491Y-12317436D01*
X10741491Y-12317436D02*
X10731967Y-12298388D01*
X10731967Y-12298388D02*
X10722444Y-12260293D01*
X10722444Y-12260293D02*
X10722444Y-12212674D01*
X10722444Y-12212674D02*
X10731967Y-12174579D01*
X10731967Y-12174579D02*
X10741491Y-12155531D01*
X10741491Y-12155531D02*
X10751015Y-12146008D01*
X10751015Y-12146008D02*
X10770063Y-12136484D01*
X10960539Y-12136484D02*
X10979586Y-12136484D01*
X10979586Y-12136484D02*
X10998634Y-12146008D01*
X10998634Y-12146008D02*
X11008158Y-12155531D01*
X11008158Y-12155531D02*
X11017682Y-12174579D01*
X11017682Y-12174579D02*
X11027205Y-12212674D01*
X11027205Y-12212674D02*
X11027205Y-12260293D01*
X11027205Y-12260293D02*
X11017682Y-12298388D01*
X11017682Y-12298388D02*
X11008158Y-12317436D01*
X11008158Y-12317436D02*
X10998634Y-12326960D01*
X10998634Y-12326960D02*
X10979586Y-12336484D01*
X10979586Y-12336484D02*
X10960539Y-12336484D01*
X10960539Y-12336484D02*
X10941491Y-12326960D01*
X10941491Y-12326960D02*
X10931967Y-12317436D01*
X10931967Y-12317436D02*
X10922444Y-12298388D01*
X10922444Y-12298388D02*
X10912920Y-12260293D01*
X10912920Y-12260293D02*
X10912920Y-12212674D01*
X10912920Y-12212674D02*
X10922444Y-12174579D01*
X10922444Y-12174579D02*
X10931967Y-12155531D01*
X10931967Y-12155531D02*
X10941491Y-12146008D01*
X10941491Y-12146008D02*
X10960539Y-12136484D01*
X11112920Y-12336484D02*
X11112920Y-12203150D01*
X11112920Y-12222198D02*
X11122444Y-12212674D01*
X11122444Y-12212674D02*
X11141491Y-12203150D01*
X11141491Y-12203150D02*
X11170063Y-12203150D01*
X11170063Y-12203150D02*
X11189110Y-12212674D01*
X11189110Y-12212674D02*
X11198634Y-12231722D01*
X11198634Y-12231722D02*
X11198634Y-12336484D01*
X11198634Y-12231722D02*
X11208158Y-12212674D01*
X11208158Y-12212674D02*
X11227205Y-12203150D01*
X11227205Y-12203150D02*
X11255777Y-12203150D01*
X11255777Y-12203150D02*
X11274824Y-12212674D01*
X11274824Y-12212674D02*
X11284348Y-12231722D01*
X11284348Y-12231722D02*
X11284348Y-12336484D01*
X11379586Y-12336484D02*
X11379586Y-12203150D01*
X11379586Y-12222198D02*
X11389110Y-12212674D01*
X11389110Y-12212674D02*
X11408158Y-12203150D01*
X11408158Y-12203150D02*
X11436729Y-12203150D01*
X11436729Y-12203150D02*
X11455777Y-12212674D01*
X11455777Y-12212674D02*
X11465301Y-12231722D01*
X11465301Y-12231722D02*
X11465301Y-12336484D01*
X11465301Y-12231722D02*
X11474824Y-12212674D01*
X11474824Y-12212674D02*
X11493872Y-12203150D01*
X11493872Y-12203150D02*
X11522443Y-12203150D01*
X11522443Y-12203150D02*
X11541491Y-12212674D01*
X11541491Y-12212674D02*
X11551015Y-12231722D01*
X11551015Y-12231722D02*
X11551015Y-12336484D01*
X11941491Y-12126960D02*
X11770063Y-12384103D01*
X12198634Y-12136484D02*
X12217682Y-12136484D01*
X12217682Y-12136484D02*
X12236729Y-12146008D01*
X12236729Y-12146008D02*
X12246253Y-12155531D01*
X12246253Y-12155531D02*
X12255777Y-12174579D01*
X12255777Y-12174579D02*
X12265301Y-12212674D01*
X12265301Y-12212674D02*
X12265301Y-12260293D01*
X12265301Y-12260293D02*
X12255777Y-12298388D01*
X12255777Y-12298388D02*
X12246253Y-12317436D01*
X12246253Y-12317436D02*
X12236729Y-12326960D01*
X12236729Y-12326960D02*
X12217682Y-12336484D01*
X12217682Y-12336484D02*
X12198634Y-12336484D01*
X12198634Y-12336484D02*
X12179586Y-12326960D01*
X12179586Y-12326960D02*
X12170063Y-12317436D01*
X12170063Y-12317436D02*
X12160539Y-12298388D01*
X12160539Y-12298388D02*
X12151015Y-12260293D01*
X12151015Y-12260293D02*
X12151015Y-12212674D01*
X12151015Y-12212674D02*
X12160539Y-12174579D01*
X12160539Y-12174579D02*
X12170063Y-12155531D01*
X12170063Y-12155531D02*
X12179586Y-12146008D01*
X12179586Y-12146008D02*
X12198634Y-12136484D01*
X12351015Y-12317436D02*
X12360539Y-12326960D01*
X12360539Y-12326960D02*
X12351015Y-12336484D01*
X12351015Y-12336484D02*
X12341491Y-12326960D01*
X12341491Y-12326960D02*
X12351015Y-12317436D01*
X12351015Y-12317436D02*
X12351015Y-12336484D01*
X12484348Y-12136484D02*
X12503396Y-12136484D01*
X12503396Y-12136484D02*
X12522444Y-12146008D01*
X12522444Y-12146008D02*
X12531967Y-12155531D01*
X12531967Y-12155531D02*
X12541491Y-12174579D01*
X12541491Y-12174579D02*
X12551015Y-12212674D01*
X12551015Y-12212674D02*
X12551015Y-12260293D01*
X12551015Y-12260293D02*
X12541491Y-12298388D01*
X12541491Y-12298388D02*
X12531967Y-12317436D01*
X12531967Y-12317436D02*
X12522444Y-12326960D01*
X12522444Y-12326960D02*
X12503396Y-12336484D01*
X12503396Y-12336484D02*
X12484348Y-12336484D01*
X12484348Y-12336484D02*
X12465301Y-12326960D01*
X12465301Y-12326960D02*
X12455777Y-12317436D01*
X12455777Y-12317436D02*
X12446253Y-12298388D01*
X12446253Y-12298388D02*
X12436729Y-12260293D01*
X12436729Y-12260293D02*
X12436729Y-12212674D01*
X12436729Y-12212674D02*
X12446253Y-12174579D01*
X12446253Y-12174579D02*
X12455777Y-12155531D01*
X12455777Y-12155531D02*
X12465301Y-12146008D01*
X12465301Y-12146008D02*
X12484348Y-12136484D01*
X12741491Y-12336484D02*
X12627206Y-12336484D01*
X12684348Y-12336484D02*
X12684348Y-12136484D01*
X12684348Y-12136484D02*
X12665301Y-12165055D01*
X12665301Y-12165055D02*
X12646253Y-12184103D01*
X12646253Y-12184103D02*
X12627206Y-12193627D01*
X12922444Y-12136484D02*
X12827206Y-12136484D01*
X12827206Y-12136484D02*
X12817682Y-12231722D01*
X12817682Y-12231722D02*
X12827206Y-12222198D01*
X12827206Y-12222198D02*
X12846253Y-12212674D01*
X12846253Y-12212674D02*
X12893872Y-12212674D01*
X12893872Y-12212674D02*
X12912920Y-12222198D01*
X12912920Y-12222198D02*
X12922444Y-12231722D01*
X12922444Y-12231722D02*
X12931967Y-12250769D01*
X12931967Y-12250769D02*
X12931967Y-12298388D01*
X12931967Y-12298388D02*
X12922444Y-12317436D01*
X12922444Y-12317436D02*
X12912920Y-12326960D01*
X12912920Y-12326960D02*
X12893872Y-12336484D01*
X12893872Y-12336484D02*
X12846253Y-12336484D01*
X12846253Y-12336484D02*
X12827206Y-12326960D01*
X12827206Y-12326960D02*
X12817682Y-12317436D01*
X12998634Y-12136484D02*
X13131967Y-12136484D01*
X13131967Y-12136484D02*
X13046253Y-12336484D01*
X13198634Y-12136484D02*
X13198634Y-12174579D01*
X13274825Y-12136484D02*
X13274825Y-12174579D01*
X13570063Y-12412674D02*
X13560539Y-12403150D01*
X13560539Y-12403150D02*
X13541491Y-12374579D01*
X13541491Y-12374579D02*
X13531968Y-12355531D01*
X13531968Y-12355531D02*
X13522444Y-12326960D01*
X13522444Y-12326960D02*
X13512920Y-12279341D01*
X13512920Y-12279341D02*
X13512920Y-12241246D01*
X13512920Y-12241246D02*
X13522444Y-12193627D01*
X13522444Y-12193627D02*
X13531968Y-12165055D01*
X13531968Y-12165055D02*
X13541491Y-12146008D01*
X13541491Y-12146008D02*
X13560539Y-12117436D01*
X13560539Y-12117436D02*
X13570063Y-12107912D01*
X13751015Y-12336484D02*
X13636729Y-12336484D01*
X13693872Y-12336484D02*
X13693872Y-12136484D01*
X13693872Y-12136484D02*
X13674825Y-12165055D01*
X13674825Y-12165055D02*
X13655777Y-12184103D01*
X13655777Y-12184103D02*
X13636729Y-12193627D01*
X13846253Y-12336484D02*
X13884348Y-12336484D01*
X13884348Y-12336484D02*
X13903396Y-12326960D01*
X13903396Y-12326960D02*
X13912920Y-12317436D01*
X13912920Y-12317436D02*
X13931968Y-12288865D01*
X13931968Y-12288865D02*
X13941491Y-12250769D01*
X13941491Y-12250769D02*
X13941491Y-12174579D01*
X13941491Y-12174579D02*
X13931968Y-12155531D01*
X13931968Y-12155531D02*
X13922444Y-12146008D01*
X13922444Y-12146008D02*
X13903396Y-12136484D01*
X13903396Y-12136484D02*
X13865301Y-12136484D01*
X13865301Y-12136484D02*
X13846253Y-12146008D01*
X13846253Y-12146008D02*
X13836729Y-12155531D01*
X13836729Y-12155531D02*
X13827206Y-12174579D01*
X13827206Y-12174579D02*
X13827206Y-12222198D01*
X13827206Y-12222198D02*
X13836729Y-12241246D01*
X13836729Y-12241246D02*
X13846253Y-12250769D01*
X13846253Y-12250769D02*
X13865301Y-12260293D01*
X13865301Y-12260293D02*
X13903396Y-12260293D01*
X13903396Y-12260293D02*
X13922444Y-12250769D01*
X13922444Y-12250769D02*
X13931968Y-12241246D01*
X13931968Y-12241246D02*
X13941491Y-12222198D01*
X14179587Y-12336484D02*
X14179587Y-12136484D01*
X14265301Y-12336484D02*
X14265301Y-12231722D01*
X14265301Y-12231722D02*
X14255777Y-12212674D01*
X14255777Y-12212674D02*
X14236730Y-12203150D01*
X14236730Y-12203150D02*
X14208158Y-12203150D01*
X14208158Y-12203150D02*
X14189110Y-12212674D01*
X14189110Y-12212674D02*
X14179587Y-12222198D01*
X14389110Y-12336484D02*
X14370063Y-12326960D01*
X14370063Y-12326960D02*
X14360539Y-12317436D01*
X14360539Y-12317436D02*
X14351015Y-12298388D01*
X14351015Y-12298388D02*
X14351015Y-12241246D01*
X14351015Y-12241246D02*
X14360539Y-12222198D01*
X14360539Y-12222198D02*
X14370063Y-12212674D01*
X14370063Y-12212674D02*
X14389110Y-12203150D01*
X14389110Y-12203150D02*
X14417682Y-12203150D01*
X14417682Y-12203150D02*
X14436730Y-12212674D01*
X14436730Y-12212674D02*
X14446253Y-12222198D01*
X14446253Y-12222198D02*
X14455777Y-12241246D01*
X14455777Y-12241246D02*
X14455777Y-12298388D01*
X14455777Y-12298388D02*
X14446253Y-12317436D01*
X14446253Y-12317436D02*
X14436730Y-12326960D01*
X14436730Y-12326960D02*
X14417682Y-12336484D01*
X14417682Y-12336484D02*
X14389110Y-12336484D01*
X14570063Y-12336484D02*
X14551015Y-12326960D01*
X14551015Y-12326960D02*
X14541491Y-12307912D01*
X14541491Y-12307912D02*
X14541491Y-12136484D01*
X14722444Y-12326960D02*
X14703396Y-12336484D01*
X14703396Y-12336484D02*
X14665301Y-12336484D01*
X14665301Y-12336484D02*
X14646253Y-12326960D01*
X14646253Y-12326960D02*
X14636730Y-12307912D01*
X14636730Y-12307912D02*
X14636730Y-12231722D01*
X14636730Y-12231722D02*
X14646253Y-12212674D01*
X14646253Y-12212674D02*
X14665301Y-12203150D01*
X14665301Y-12203150D02*
X14703396Y-12203150D01*
X14703396Y-12203150D02*
X14722444Y-12212674D01*
X14722444Y-12212674D02*
X14731968Y-12231722D01*
X14731968Y-12231722D02*
X14731968Y-12250769D01*
X14731968Y-12250769D02*
X14636730Y-12269817D01*
X14808158Y-12326960D02*
X14827206Y-12336484D01*
X14827206Y-12336484D02*
X14865301Y-12336484D01*
X14865301Y-12336484D02*
X14884349Y-12326960D01*
X14884349Y-12326960D02*
X14893872Y-12307912D01*
X14893872Y-12307912D02*
X14893872Y-12298388D01*
X14893872Y-12298388D02*
X14884349Y-12279341D01*
X14884349Y-12279341D02*
X14865301Y-12269817D01*
X14865301Y-12269817D02*
X14836730Y-12269817D01*
X14836730Y-12269817D02*
X14817682Y-12260293D01*
X14817682Y-12260293D02*
X14808158Y-12241246D01*
X14808158Y-12241246D02*
X14808158Y-12231722D01*
X14808158Y-12231722D02*
X14817682Y-12212674D01*
X14817682Y-12212674D02*
X14836730Y-12203150D01*
X14836730Y-12203150D02*
X14865301Y-12203150D01*
X14865301Y-12203150D02*
X14884349Y-12212674D01*
X14960539Y-12412674D02*
X14970063Y-12403150D01*
X14970063Y-12403150D02*
X14989111Y-12374579D01*
X14989111Y-12374579D02*
X14998634Y-12355531D01*
X14998634Y-12355531D02*
X15008158Y-12326960D01*
X15008158Y-12326960D02*
X15017682Y-12279341D01*
X15017682Y-12279341D02*
X15017682Y-12241246D01*
X15017682Y-12241246D02*
X15008158Y-12193627D01*
X15008158Y-12193627D02*
X14998634Y-12165055D01*
X14998634Y-12165055D02*
X14989111Y-12146008D01*
X14989111Y-12146008D02*
X14970063Y-12117436D01*
X14970063Y-12117436D02*
X14960539Y-12107912D01*
D10*
X9995000Y-12509000D02*
G75*
G03*
X9915000Y-12509000I-40000J0D01*
G01*
X9915000Y-12509000D02*
G75*
G03*
X9995000Y-12509000I40000J0D01*
G01*
D11*
X10293872Y-12400484D02*
X10312920Y-12400484D01*
X10312920Y-12400484D02*
X10331967Y-12410008D01*
X10331967Y-12410008D02*
X10341491Y-12419531D01*
X10341491Y-12419531D02*
X10351015Y-12438579D01*
X10351015Y-12438579D02*
X10360539Y-12476674D01*
X10360539Y-12476674D02*
X10360539Y-12524293D01*
X10360539Y-12524293D02*
X10351015Y-12562388D01*
X10351015Y-12562388D02*
X10341491Y-12581436D01*
X10341491Y-12581436D02*
X10331967Y-12590960D01*
X10331967Y-12590960D02*
X10312920Y-12600484D01*
X10312920Y-12600484D02*
X10293872Y-12600484D01*
X10293872Y-12600484D02*
X10274824Y-12590960D01*
X10274824Y-12590960D02*
X10265301Y-12581436D01*
X10265301Y-12581436D02*
X10255777Y-12562388D01*
X10255777Y-12562388D02*
X10246253Y-12524293D01*
X10246253Y-12524293D02*
X10246253Y-12476674D01*
X10246253Y-12476674D02*
X10255777Y-12438579D01*
X10255777Y-12438579D02*
X10265301Y-12419531D01*
X10265301Y-12419531D02*
X10274824Y-12410008D01*
X10274824Y-12410008D02*
X10293872Y-12400484D01*
X10446253Y-12581436D02*
X10455777Y-12590960D01*
X10455777Y-12590960D02*
X10446253Y-12600484D01*
X10446253Y-12600484D02*
X10436729Y-12590960D01*
X10436729Y-12590960D02*
X10446253Y-12581436D01*
X10446253Y-12581436D02*
X10446253Y-12600484D01*
X10570063Y-12486198D02*
X10551015Y-12476674D01*
X10551015Y-12476674D02*
X10541491Y-12467150D01*
X10541491Y-12467150D02*
X10531967Y-12448103D01*
X10531967Y-12448103D02*
X10531967Y-12438579D01*
X10531967Y-12438579D02*
X10541491Y-12419531D01*
X10541491Y-12419531D02*
X10551015Y-12410008D01*
X10551015Y-12410008D02*
X10570063Y-12400484D01*
X10570063Y-12400484D02*
X10608158Y-12400484D01*
X10608158Y-12400484D02*
X10627205Y-12410008D01*
X10627205Y-12410008D02*
X10636729Y-12419531D01*
X10636729Y-12419531D02*
X10646253Y-12438579D01*
X10646253Y-12438579D02*
X10646253Y-12448103D01*
X10646253Y-12448103D02*
X10636729Y-12467150D01*
X10636729Y-12467150D02*
X10627205Y-12476674D01*
X10627205Y-12476674D02*
X10608158Y-12486198D01*
X10608158Y-12486198D02*
X10570063Y-12486198D01*
X10570063Y-12486198D02*
X10551015Y-12495722D01*
X10551015Y-12495722D02*
X10541491Y-12505246D01*
X10541491Y-12505246D02*
X10531967Y-12524293D01*
X10531967Y-12524293D02*
X10531967Y-12562388D01*
X10531967Y-12562388D02*
X10541491Y-12581436D01*
X10541491Y-12581436D02*
X10551015Y-12590960D01*
X10551015Y-12590960D02*
X10570063Y-12600484D01*
X10570063Y-12600484D02*
X10608158Y-12600484D01*
X10608158Y-12600484D02*
X10627205Y-12590960D01*
X10627205Y-12590960D02*
X10636729Y-12581436D01*
X10636729Y-12581436D02*
X10646253Y-12562388D01*
X10646253Y-12562388D02*
X10646253Y-12524293D01*
X10646253Y-12524293D02*
X10636729Y-12505246D01*
X10636729Y-12505246D02*
X10627205Y-12495722D01*
X10627205Y-12495722D02*
X10608158Y-12486198D01*
X10770063Y-12400484D02*
X10789110Y-12400484D01*
X10789110Y-12400484D02*
X10808158Y-12410008D01*
X10808158Y-12410008D02*
X10817682Y-12419531D01*
X10817682Y-12419531D02*
X10827205Y-12438579D01*
X10827205Y-12438579D02*
X10836729Y-12476674D01*
X10836729Y-12476674D02*
X10836729Y-12524293D01*
X10836729Y-12524293D02*
X10827205Y-12562388D01*
X10827205Y-12562388D02*
X10817682Y-12581436D01*
X10817682Y-12581436D02*
X10808158Y-12590960D01*
X10808158Y-12590960D02*
X10789110Y-12600484D01*
X10789110Y-12600484D02*
X10770063Y-12600484D01*
X10770063Y-12600484D02*
X10751015Y-12590960D01*
X10751015Y-12590960D02*
X10741491Y-12581436D01*
X10741491Y-12581436D02*
X10731967Y-12562388D01*
X10731967Y-12562388D02*
X10722444Y-12524293D01*
X10722444Y-12524293D02*
X10722444Y-12476674D01*
X10722444Y-12476674D02*
X10731967Y-12438579D01*
X10731967Y-12438579D02*
X10741491Y-12419531D01*
X10741491Y-12419531D02*
X10751015Y-12410008D01*
X10751015Y-12410008D02*
X10770063Y-12400484D01*
X10960539Y-12400484D02*
X10979586Y-12400484D01*
X10979586Y-12400484D02*
X10998634Y-12410008D01*
X10998634Y-12410008D02*
X11008158Y-12419531D01*
X11008158Y-12419531D02*
X11017682Y-12438579D01*
X11017682Y-12438579D02*
X11027205Y-12476674D01*
X11027205Y-12476674D02*
X11027205Y-12524293D01*
X11027205Y-12524293D02*
X11017682Y-12562388D01*
X11017682Y-12562388D02*
X11008158Y-12581436D01*
X11008158Y-12581436D02*
X10998634Y-12590960D01*
X10998634Y-12590960D02*
X10979586Y-12600484D01*
X10979586Y-12600484D02*
X10960539Y-12600484D01*
X10960539Y-12600484D02*
X10941491Y-12590960D01*
X10941491Y-12590960D02*
X10931967Y-12581436D01*
X10931967Y-12581436D02*
X10922444Y-12562388D01*
X10922444Y-12562388D02*
X10912920Y-12524293D01*
X10912920Y-12524293D02*
X10912920Y-12476674D01*
X10912920Y-12476674D02*
X10922444Y-12438579D01*
X10922444Y-12438579D02*
X10931967Y-12419531D01*
X10931967Y-12419531D02*
X10941491Y-12410008D01*
X10941491Y-12410008D02*
X10960539Y-12400484D01*
X11112920Y-12600484D02*
X11112920Y-12467150D01*
X11112920Y-12486198D02*
X11122444Y-12476674D01*
X11122444Y-12476674D02*
X11141491Y-12467150D01*
X11141491Y-12467150D02*
X11170063Y-12467150D01*
X11170063Y-12467150D02*
X11189110Y-12476674D01*
X11189110Y-12476674D02*
X11198634Y-12495722D01*
X11198634Y-12495722D02*
X11198634Y-12600484D01*
X11198634Y-12495722D02*
X11208158Y-12476674D01*
X11208158Y-12476674D02*
X11227205Y-12467150D01*
X11227205Y-12467150D02*
X11255777Y-12467150D01*
X11255777Y-12467150D02*
X11274824Y-12476674D01*
X11274824Y-12476674D02*
X11284348Y-12495722D01*
X11284348Y-12495722D02*
X11284348Y-12600484D01*
X11379586Y-12600484D02*
X11379586Y-12467150D01*
X11379586Y-12486198D02*
X11389110Y-12476674D01*
X11389110Y-12476674D02*
X11408158Y-12467150D01*
X11408158Y-12467150D02*
X11436729Y-12467150D01*
X11436729Y-12467150D02*
X11455777Y-12476674D01*
X11455777Y-12476674D02*
X11465301Y-12495722D01*
X11465301Y-12495722D02*
X11465301Y-12600484D01*
X11465301Y-12495722D02*
X11474824Y-12476674D01*
X11474824Y-12476674D02*
X11493872Y-12467150D01*
X11493872Y-12467150D02*
X11522443Y-12467150D01*
X11522443Y-12467150D02*
X11541491Y-12476674D01*
X11541491Y-12476674D02*
X11551015Y-12495722D01*
X11551015Y-12495722D02*
X11551015Y-12600484D01*
X11941491Y-12390960D02*
X11770063Y-12648103D01*
X12198634Y-12400484D02*
X12217682Y-12400484D01*
X12217682Y-12400484D02*
X12236729Y-12410008D01*
X12236729Y-12410008D02*
X12246253Y-12419531D01*
X12246253Y-12419531D02*
X12255777Y-12438579D01*
X12255777Y-12438579D02*
X12265301Y-12476674D01*
X12265301Y-12476674D02*
X12265301Y-12524293D01*
X12265301Y-12524293D02*
X12255777Y-12562388D01*
X12255777Y-12562388D02*
X12246253Y-12581436D01*
X12246253Y-12581436D02*
X12236729Y-12590960D01*
X12236729Y-12590960D02*
X12217682Y-12600484D01*
X12217682Y-12600484D02*
X12198634Y-12600484D01*
X12198634Y-12600484D02*
X12179586Y-12590960D01*
X12179586Y-12590960D02*
X12170063Y-12581436D01*
X12170063Y-12581436D02*
X12160539Y-12562388D01*
X12160539Y-12562388D02*
X12151015Y-12524293D01*
X12151015Y-12524293D02*
X12151015Y-12476674D01*
X12151015Y-12476674D02*
X12160539Y-12438579D01*
X12160539Y-12438579D02*
X12170063Y-12419531D01*
X12170063Y-12419531D02*
X12179586Y-12410008D01*
X12179586Y-12410008D02*
X12198634Y-12400484D01*
X12351015Y-12581436D02*
X12360539Y-12590960D01*
X12360539Y-12590960D02*
X12351015Y-12600484D01*
X12351015Y-12600484D02*
X12341491Y-12590960D01*
X12341491Y-12590960D02*
X12351015Y-12581436D01*
X12351015Y-12581436D02*
X12351015Y-12600484D01*
X12484348Y-12400484D02*
X12503396Y-12400484D01*
X12503396Y-12400484D02*
X12522444Y-12410008D01*
X12522444Y-12410008D02*
X12531967Y-12419531D01*
X12531967Y-12419531D02*
X12541491Y-12438579D01*
X12541491Y-12438579D02*
X12551015Y-12476674D01*
X12551015Y-12476674D02*
X12551015Y-12524293D01*
X12551015Y-12524293D02*
X12541491Y-12562388D01*
X12541491Y-12562388D02*
X12531967Y-12581436D01*
X12531967Y-12581436D02*
X12522444Y-12590960D01*
X12522444Y-12590960D02*
X12503396Y-12600484D01*
X12503396Y-12600484D02*
X12484348Y-12600484D01*
X12484348Y-12600484D02*
X12465301Y-12590960D01*
X12465301Y-12590960D02*
X12455777Y-12581436D01*
X12455777Y-12581436D02*
X12446253Y-12562388D01*
X12446253Y-12562388D02*
X12436729Y-12524293D01*
X12436729Y-12524293D02*
X12436729Y-12476674D01*
X12436729Y-12476674D02*
X12446253Y-12438579D01*
X12446253Y-12438579D02*
X12455777Y-12419531D01*
X12455777Y-12419531D02*
X12465301Y-12410008D01*
X12465301Y-12410008D02*
X12484348Y-12400484D01*
X12617682Y-12400484D02*
X12741491Y-12400484D01*
X12741491Y-12400484D02*
X12674825Y-12476674D01*
X12674825Y-12476674D02*
X12703396Y-12476674D01*
X12703396Y-12476674D02*
X12722444Y-12486198D01*
X12722444Y-12486198D02*
X12731967Y-12495722D01*
X12731967Y-12495722D02*
X12741491Y-12514769D01*
X12741491Y-12514769D02*
X12741491Y-12562388D01*
X12741491Y-12562388D02*
X12731967Y-12581436D01*
X12731967Y-12581436D02*
X12722444Y-12590960D01*
X12722444Y-12590960D02*
X12703396Y-12600484D01*
X12703396Y-12600484D02*
X12646253Y-12600484D01*
X12646253Y-12600484D02*
X12627206Y-12590960D01*
X12627206Y-12590960D02*
X12617682Y-12581436D01*
X12931967Y-12600484D02*
X12817682Y-12600484D01*
X12874825Y-12600484D02*
X12874825Y-12400484D01*
X12874825Y-12400484D02*
X12855777Y-12429055D01*
X12855777Y-12429055D02*
X12836729Y-12448103D01*
X12836729Y-12448103D02*
X12817682Y-12457627D01*
X13112920Y-12400484D02*
X13017682Y-12400484D01*
X13017682Y-12400484D02*
X13008158Y-12495722D01*
X13008158Y-12495722D02*
X13017682Y-12486198D01*
X13017682Y-12486198D02*
X13036729Y-12476674D01*
X13036729Y-12476674D02*
X13084348Y-12476674D01*
X13084348Y-12476674D02*
X13103396Y-12486198D01*
X13103396Y-12486198D02*
X13112920Y-12495722D01*
X13112920Y-12495722D02*
X13122444Y-12514769D01*
X13122444Y-12514769D02*
X13122444Y-12562388D01*
X13122444Y-12562388D02*
X13112920Y-12581436D01*
X13112920Y-12581436D02*
X13103396Y-12590960D01*
X13103396Y-12590960D02*
X13084348Y-12600484D01*
X13084348Y-12600484D02*
X13036729Y-12600484D01*
X13036729Y-12600484D02*
X13017682Y-12590960D01*
X13017682Y-12590960D02*
X13008158Y-12581436D01*
X13198634Y-12400484D02*
X13198634Y-12438579D01*
X13274825Y-12400484D02*
X13274825Y-12438579D01*
X13570063Y-12676674D02*
X13560539Y-12667150D01*
X13560539Y-12667150D02*
X13541491Y-12638579D01*
X13541491Y-12638579D02*
X13531968Y-12619531D01*
X13531968Y-12619531D02*
X13522444Y-12590960D01*
X13522444Y-12590960D02*
X13512920Y-12543341D01*
X13512920Y-12543341D02*
X13512920Y-12505246D01*
X13512920Y-12505246D02*
X13522444Y-12457627D01*
X13522444Y-12457627D02*
X13531968Y-12429055D01*
X13531968Y-12429055D02*
X13541491Y-12410008D01*
X13541491Y-12410008D02*
X13560539Y-12381436D01*
X13560539Y-12381436D02*
X13570063Y-12371912D01*
X13731968Y-12467150D02*
X13731968Y-12600484D01*
X13684348Y-12390960D02*
X13636729Y-12533817D01*
X13636729Y-12533817D02*
X13760539Y-12533817D01*
X13989110Y-12600484D02*
X13989110Y-12400484D01*
X14074825Y-12600484D02*
X14074825Y-12495722D01*
X14074825Y-12495722D02*
X14065301Y-12476674D01*
X14065301Y-12476674D02*
X14046253Y-12467150D01*
X14046253Y-12467150D02*
X14017682Y-12467150D01*
X14017682Y-12467150D02*
X13998634Y-12476674D01*
X13998634Y-12476674D02*
X13989110Y-12486198D01*
X14198634Y-12600484D02*
X14179587Y-12590960D01*
X14179587Y-12590960D02*
X14170063Y-12581436D01*
X14170063Y-12581436D02*
X14160539Y-12562388D01*
X14160539Y-12562388D02*
X14160539Y-12505246D01*
X14160539Y-12505246D02*
X14170063Y-12486198D01*
X14170063Y-12486198D02*
X14179587Y-12476674D01*
X14179587Y-12476674D02*
X14198634Y-12467150D01*
X14198634Y-12467150D02*
X14227206Y-12467150D01*
X14227206Y-12467150D02*
X14246253Y-12476674D01*
X14246253Y-12476674D02*
X14255777Y-12486198D01*
X14255777Y-12486198D02*
X14265301Y-12505246D01*
X14265301Y-12505246D02*
X14265301Y-12562388D01*
X14265301Y-12562388D02*
X14255777Y-12581436D01*
X14255777Y-12581436D02*
X14246253Y-12590960D01*
X14246253Y-12590960D02*
X14227206Y-12600484D01*
X14227206Y-12600484D02*
X14198634Y-12600484D01*
X14379587Y-12600484D02*
X14360539Y-12590960D01*
X14360539Y-12590960D02*
X14351015Y-12571912D01*
X14351015Y-12571912D02*
X14351015Y-12400484D01*
X14531968Y-12590960D02*
X14512920Y-12600484D01*
X14512920Y-12600484D02*
X14474825Y-12600484D01*
X14474825Y-12600484D02*
X14455777Y-12590960D01*
X14455777Y-12590960D02*
X14446253Y-12571912D01*
X14446253Y-12571912D02*
X14446253Y-12495722D01*
X14446253Y-12495722D02*
X14455777Y-12476674D01*
X14455777Y-12476674D02*
X14474825Y-12467150D01*
X14474825Y-12467150D02*
X14512920Y-12467150D01*
X14512920Y-12467150D02*
X14531968Y-12476674D01*
X14531968Y-12476674D02*
X14541491Y-12495722D01*
X14541491Y-12495722D02*
X14541491Y-12514769D01*
X14541491Y-12514769D02*
X14446253Y-12533817D01*
X14617682Y-12590960D02*
X14636730Y-12600484D01*
X14636730Y-12600484D02*
X14674825Y-12600484D01*
X14674825Y-12600484D02*
X14693872Y-12590960D01*
X14693872Y-12590960D02*
X14703396Y-12571912D01*
X14703396Y-12571912D02*
X14703396Y-12562388D01*
X14703396Y-12562388D02*
X14693872Y-12543341D01*
X14693872Y-12543341D02*
X14674825Y-12533817D01*
X14674825Y-12533817D02*
X14646253Y-12533817D01*
X14646253Y-12533817D02*
X14627206Y-12524293D01*
X14627206Y-12524293D02*
X14617682Y-12505246D01*
X14617682Y-12505246D02*
X14617682Y-12495722D01*
X14617682Y-12495722D02*
X14627206Y-12476674D01*
X14627206Y-12476674D02*
X14646253Y-12467150D01*
X14646253Y-12467150D02*
X14674825Y-12467150D01*
X14674825Y-12467150D02*
X14693872Y-12476674D01*
X14770063Y-12676674D02*
X14779587Y-12667150D01*
X14779587Y-12667150D02*
X14798634Y-12638579D01*
X14798634Y-12638579D02*
X14808158Y-12619531D01*
X14808158Y-12619531D02*
X14817682Y-12590960D01*
X14817682Y-12590960D02*
X14827206Y-12543341D01*
X14827206Y-12543341D02*
X14827206Y-12505246D01*
X14827206Y-12505246D02*
X14817682Y-12457627D01*
X14817682Y-12457627D02*
X14808158Y-12429055D01*
X14808158Y-12429055D02*
X14798634Y-12410008D01*
X14798634Y-12410008D02*
X14779587Y-12381436D01*
X14779587Y-12381436D02*
X14770063Y-12371912D01*
D10*
X9947500Y-12725500D02*
X9947500Y-12820500D01*
X9900000Y-12773000D02*
X9995000Y-12773000D01*
D11*
X10293872Y-12664484D02*
X10312920Y-12664484D01*
X10312920Y-12664484D02*
X10331967Y-12674008D01*
X10331967Y-12674008D02*
X10341491Y-12683531D01*
X10341491Y-12683531D02*
X10351015Y-12702579D01*
X10351015Y-12702579D02*
X10360539Y-12740674D01*
X10360539Y-12740674D02*
X10360539Y-12788293D01*
X10360539Y-12788293D02*
X10351015Y-12826388D01*
X10351015Y-12826388D02*
X10341491Y-12845436D01*
X10341491Y-12845436D02*
X10331967Y-12854960D01*
X10331967Y-12854960D02*
X10312920Y-12864484D01*
X10312920Y-12864484D02*
X10293872Y-12864484D01*
X10293872Y-12864484D02*
X10274824Y-12854960D01*
X10274824Y-12854960D02*
X10265301Y-12845436D01*
X10265301Y-12845436D02*
X10255777Y-12826388D01*
X10255777Y-12826388D02*
X10246253Y-12788293D01*
X10246253Y-12788293D02*
X10246253Y-12740674D01*
X10246253Y-12740674D02*
X10255777Y-12702579D01*
X10255777Y-12702579D02*
X10265301Y-12683531D01*
X10265301Y-12683531D02*
X10274824Y-12674008D01*
X10274824Y-12674008D02*
X10293872Y-12664484D01*
X10446253Y-12845436D02*
X10455777Y-12854960D01*
X10455777Y-12854960D02*
X10446253Y-12864484D01*
X10446253Y-12864484D02*
X10436729Y-12854960D01*
X10436729Y-12854960D02*
X10446253Y-12845436D01*
X10446253Y-12845436D02*
X10446253Y-12864484D01*
X10551015Y-12864484D02*
X10589110Y-12864484D01*
X10589110Y-12864484D02*
X10608158Y-12854960D01*
X10608158Y-12854960D02*
X10617682Y-12845436D01*
X10617682Y-12845436D02*
X10636729Y-12816865D01*
X10636729Y-12816865D02*
X10646253Y-12778769D01*
X10646253Y-12778769D02*
X10646253Y-12702579D01*
X10646253Y-12702579D02*
X10636729Y-12683531D01*
X10636729Y-12683531D02*
X10627205Y-12674008D01*
X10627205Y-12674008D02*
X10608158Y-12664484D01*
X10608158Y-12664484D02*
X10570063Y-12664484D01*
X10570063Y-12664484D02*
X10551015Y-12674008D01*
X10551015Y-12674008D02*
X10541491Y-12683531D01*
X10541491Y-12683531D02*
X10531967Y-12702579D01*
X10531967Y-12702579D02*
X10531967Y-12750198D01*
X10531967Y-12750198D02*
X10541491Y-12769246D01*
X10541491Y-12769246D02*
X10551015Y-12778769D01*
X10551015Y-12778769D02*
X10570063Y-12788293D01*
X10570063Y-12788293D02*
X10608158Y-12788293D01*
X10608158Y-12788293D02*
X10627205Y-12778769D01*
X10627205Y-12778769D02*
X10636729Y-12769246D01*
X10636729Y-12769246D02*
X10646253Y-12750198D01*
X10827205Y-12664484D02*
X10731967Y-12664484D01*
X10731967Y-12664484D02*
X10722444Y-12759722D01*
X10722444Y-12759722D02*
X10731967Y-12750198D01*
X10731967Y-12750198D02*
X10751015Y-12740674D01*
X10751015Y-12740674D02*
X10798634Y-12740674D01*
X10798634Y-12740674D02*
X10817682Y-12750198D01*
X10817682Y-12750198D02*
X10827205Y-12759722D01*
X10827205Y-12759722D02*
X10836729Y-12778769D01*
X10836729Y-12778769D02*
X10836729Y-12826388D01*
X10836729Y-12826388D02*
X10827205Y-12845436D01*
X10827205Y-12845436D02*
X10817682Y-12854960D01*
X10817682Y-12854960D02*
X10798634Y-12864484D01*
X10798634Y-12864484D02*
X10751015Y-12864484D01*
X10751015Y-12864484D02*
X10731967Y-12854960D01*
X10731967Y-12854960D02*
X10722444Y-12845436D01*
X10960539Y-12664484D02*
X10979586Y-12664484D01*
X10979586Y-12664484D02*
X10998634Y-12674008D01*
X10998634Y-12674008D02*
X11008158Y-12683531D01*
X11008158Y-12683531D02*
X11017682Y-12702579D01*
X11017682Y-12702579D02*
X11027205Y-12740674D01*
X11027205Y-12740674D02*
X11027205Y-12788293D01*
X11027205Y-12788293D02*
X11017682Y-12826388D01*
X11017682Y-12826388D02*
X11008158Y-12845436D01*
X11008158Y-12845436D02*
X10998634Y-12854960D01*
X10998634Y-12854960D02*
X10979586Y-12864484D01*
X10979586Y-12864484D02*
X10960539Y-12864484D01*
X10960539Y-12864484D02*
X10941491Y-12854960D01*
X10941491Y-12854960D02*
X10931967Y-12845436D01*
X10931967Y-12845436D02*
X10922444Y-12826388D01*
X10922444Y-12826388D02*
X10912920Y-12788293D01*
X10912920Y-12788293D02*
X10912920Y-12740674D01*
X10912920Y-12740674D02*
X10922444Y-12702579D01*
X10922444Y-12702579D02*
X10931967Y-12683531D01*
X10931967Y-12683531D02*
X10941491Y-12674008D01*
X10941491Y-12674008D02*
X10960539Y-12664484D01*
X11112920Y-12864484D02*
X11112920Y-12731150D01*
X11112920Y-12750198D02*
X11122444Y-12740674D01*
X11122444Y-12740674D02*
X11141491Y-12731150D01*
X11141491Y-12731150D02*
X11170063Y-12731150D01*
X11170063Y-12731150D02*
X11189110Y-12740674D01*
X11189110Y-12740674D02*
X11198634Y-12759722D01*
X11198634Y-12759722D02*
X11198634Y-12864484D01*
X11198634Y-12759722D02*
X11208158Y-12740674D01*
X11208158Y-12740674D02*
X11227205Y-12731150D01*
X11227205Y-12731150D02*
X11255777Y-12731150D01*
X11255777Y-12731150D02*
X11274824Y-12740674D01*
X11274824Y-12740674D02*
X11284348Y-12759722D01*
X11284348Y-12759722D02*
X11284348Y-12864484D01*
X11379586Y-12864484D02*
X11379586Y-12731150D01*
X11379586Y-12750198D02*
X11389110Y-12740674D01*
X11389110Y-12740674D02*
X11408158Y-12731150D01*
X11408158Y-12731150D02*
X11436729Y-12731150D01*
X11436729Y-12731150D02*
X11455777Y-12740674D01*
X11455777Y-12740674D02*
X11465301Y-12759722D01*
X11465301Y-12759722D02*
X11465301Y-12864484D01*
X11465301Y-12759722D02*
X11474824Y-12740674D01*
X11474824Y-12740674D02*
X11493872Y-12731150D01*
X11493872Y-12731150D02*
X11522443Y-12731150D01*
X11522443Y-12731150D02*
X11541491Y-12740674D01*
X11541491Y-12740674D02*
X11551015Y-12759722D01*
X11551015Y-12759722D02*
X11551015Y-12864484D01*
X11941491Y-12654960D02*
X11770063Y-12912103D01*
X12198634Y-12664484D02*
X12217682Y-12664484D01*
X12217682Y-12664484D02*
X12236729Y-12674008D01*
X12236729Y-12674008D02*
X12246253Y-12683531D01*
X12246253Y-12683531D02*
X12255777Y-12702579D01*
X12255777Y-12702579D02*
X12265301Y-12740674D01*
X12265301Y-12740674D02*
X12265301Y-12788293D01*
X12265301Y-12788293D02*
X12255777Y-12826388D01*
X12255777Y-12826388D02*
X12246253Y-12845436D01*
X12246253Y-12845436D02*
X12236729Y-12854960D01*
X12236729Y-12854960D02*
X12217682Y-12864484D01*
X12217682Y-12864484D02*
X12198634Y-12864484D01*
X12198634Y-12864484D02*
X12179586Y-12854960D01*
X12179586Y-12854960D02*
X12170063Y-12845436D01*
X12170063Y-12845436D02*
X12160539Y-12826388D01*
X12160539Y-12826388D02*
X12151015Y-12788293D01*
X12151015Y-12788293D02*
X12151015Y-12740674D01*
X12151015Y-12740674D02*
X12160539Y-12702579D01*
X12160539Y-12702579D02*
X12170063Y-12683531D01*
X12170063Y-12683531D02*
X12179586Y-12674008D01*
X12179586Y-12674008D02*
X12198634Y-12664484D01*
X12351015Y-12845436D02*
X12360539Y-12854960D01*
X12360539Y-12854960D02*
X12351015Y-12864484D01*
X12351015Y-12864484D02*
X12341491Y-12854960D01*
X12341491Y-12854960D02*
X12351015Y-12845436D01*
X12351015Y-12845436D02*
X12351015Y-12864484D01*
X12484348Y-12664484D02*
X12503396Y-12664484D01*
X12503396Y-12664484D02*
X12522444Y-12674008D01*
X12522444Y-12674008D02*
X12531967Y-12683531D01*
X12531967Y-12683531D02*
X12541491Y-12702579D01*
X12541491Y-12702579D02*
X12551015Y-12740674D01*
X12551015Y-12740674D02*
X12551015Y-12788293D01*
X12551015Y-12788293D02*
X12541491Y-12826388D01*
X12541491Y-12826388D02*
X12531967Y-12845436D01*
X12531967Y-12845436D02*
X12522444Y-12854960D01*
X12522444Y-12854960D02*
X12503396Y-12864484D01*
X12503396Y-12864484D02*
X12484348Y-12864484D01*
X12484348Y-12864484D02*
X12465301Y-12854960D01*
X12465301Y-12854960D02*
X12455777Y-12845436D01*
X12455777Y-12845436D02*
X12446253Y-12826388D01*
X12446253Y-12826388D02*
X12436729Y-12788293D01*
X12436729Y-12788293D02*
X12436729Y-12740674D01*
X12436729Y-12740674D02*
X12446253Y-12702579D01*
X12446253Y-12702579D02*
X12455777Y-12683531D01*
X12455777Y-12683531D02*
X12465301Y-12674008D01*
X12465301Y-12674008D02*
X12484348Y-12664484D01*
X12617682Y-12664484D02*
X12741491Y-12664484D01*
X12741491Y-12664484D02*
X12674825Y-12740674D01*
X12674825Y-12740674D02*
X12703396Y-12740674D01*
X12703396Y-12740674D02*
X12722444Y-12750198D01*
X12722444Y-12750198D02*
X12731967Y-12759722D01*
X12731967Y-12759722D02*
X12741491Y-12778769D01*
X12741491Y-12778769D02*
X12741491Y-12826388D01*
X12741491Y-12826388D02*
X12731967Y-12845436D01*
X12731967Y-12845436D02*
X12722444Y-12854960D01*
X12722444Y-12854960D02*
X12703396Y-12864484D01*
X12703396Y-12864484D02*
X12646253Y-12864484D01*
X12646253Y-12864484D02*
X12627206Y-12854960D01*
X12627206Y-12854960D02*
X12617682Y-12845436D01*
X12808158Y-12664484D02*
X12941491Y-12664484D01*
X12941491Y-12664484D02*
X12855777Y-12864484D01*
X13103396Y-12731150D02*
X13103396Y-12864484D01*
X13055777Y-12654960D02*
X13008158Y-12797817D01*
X13008158Y-12797817D02*
X13131967Y-12797817D01*
X13198634Y-12664484D02*
X13198634Y-12702579D01*
X13274825Y-12664484D02*
X13274825Y-12702579D01*
X13570063Y-12940674D02*
X13560539Y-12931150D01*
X13560539Y-12931150D02*
X13541491Y-12902579D01*
X13541491Y-12902579D02*
X13531968Y-12883531D01*
X13531968Y-12883531D02*
X13522444Y-12854960D01*
X13522444Y-12854960D02*
X13512920Y-12807341D01*
X13512920Y-12807341D02*
X13512920Y-12769246D01*
X13512920Y-12769246D02*
X13522444Y-12721627D01*
X13522444Y-12721627D02*
X13531968Y-12693055D01*
X13531968Y-12693055D02*
X13541491Y-12674008D01*
X13541491Y-12674008D02*
X13560539Y-12645436D01*
X13560539Y-12645436D02*
X13570063Y-12635912D01*
X13751015Y-12864484D02*
X13636729Y-12864484D01*
X13693872Y-12864484D02*
X13693872Y-12664484D01*
X13693872Y-12664484D02*
X13674825Y-12693055D01*
X13674825Y-12693055D02*
X13655777Y-12712103D01*
X13655777Y-12712103D02*
X13636729Y-12721627D01*
X13827206Y-12683531D02*
X13836729Y-12674008D01*
X13836729Y-12674008D02*
X13855777Y-12664484D01*
X13855777Y-12664484D02*
X13903396Y-12664484D01*
X13903396Y-12664484D02*
X13922444Y-12674008D01*
X13922444Y-12674008D02*
X13931968Y-12683531D01*
X13931968Y-12683531D02*
X13941491Y-12702579D01*
X13941491Y-12702579D02*
X13941491Y-12721627D01*
X13941491Y-12721627D02*
X13931968Y-12750198D01*
X13931968Y-12750198D02*
X13817682Y-12864484D01*
X13817682Y-12864484D02*
X13941491Y-12864484D01*
X14179587Y-12864484D02*
X14179587Y-12664484D01*
X14265301Y-12864484D02*
X14265301Y-12759722D01*
X14265301Y-12759722D02*
X14255777Y-12740674D01*
X14255777Y-12740674D02*
X14236730Y-12731150D01*
X14236730Y-12731150D02*
X14208158Y-12731150D01*
X14208158Y-12731150D02*
X14189110Y-12740674D01*
X14189110Y-12740674D02*
X14179587Y-12750198D01*
X14389110Y-12864484D02*
X14370063Y-12854960D01*
X14370063Y-12854960D02*
X14360539Y-12845436D01*
X14360539Y-12845436D02*
X14351015Y-12826388D01*
X14351015Y-12826388D02*
X14351015Y-12769246D01*
X14351015Y-12769246D02*
X14360539Y-12750198D01*
X14360539Y-12750198D02*
X14370063Y-12740674D01*
X14370063Y-12740674D02*
X14389110Y-12731150D01*
X14389110Y-12731150D02*
X14417682Y-12731150D01*
X14417682Y-12731150D02*
X14436730Y-12740674D01*
X14436730Y-12740674D02*
X14446253Y-12750198D01*
X14446253Y-12750198D02*
X14455777Y-12769246D01*
X14455777Y-12769246D02*
X14455777Y-12826388D01*
X14455777Y-12826388D02*
X14446253Y-12845436D01*
X14446253Y-12845436D02*
X14436730Y-12854960D01*
X14436730Y-12854960D02*
X14417682Y-12864484D01*
X14417682Y-12864484D02*
X14389110Y-12864484D01*
X14570063Y-12864484D02*
X14551015Y-12854960D01*
X14551015Y-12854960D02*
X14541491Y-12835912D01*
X14541491Y-12835912D02*
X14541491Y-12664484D01*
X14722444Y-12854960D02*
X14703396Y-12864484D01*
X14703396Y-12864484D02*
X14665301Y-12864484D01*
X14665301Y-12864484D02*
X14646253Y-12854960D01*
X14646253Y-12854960D02*
X14636730Y-12835912D01*
X14636730Y-12835912D02*
X14636730Y-12759722D01*
X14636730Y-12759722D02*
X14646253Y-12740674D01*
X14646253Y-12740674D02*
X14665301Y-12731150D01*
X14665301Y-12731150D02*
X14703396Y-12731150D01*
X14703396Y-12731150D02*
X14722444Y-12740674D01*
X14722444Y-12740674D02*
X14731968Y-12759722D01*
X14731968Y-12759722D02*
X14731968Y-12778769D01*
X14731968Y-12778769D02*
X14636730Y-12797817D01*
X14808158Y-12854960D02*
X14827206Y-12864484D01*
X14827206Y-12864484D02*
X14865301Y-12864484D01*
X14865301Y-12864484D02*
X14884349Y-12854960D01*
X14884349Y-12854960D02*
X14893872Y-12835912D01*
X14893872Y-12835912D02*
X14893872Y-12826388D01*
X14893872Y-12826388D02*
X14884349Y-12807341D01*
X14884349Y-12807341D02*
X14865301Y-12797817D01*
X14865301Y-12797817D02*
X14836730Y-12797817D01*
X14836730Y-12797817D02*
X14817682Y-12788293D01*
X14817682Y-12788293D02*
X14808158Y-12769246D01*
X14808158Y-12769246D02*
X14808158Y-12759722D01*
X14808158Y-12759722D02*
X14817682Y-12740674D01*
X14817682Y-12740674D02*
X14836730Y-12731150D01*
X14836730Y-12731150D02*
X14865301Y-12731150D01*
X14865301Y-12731150D02*
X14884349Y-12740674D01*
X14960539Y-12940674D02*
X14970063Y-12931150D01*
X14970063Y-12931150D02*
X14989111Y-12902579D01*
X14989111Y-12902579D02*
X14998634Y-12883531D01*
X14998634Y-12883531D02*
X15008158Y-12854960D01*
X15008158Y-12854960D02*
X15017682Y-12807341D01*
X15017682Y-12807341D02*
X15017682Y-12769246D01*
X15017682Y-12769246D02*
X15008158Y-12721627D01*
X15008158Y-12721627D02*
X14998634Y-12693055D01*
X14998634Y-12693055D02*
X14989111Y-12674008D01*
X14989111Y-12674008D02*
X14970063Y-12645436D01*
X14970063Y-12645436D02*
X14960539Y-12635912D01*
D10*
X9980356Y-13072356D02*
X9980356Y-13001644D01*
X9909644Y-13001644D01*
X9909644Y-13072356D01*
X9980356Y-13072356D01*
D11*
X10360539Y-13128484D02*
X10246253Y-13128484D01*
X10303396Y-13128484D02*
X10303396Y-12928484D01*
X10303396Y-12928484D02*
X10284348Y-12957055D01*
X10284348Y-12957055D02*
X10265301Y-12976103D01*
X10265301Y-12976103D02*
X10246253Y-12985627D01*
X10446253Y-13109436D02*
X10455777Y-13118960D01*
X10455777Y-13118960D02*
X10446253Y-13128484D01*
X10446253Y-13128484D02*
X10436729Y-13118960D01*
X10436729Y-13118960D02*
X10446253Y-13109436D01*
X10446253Y-13109436D02*
X10446253Y-13128484D01*
X10579586Y-12928484D02*
X10598634Y-12928484D01*
X10598634Y-12928484D02*
X10617682Y-12938008D01*
X10617682Y-12938008D02*
X10627205Y-12947531D01*
X10627205Y-12947531D02*
X10636729Y-12966579D01*
X10636729Y-12966579D02*
X10646253Y-13004674D01*
X10646253Y-13004674D02*
X10646253Y-13052293D01*
X10646253Y-13052293D02*
X10636729Y-13090388D01*
X10636729Y-13090388D02*
X10627205Y-13109436D01*
X10627205Y-13109436D02*
X10617682Y-13118960D01*
X10617682Y-13118960D02*
X10598634Y-13128484D01*
X10598634Y-13128484D02*
X10579586Y-13128484D01*
X10579586Y-13128484D02*
X10560539Y-13118960D01*
X10560539Y-13118960D02*
X10551015Y-13109436D01*
X10551015Y-13109436D02*
X10541491Y-13090388D01*
X10541491Y-13090388D02*
X10531967Y-13052293D01*
X10531967Y-13052293D02*
X10531967Y-13004674D01*
X10531967Y-13004674D02*
X10541491Y-12966579D01*
X10541491Y-12966579D02*
X10551015Y-12947531D01*
X10551015Y-12947531D02*
X10560539Y-12938008D01*
X10560539Y-12938008D02*
X10579586Y-12928484D01*
X10770063Y-12928484D02*
X10789110Y-12928484D01*
X10789110Y-12928484D02*
X10808158Y-12938008D01*
X10808158Y-12938008D02*
X10817682Y-12947531D01*
X10817682Y-12947531D02*
X10827205Y-12966579D01*
X10827205Y-12966579D02*
X10836729Y-13004674D01*
X10836729Y-13004674D02*
X10836729Y-13052293D01*
X10836729Y-13052293D02*
X10827205Y-13090388D01*
X10827205Y-13090388D02*
X10817682Y-13109436D01*
X10817682Y-13109436D02*
X10808158Y-13118960D01*
X10808158Y-13118960D02*
X10789110Y-13128484D01*
X10789110Y-13128484D02*
X10770063Y-13128484D01*
X10770063Y-13128484D02*
X10751015Y-13118960D01*
X10751015Y-13118960D02*
X10741491Y-13109436D01*
X10741491Y-13109436D02*
X10731967Y-13090388D01*
X10731967Y-13090388D02*
X10722444Y-13052293D01*
X10722444Y-13052293D02*
X10722444Y-13004674D01*
X10722444Y-13004674D02*
X10731967Y-12966579D01*
X10731967Y-12966579D02*
X10741491Y-12947531D01*
X10741491Y-12947531D02*
X10751015Y-12938008D01*
X10751015Y-12938008D02*
X10770063Y-12928484D01*
X10960539Y-12928484D02*
X10979586Y-12928484D01*
X10979586Y-12928484D02*
X10998634Y-12938008D01*
X10998634Y-12938008D02*
X11008158Y-12947531D01*
X11008158Y-12947531D02*
X11017682Y-12966579D01*
X11017682Y-12966579D02*
X11027205Y-13004674D01*
X11027205Y-13004674D02*
X11027205Y-13052293D01*
X11027205Y-13052293D02*
X11017682Y-13090388D01*
X11017682Y-13090388D02*
X11008158Y-13109436D01*
X11008158Y-13109436D02*
X10998634Y-13118960D01*
X10998634Y-13118960D02*
X10979586Y-13128484D01*
X10979586Y-13128484D02*
X10960539Y-13128484D01*
X10960539Y-13128484D02*
X10941491Y-13118960D01*
X10941491Y-13118960D02*
X10931967Y-13109436D01*
X10931967Y-13109436D02*
X10922444Y-13090388D01*
X10922444Y-13090388D02*
X10912920Y-13052293D01*
X10912920Y-13052293D02*
X10912920Y-13004674D01*
X10912920Y-13004674D02*
X10922444Y-12966579D01*
X10922444Y-12966579D02*
X10931967Y-12947531D01*
X10931967Y-12947531D02*
X10941491Y-12938008D01*
X10941491Y-12938008D02*
X10960539Y-12928484D01*
X11112920Y-13128484D02*
X11112920Y-12995150D01*
X11112920Y-13014198D02*
X11122444Y-13004674D01*
X11122444Y-13004674D02*
X11141491Y-12995150D01*
X11141491Y-12995150D02*
X11170063Y-12995150D01*
X11170063Y-12995150D02*
X11189110Y-13004674D01*
X11189110Y-13004674D02*
X11198634Y-13023722D01*
X11198634Y-13023722D02*
X11198634Y-13128484D01*
X11198634Y-13023722D02*
X11208158Y-13004674D01*
X11208158Y-13004674D02*
X11227205Y-12995150D01*
X11227205Y-12995150D02*
X11255777Y-12995150D01*
X11255777Y-12995150D02*
X11274824Y-13004674D01*
X11274824Y-13004674D02*
X11284348Y-13023722D01*
X11284348Y-13023722D02*
X11284348Y-13128484D01*
X11379586Y-13128484D02*
X11379586Y-12995150D01*
X11379586Y-13014198D02*
X11389110Y-13004674D01*
X11389110Y-13004674D02*
X11408158Y-12995150D01*
X11408158Y-12995150D02*
X11436729Y-12995150D01*
X11436729Y-12995150D02*
X11455777Y-13004674D01*
X11455777Y-13004674D02*
X11465301Y-13023722D01*
X11465301Y-13023722D02*
X11465301Y-13128484D01*
X11465301Y-13023722D02*
X11474824Y-13004674D01*
X11474824Y-13004674D02*
X11493872Y-12995150D01*
X11493872Y-12995150D02*
X11522443Y-12995150D01*
X11522443Y-12995150D02*
X11541491Y-13004674D01*
X11541491Y-13004674D02*
X11551015Y-13023722D01*
X11551015Y-13023722D02*
X11551015Y-13128484D01*
X11941491Y-12918960D02*
X11770063Y-13176103D01*
X12198634Y-12928484D02*
X12217682Y-12928484D01*
X12217682Y-12928484D02*
X12236729Y-12938008D01*
X12236729Y-12938008D02*
X12246253Y-12947531D01*
X12246253Y-12947531D02*
X12255777Y-12966579D01*
X12255777Y-12966579D02*
X12265301Y-13004674D01*
X12265301Y-13004674D02*
X12265301Y-13052293D01*
X12265301Y-13052293D02*
X12255777Y-13090388D01*
X12255777Y-13090388D02*
X12246253Y-13109436D01*
X12246253Y-13109436D02*
X12236729Y-13118960D01*
X12236729Y-13118960D02*
X12217682Y-13128484D01*
X12217682Y-13128484D02*
X12198634Y-13128484D01*
X12198634Y-13128484D02*
X12179586Y-13118960D01*
X12179586Y-13118960D02*
X12170063Y-13109436D01*
X12170063Y-13109436D02*
X12160539Y-13090388D01*
X12160539Y-13090388D02*
X12151015Y-13052293D01*
X12151015Y-13052293D02*
X12151015Y-13004674D01*
X12151015Y-13004674D02*
X12160539Y-12966579D01*
X12160539Y-12966579D02*
X12170063Y-12947531D01*
X12170063Y-12947531D02*
X12179586Y-12938008D01*
X12179586Y-12938008D02*
X12198634Y-12928484D01*
X12351015Y-13109436D02*
X12360539Y-13118960D01*
X12360539Y-13118960D02*
X12351015Y-13128484D01*
X12351015Y-13128484D02*
X12341491Y-13118960D01*
X12341491Y-13118960D02*
X12351015Y-13109436D01*
X12351015Y-13109436D02*
X12351015Y-13128484D01*
X12484348Y-12928484D02*
X12503396Y-12928484D01*
X12503396Y-12928484D02*
X12522444Y-12938008D01*
X12522444Y-12938008D02*
X12531967Y-12947531D01*
X12531967Y-12947531D02*
X12541491Y-12966579D01*
X12541491Y-12966579D02*
X12551015Y-13004674D01*
X12551015Y-13004674D02*
X12551015Y-13052293D01*
X12551015Y-13052293D02*
X12541491Y-13090388D01*
X12541491Y-13090388D02*
X12531967Y-13109436D01*
X12531967Y-13109436D02*
X12522444Y-13118960D01*
X12522444Y-13118960D02*
X12503396Y-13128484D01*
X12503396Y-13128484D02*
X12484348Y-13128484D01*
X12484348Y-13128484D02*
X12465301Y-13118960D01*
X12465301Y-13118960D02*
X12455777Y-13109436D01*
X12455777Y-13109436D02*
X12446253Y-13090388D01*
X12446253Y-13090388D02*
X12436729Y-13052293D01*
X12436729Y-13052293D02*
X12436729Y-13004674D01*
X12436729Y-13004674D02*
X12446253Y-12966579D01*
X12446253Y-12966579D02*
X12455777Y-12947531D01*
X12455777Y-12947531D02*
X12465301Y-12938008D01*
X12465301Y-12938008D02*
X12484348Y-12928484D01*
X12617682Y-12928484D02*
X12741491Y-12928484D01*
X12741491Y-12928484D02*
X12674825Y-13004674D01*
X12674825Y-13004674D02*
X12703396Y-13004674D01*
X12703396Y-13004674D02*
X12722444Y-13014198D01*
X12722444Y-13014198D02*
X12731967Y-13023722D01*
X12731967Y-13023722D02*
X12741491Y-13042769D01*
X12741491Y-13042769D02*
X12741491Y-13090388D01*
X12741491Y-13090388D02*
X12731967Y-13109436D01*
X12731967Y-13109436D02*
X12722444Y-13118960D01*
X12722444Y-13118960D02*
X12703396Y-13128484D01*
X12703396Y-13128484D02*
X12646253Y-13128484D01*
X12646253Y-13128484D02*
X12627206Y-13118960D01*
X12627206Y-13118960D02*
X12617682Y-13109436D01*
X12836729Y-13128484D02*
X12874825Y-13128484D01*
X12874825Y-13128484D02*
X12893872Y-13118960D01*
X12893872Y-13118960D02*
X12903396Y-13109436D01*
X12903396Y-13109436D02*
X12922444Y-13080865D01*
X12922444Y-13080865D02*
X12931967Y-13042769D01*
X12931967Y-13042769D02*
X12931967Y-12966579D01*
X12931967Y-12966579D02*
X12922444Y-12947531D01*
X12922444Y-12947531D02*
X12912920Y-12938008D01*
X12912920Y-12938008D02*
X12893872Y-12928484D01*
X12893872Y-12928484D02*
X12855777Y-12928484D01*
X12855777Y-12928484D02*
X12836729Y-12938008D01*
X12836729Y-12938008D02*
X12827206Y-12947531D01*
X12827206Y-12947531D02*
X12817682Y-12966579D01*
X12817682Y-12966579D02*
X12817682Y-13014198D01*
X12817682Y-13014198D02*
X12827206Y-13033246D01*
X12827206Y-13033246D02*
X12836729Y-13042769D01*
X12836729Y-13042769D02*
X12855777Y-13052293D01*
X12855777Y-13052293D02*
X12893872Y-13052293D01*
X12893872Y-13052293D02*
X12912920Y-13042769D01*
X12912920Y-13042769D02*
X12922444Y-13033246D01*
X12922444Y-13033246D02*
X12931967Y-13014198D01*
X13103396Y-12995150D02*
X13103396Y-13128484D01*
X13055777Y-12918960D02*
X13008158Y-13061817D01*
X13008158Y-13061817D02*
X13131967Y-13061817D01*
X13198634Y-12928484D02*
X13198634Y-12966579D01*
X13274825Y-12928484D02*
X13274825Y-12966579D01*
X13570063Y-13204674D02*
X13560539Y-13195150D01*
X13560539Y-13195150D02*
X13541491Y-13166579D01*
X13541491Y-13166579D02*
X13531968Y-13147531D01*
X13531968Y-13147531D02*
X13522444Y-13118960D01*
X13522444Y-13118960D02*
X13512920Y-13071341D01*
X13512920Y-13071341D02*
X13512920Y-13033246D01*
X13512920Y-13033246D02*
X13522444Y-12985627D01*
X13522444Y-12985627D02*
X13531968Y-12957055D01*
X13531968Y-12957055D02*
X13541491Y-12938008D01*
X13541491Y-12938008D02*
X13560539Y-12909436D01*
X13560539Y-12909436D02*
X13570063Y-12899912D01*
X13627206Y-12928484D02*
X13751015Y-12928484D01*
X13751015Y-12928484D02*
X13684348Y-13004674D01*
X13684348Y-13004674D02*
X13712920Y-13004674D01*
X13712920Y-13004674D02*
X13731968Y-13014198D01*
X13731968Y-13014198D02*
X13741491Y-13023722D01*
X13741491Y-13023722D02*
X13751015Y-13042769D01*
X13751015Y-13042769D02*
X13751015Y-13090388D01*
X13751015Y-13090388D02*
X13741491Y-13109436D01*
X13741491Y-13109436D02*
X13731968Y-13118960D01*
X13731968Y-13118960D02*
X13712920Y-13128484D01*
X13712920Y-13128484D02*
X13655777Y-13128484D01*
X13655777Y-13128484D02*
X13636729Y-13118960D01*
X13636729Y-13118960D02*
X13627206Y-13109436D01*
X13865301Y-13014198D02*
X13846253Y-13004674D01*
X13846253Y-13004674D02*
X13836729Y-12995150D01*
X13836729Y-12995150D02*
X13827206Y-12976103D01*
X13827206Y-12976103D02*
X13827206Y-12966579D01*
X13827206Y-12966579D02*
X13836729Y-12947531D01*
X13836729Y-12947531D02*
X13846253Y-12938008D01*
X13846253Y-12938008D02*
X13865301Y-12928484D01*
X13865301Y-12928484D02*
X13903396Y-12928484D01*
X13903396Y-12928484D02*
X13922444Y-12938008D01*
X13922444Y-12938008D02*
X13931968Y-12947531D01*
X13931968Y-12947531D02*
X13941491Y-12966579D01*
X13941491Y-12966579D02*
X13941491Y-12976103D01*
X13941491Y-12976103D02*
X13931968Y-12995150D01*
X13931968Y-12995150D02*
X13922444Y-13004674D01*
X13922444Y-13004674D02*
X13903396Y-13014198D01*
X13903396Y-13014198D02*
X13865301Y-13014198D01*
X13865301Y-13014198D02*
X13846253Y-13023722D01*
X13846253Y-13023722D02*
X13836729Y-13033246D01*
X13836729Y-13033246D02*
X13827206Y-13052293D01*
X13827206Y-13052293D02*
X13827206Y-13090388D01*
X13827206Y-13090388D02*
X13836729Y-13109436D01*
X13836729Y-13109436D02*
X13846253Y-13118960D01*
X13846253Y-13118960D02*
X13865301Y-13128484D01*
X13865301Y-13128484D02*
X13903396Y-13128484D01*
X13903396Y-13128484D02*
X13922444Y-13118960D01*
X13922444Y-13118960D02*
X13931968Y-13109436D01*
X13931968Y-13109436D02*
X13941491Y-13090388D01*
X13941491Y-13090388D02*
X13941491Y-13052293D01*
X13941491Y-13052293D02*
X13931968Y-13033246D01*
X13931968Y-13033246D02*
X13922444Y-13023722D01*
X13922444Y-13023722D02*
X13903396Y-13014198D01*
X14179587Y-13128484D02*
X14179587Y-12928484D01*
X14265301Y-13128484D02*
X14265301Y-13023722D01*
X14265301Y-13023722D02*
X14255777Y-13004674D01*
X14255777Y-13004674D02*
X14236730Y-12995150D01*
X14236730Y-12995150D02*
X14208158Y-12995150D01*
X14208158Y-12995150D02*
X14189110Y-13004674D01*
X14189110Y-13004674D02*
X14179587Y-13014198D01*
X14389110Y-13128484D02*
X14370063Y-13118960D01*
X14370063Y-13118960D02*
X14360539Y-13109436D01*
X14360539Y-13109436D02*
X14351015Y-13090388D01*
X14351015Y-13090388D02*
X14351015Y-13033246D01*
X14351015Y-13033246D02*
X14360539Y-13014198D01*
X14360539Y-13014198D02*
X14370063Y-13004674D01*
X14370063Y-13004674D02*
X14389110Y-12995150D01*
X14389110Y-12995150D02*
X14417682Y-12995150D01*
X14417682Y-12995150D02*
X14436730Y-13004674D01*
X14436730Y-13004674D02*
X14446253Y-13014198D01*
X14446253Y-13014198D02*
X14455777Y-13033246D01*
X14455777Y-13033246D02*
X14455777Y-13090388D01*
X14455777Y-13090388D02*
X14446253Y-13109436D01*
X14446253Y-13109436D02*
X14436730Y-13118960D01*
X14436730Y-13118960D02*
X14417682Y-13128484D01*
X14417682Y-13128484D02*
X14389110Y-13128484D01*
X14570063Y-13128484D02*
X14551015Y-13118960D01*
X14551015Y-13118960D02*
X14541491Y-13099912D01*
X14541491Y-13099912D02*
X14541491Y-12928484D01*
X14722444Y-13118960D02*
X14703396Y-13128484D01*
X14703396Y-13128484D02*
X14665301Y-13128484D01*
X14665301Y-13128484D02*
X14646253Y-13118960D01*
X14646253Y-13118960D02*
X14636730Y-13099912D01*
X14636730Y-13099912D02*
X14636730Y-13023722D01*
X14636730Y-13023722D02*
X14646253Y-13004674D01*
X14646253Y-13004674D02*
X14665301Y-12995150D01*
X14665301Y-12995150D02*
X14703396Y-12995150D01*
X14703396Y-12995150D02*
X14722444Y-13004674D01*
X14722444Y-13004674D02*
X14731968Y-13023722D01*
X14731968Y-13023722D02*
X14731968Y-13042769D01*
X14731968Y-13042769D02*
X14636730Y-13061817D01*
X14808158Y-13118960D02*
X14827206Y-13128484D01*
X14827206Y-13128484D02*
X14865301Y-13128484D01*
X14865301Y-13128484D02*
X14884349Y-13118960D01*
X14884349Y-13118960D02*
X14893872Y-13099912D01*
X14893872Y-13099912D02*
X14893872Y-13090388D01*
X14893872Y-13090388D02*
X14884349Y-13071341D01*
X14884349Y-13071341D02*
X14865301Y-13061817D01*
X14865301Y-13061817D02*
X14836730Y-13061817D01*
X14836730Y-13061817D02*
X14817682Y-13052293D01*
X14817682Y-13052293D02*
X14808158Y-13033246D01*
X14808158Y-13033246D02*
X14808158Y-13023722D01*
X14808158Y-13023722D02*
X14817682Y-13004674D01*
X14817682Y-13004674D02*
X14836730Y-12995150D01*
X14836730Y-12995150D02*
X14865301Y-12995150D01*
X14865301Y-12995150D02*
X14884349Y-13004674D01*
X14960539Y-13204674D02*
X14970063Y-13195150D01*
X14970063Y-13195150D02*
X14989111Y-13166579D01*
X14989111Y-13166579D02*
X14998634Y-13147531D01*
X14998634Y-13147531D02*
X15008158Y-13118960D01*
X15008158Y-13118960D02*
X15017682Y-13071341D01*
X15017682Y-13071341D02*
X15017682Y-13033246D01*
X15017682Y-13033246D02*
X15008158Y-12985627D01*
X15008158Y-12985627D02*
X14998634Y-12957055D01*
X14998634Y-12957055D02*
X14989111Y-12938008D01*
X14989111Y-12938008D02*
X14970063Y-12909436D01*
X14970063Y-12909436D02*
X14960539Y-12899912D01*
M02*
