%TF.GenerationSoftware,KiCad,Pcbnew,7.0.11+dfsg-1build4*%
%TF.CreationDate,2026-09-27T08:57:36+00:00*%
%TF.ProjectId,canduino_oled_shield_V002,63616e64-7569-46e6-9f5f-6f6c65645f73,V002*%
%TF.SameCoordinates,Original*%
%TF.FileFunction,Copper,L1,Top*%
%TF.FilePolarity,Positive*%
%FSLAX46Y46*%
G04 Gerber Fmt 4.6, Leading zero omitted, Abs format (unit mm)*
G04 Created by KiCad (PCBNEW 7.0.11+dfsg-1build4) date 2026-09-27 08:57:36*
%MOMM*%
%LPD*%
G01*
G04 APERTURE LIST*
G04 Aperture macros list*
%AMRoundRect*
0 Rectangle with rounded corners*
0 $1 Rounding radius*
0 $2 $3 $4 $5 $6 $7 $8 $9 X,Y pos of 4 corners*
0 Add a 4 corners polygon primitive as box body*
4,1,4,$2,$3,$4,$5,$6,$7,$8,$9,$2,$3,0*
0 Add four circle primitives for the rounded corners*
1,1,$1+$1,$2,$3*
1,1,$1+$1,$4,$5*
1,1,$1+$1,$6,$7*
1,1,$1+$1,$8,$9*
0 Add four rect primitives between the rounded corners*
20,1,$1+$1,$2,$3,$4,$5,0*
20,1,$1+$1,$4,$5,$6,$7,0*
20,1,$1+$1,$6,$7,$8,$9,0*
20,1,$1+$1,$8,$9,$2,$3,0*%
G04 Aperture macros list end*
%TA.AperFunction,ComponentPad*%
%ADD10R,1.700000X1.700000*%
%TD*%
%TA.AperFunction,ComponentPad*%
%ADD11O,1.700000X1.700000*%
%TD*%
%TA.AperFunction,ComponentPad*%
%ADD12RoundRect,0.250000X-0.600000X-0.725000X0.600000X-0.725000X0.600000X0.725000X-0.600000X0.725000X0*%
%TD*%
%TA.AperFunction,ComponentPad*%
%ADD13O,1.700000X1.950000*%
%TD*%
%TA.AperFunction,SMDPad,CuDef*%
%ADD14RoundRect,0.250000X-0.375000X-0.625000X0.375000X-0.625000X0.375000X0.625000X-0.375000X0.625000X0*%
%TD*%
%TA.AperFunction,SMDPad,CuDef*%
%ADD15RoundRect,0.250000X-1.000000X-0.650000X1.000000X-0.650000X1.000000X0.650000X-1.000000X0.650000X0*%
%TD*%
%TA.AperFunction,SMDPad,CuDef*%
%ADD16RoundRect,0.250000X-1.000000X-0.900000X1.000000X-0.900000X1.000000X0.900000X-1.000000X0.900000X0*%
%TD*%
%TA.AperFunction,SMDPad,CuDef*%
%ADD17RoundRect,0.250000X-0.325000X-1.100000X0.325000X-1.100000X0.325000X1.100000X-0.325000X1.100000X0*%
%TD*%
%TA.AperFunction,SMDPad,CuDef*%
%ADD18RoundRect,0.250000X-0.250000X-0.475000X0.250000X-0.475000X0.250000X0.475000X-0.250000X0.475000X0*%
%TD*%
%TA.AperFunction,ComponentPad*%
%ADD19R,1.560000X1.560000*%
%TD*%
%TA.AperFunction,ComponentPad*%
%ADD20C,1.560000*%
%TD*%
%TA.AperFunction,SMDPad,CuDef*%
%ADD21RoundRect,0.250000X-0.262500X-0.450000X0.262500X-0.450000X0.262500X0.450000X-0.262500X0.450000X0*%
%TD*%
%TA.AperFunction,SMDPad,CuDef*%
%ADD22RoundRect,0.225000X-0.225000X-0.375000X0.225000X-0.375000X0.225000X0.375000X-0.225000X0.375000X0*%
%TD*%
%TA.AperFunction,ComponentPad*%
%ADD23R,1.600000X1.600000*%
%TD*%
%TA.AperFunction,ComponentPad*%
%ADD24O,1.600000X1.600000*%
%TD*%
%TA.AperFunction,ViaPad*%
%ADD25C,0.800000*%
%TD*%
%TA.AperFunction,Conductor*%
%ADD26C,0.400000*%
%TD*%
%TA.AperFunction,Conductor*%
%ADD27C,0.600000*%
%TD*%
G04 APERTURE END LIST*
D10*
%TO.P,P1,1*%
%TO.N,N/C*%
X106380000Y-59000000D03*
D11*
%TO.P,P1,2*%
X106380000Y-61540000D03*
%TO.P,P1,3*%
X106380000Y-64080000D03*
%TO.P,P1,4*%
%TO.N,BRIGHT_DAY*%
X106380000Y-66620000D03*
%TO.P,P1,5*%
%TO.N,BRIGHT_NIGHT*%
X106380000Y-69160000D03*
%TO.P,P1,6*%
%TO.N,SPARE_A2*%
X106380000Y-71700000D03*
%TO.P,P1,7*%
%TO.N,N/C*%
X106380000Y-74240000D03*
%TO.P,P1,8*%
%TO.N,SDA*%
X106380000Y-76780000D03*
%TO.P,P1,9*%
%TO.N,SCL*%
X106380000Y-79320000D03*
%TO.P,P1,10*%
%TO.N,N/C*%
X106380000Y-81860000D03*
%TO.P,P1,11*%
X106380000Y-84400000D03*
%TO.P,P1,12*%
%TO.N,+5V*%
X106380000Y-86940000D03*
%TO.P,P1,13*%
%TO.N,N/C*%
X106380000Y-89480000D03*
%TO.P,P1,14*%
%TO.N,GND*%
X106380000Y-92020000D03*
%TO.P,P1,15*%
%TO.N,VIN*%
X106380000Y-94560000D03*
%TO.P,P1,16*%
%TO.N,CAN_H*%
X106380000Y-97100000D03*
%TD*%
D10*
%TO.P,P2,1*%
%TO.N,N/C*%
X121620000Y-59000000D03*
D11*
%TO.P,P2,2*%
X121620000Y-61540000D03*
%TO.P,P2,3*%
X121620000Y-64080000D03*
%TO.P,P2,4*%
X121620000Y-66620000D03*
%TO.P,P2,5*%
X121620000Y-69160000D03*
%TO.P,P2,6*%
X121620000Y-71700000D03*
%TO.P,P2,7*%
%TO.N,SPARE_D6*%
X121620000Y-74240000D03*
%TO.P,P2,8*%
%TO.N,LIGHT_D5*%
X121620000Y-76780000D03*
%TO.P,P2,9*%
%TO.N,N/C*%
X121620000Y-79320000D03*
%TO.P,P2,10*%
X121620000Y-81860000D03*
%TO.P,P2,11*%
X121620000Y-84400000D03*
%TO.P,P2,12*%
%TO.N,GND*%
X121620000Y-86940000D03*
%TO.P,P2,13*%
%TO.N,N/C*%
X121620000Y-89480000D03*
%TO.P,P2,14*%
X121620000Y-92020000D03*
%TO.P,P2,15*%
X121620000Y-94560000D03*
%TO.P,P2,16*%
%TO.N,CAN_L*%
X121620000Y-97100000D03*
%TD*%
D12*
%TO.P,J1,1*%
%TO.N,+12V_IN*%
X122750000Y-113500000D03*
D13*
%TO.P,J1,2*%
%TO.N,GND*%
X120250000Y-113500000D03*
%TO.P,J1,3*%
%TO.N,CAN_H*%
X117750000Y-113500000D03*
%TO.P,J1,4*%
%TO.N,CAN_L*%
X115250000Y-113500000D03*
%TO.P,J1,5*%
%TO.N,LIGHT_IN*%
X112750000Y-113500000D03*
%TO.P,J1,6*%
%TO.N,GND*%
X110250000Y-113500000D03*
%TO.P,J1,7*%
%TO.N,SPARE_A2*%
X107750000Y-113500000D03*
%TO.P,J1,8*%
%TO.N,SPARE_D6*%
X105250000Y-113500000D03*
%TD*%
D12*
%TO.P,J2,1*%
%TO.N,GND*%
X110250000Y-52500000D03*
D13*
%TO.P,J2,2*%
%TO.N,+5V*%
X112750000Y-52500000D03*
%TO.P,J2,3*%
%TO.N,SCL*%
X115250000Y-52500000D03*
%TO.P,J2,4*%
%TO.N,SDA*%
X117750000Y-52500000D03*
%TD*%
D14*
%TO.P,F1,1*%
%TO.N,+12V_IN*%
X124800000Y-98400000D03*
%TO.P,F1,2*%
%TO.N,V_FUSED*%
X124800000Y-95600000D03*
%TD*%
D15*
%TO.P,D1,1*%
%TO.N,VIN*%
X124800000Y-80500000D03*
%TO.P,D1,2*%
%TO.N,V_FUSED*%
X124800000Y-84500000D03*
%TD*%
D16*
%TO.P,D2,1*%
%TO.N,V_FUSED*%
X124800000Y-92650000D03*
%TO.P,D2,2*%
%TO.N,GND*%
X124800000Y-88350000D03*
%TD*%
D17*
%TO.P,C1,1*%
%TO.N,VIN*%
X124800000Y-77475000D03*
%TO.P,C1,2*%
%TO.N,GND*%
X124800000Y-74525000D03*
%TD*%
D18*
%TO.P,C2,1*%
%TO.N,VIN*%
X124800000Y-71950000D03*
%TO.P,C2,2*%
%TO.N,GND*%
X124800000Y-70050000D03*
%TD*%
%TO.P,C3,1*%
%TO.N,+5V*%
X116950000Y-89000000D03*
%TO.P,C3,2*%
%TO.N,GND*%
X118850000Y-89000000D03*
%TD*%
%TO.P,C4,1*%
%TO.N,+5V*%
X116950000Y-92000000D03*
%TO.P,C4,2*%
%TO.N,GND*%
X118850000Y-92000000D03*
%TD*%
D19*
%TO.P,RV1,1*%
%TO.N,+5V*%
X110500000Y-64500000D03*
D20*
%TO.P,RV1,2*%
%TO.N,BRIGHT_DAY*%
X113000000Y-69500000D03*
%TO.P,RV1,3*%
%TO.N,GND*%
X115500000Y-64500000D03*
%TD*%
D19*
%TO.P,RV2,1*%
%TO.N,+5V*%
X110500000Y-73500000D03*
D20*
%TO.P,RV2,2*%
%TO.N,BRIGHT_NIGHT*%
X113000000Y-78500000D03*
%TO.P,RV2,3*%
%TO.N,GND*%
X115500000Y-73500000D03*
%TD*%
D21*
%TO.P,R1,1*%
%TO.N,LIGHT_IN*%
X112587500Y-89000000D03*
%TO.P,R1,2*%
%TO.N,LIGHT_A*%
X114412500Y-89000000D03*
%TD*%
D22*
%TO.P,D3,1*%
%TO.N,LIGHT_A*%
X111850000Y-92000000D03*
%TO.P,D3,2*%
%TO.N,GND*%
X115150000Y-92000000D03*
%TD*%
D23*
%TO.P,U1,1*%
%TO.N,LIGHT_A*%
X110000000Y-83000000D03*
D24*
%TO.P,U1,2*%
%TO.N,GND*%
X110000000Y-85540000D03*
%TO.P,U1,3*%
X117620000Y-85540000D03*
%TO.P,U1,4*%
%TO.N,LIGHT_D5*%
X117620000Y-83000000D03*
%TD*%
D21*
%TO.P,R2,1*%
%TO.N,+5V*%
X112587500Y-95000000D03*
%TO.P,R2,2*%
%TO.N,LIGHT_D5*%
X114412500Y-95000000D03*
%TD*%
D18*
%TO.P,C5,1*%
%TO.N,LIGHT_D5*%
X116950000Y-95000000D03*
%TO.P,C5,2*%
%TO.N,GND*%
X118850000Y-95000000D03*
%TD*%
D25*
%TO.N,CAN_L*%
X118300000Y-109900000D03*
%TO.N,VIN*%
X119700000Y-98700000D03*
X122100000Y-98700000D03*
%TO.N,V_FUSED*%
X124700000Y-90500000D03*
X124700000Y-86300000D03*
%TO.N,SPARE_D6*%
X108100000Y-94100000D03*
%TO.N,LIGHT_IN*%
X112900000Y-93500000D03*
%TO.N,LIGHT_A*%
X113900000Y-89300000D03*
X111700000Y-91500000D03*
%TO.N,SDA*%
X109100000Y-74900000D03*
%TO.N,BRIGHT_NIGHT*%
X110300000Y-70500000D03*
%TO.N,+5V*%
X110500000Y-92500000D03*
X116500000Y-92500000D03*
X111300000Y-69900000D03*
%TO.N,GND*%
X112700000Y-86900000D03*
X118900000Y-92100000D03*
X118900000Y-94500000D03*
X115500000Y-91300000D03*
X124500000Y-75100000D03*
%TD*%
D26*
%TO.N,CAN_H*%
X107100000Y-97900000D02*
X117100000Y-107900000D01*
X117100000Y-107900000D02*
X117100000Y-112700000D01*
%TO.N,CAN_L*%
X120900000Y-97900000D02*
X120900000Y-107300000D01*
X120900000Y-107300000D02*
X118300000Y-109900000D01*
D27*
%TO.N,VIN*%
X107100000Y-95300000D02*
X110500000Y-95300000D01*
X110500000Y-95300000D02*
X111500000Y-96300000D01*
X111500000Y-96300000D02*
X117300000Y-96300000D01*
X117300000Y-96300000D02*
X119700000Y-98700000D01*
X122100000Y-98700000D02*
X122900000Y-98700000D01*
X122900000Y-98700000D02*
X123100000Y-98500000D01*
X123100000Y-98500000D02*
X123100000Y-97300000D01*
X123100000Y-97300000D02*
X123500000Y-96900000D01*
X123500000Y-96900000D02*
X126300000Y-96900000D01*
X126300000Y-96900000D02*
X126700000Y-96500000D01*
X126700000Y-96500000D02*
X126700000Y-83500000D01*
X126700000Y-83500000D02*
X126700000Y-82900000D01*
X126700000Y-82900000D02*
X125500000Y-81700000D01*
X124700000Y-79300000D02*
X124700000Y-77900000D01*
X126100000Y-76900000D02*
X126700000Y-76300000D01*
X126700000Y-76300000D02*
X126700000Y-73300000D01*
X126700000Y-73300000D02*
X126500000Y-73300000D01*
X126500000Y-73300000D02*
X125500000Y-72300000D01*
%TO.N,V_FUSED*%
X124700000Y-95100000D02*
X124700000Y-93900000D01*
X124700000Y-91500000D02*
X124700000Y-90500000D01*
X124700000Y-86300000D02*
X124700000Y-85700000D01*
%TO.N,+12V_IN*%
X123500000Y-112700000D02*
X123500000Y-99900000D01*
X123500000Y-99900000D02*
X124500000Y-98900000D01*
D26*
%TO.N,SPARE_A2*%
X105700000Y-72500000D02*
X105100000Y-72500000D01*
X105100000Y-72500000D02*
X104900000Y-72700000D01*
X104900000Y-72700000D02*
X104900000Y-110100000D01*
X104900000Y-110100000D02*
X106900000Y-112100000D01*
X106900000Y-112100000D02*
X106900000Y-112500000D01*
X106900000Y-112500000D02*
X107100000Y-112700000D01*
%TO.N,SPARE_D6*%
X120900000Y-74900000D02*
X120500000Y-74900000D01*
X120500000Y-74900000D02*
X120100000Y-75300000D01*
X120100000Y-75300000D02*
X111500000Y-83900000D01*
X111500000Y-83900000D02*
X111500000Y-89900000D01*
X111500000Y-89900000D02*
X108100000Y-93300000D01*
X108100000Y-93300000D02*
X108100000Y-94100000D01*
%TO.N,LIGHT_IN*%
X112900000Y-93500000D02*
X112900000Y-89700000D01*
%TO.N,LIGHT_D5*%
X120900000Y-77500000D02*
X120500000Y-77500000D01*
X120500000Y-77500000D02*
X120100000Y-77900000D01*
X120100000Y-77900000D02*
X120100000Y-80300000D01*
X120100000Y-80300000D02*
X118100000Y-82300000D01*
X118300000Y-83700000D02*
X118700000Y-83700000D01*
X118700000Y-83700000D02*
X119100000Y-84100000D01*
X119100000Y-84100000D02*
X120100000Y-85100000D01*
X120100000Y-85100000D02*
X120100000Y-93300000D01*
X120100000Y-93300000D02*
X118100000Y-93300000D01*
X118100000Y-93300000D02*
X117500000Y-93900000D01*
X117500000Y-93900000D02*
X117500000Y-94100000D01*
X117500000Y-94100000D02*
X117300000Y-94300000D01*
X116500000Y-94900000D02*
X114900000Y-94900000D01*
%TO.N,SCL*%
X107100000Y-78500000D02*
X107700000Y-78500000D01*
X107700000Y-78500000D02*
X107900000Y-78300000D01*
X107900000Y-78300000D02*
X107900000Y-60500000D01*
X107900000Y-60500000D02*
X114500000Y-53900000D01*
X114500000Y-53900000D02*
X114500000Y-53700000D01*
X114500000Y-53700000D02*
X114900000Y-53300000D01*
%TO.N,SDA*%
X109100000Y-74900000D02*
X109100000Y-61700000D01*
X109100000Y-61700000D02*
X116900000Y-53900000D01*
X116900000Y-53900000D02*
X116900000Y-53700000D01*
X116900000Y-53700000D02*
X117300000Y-53300000D01*
%TO.N,BRIGHT_NIGHT*%
X110300000Y-70500000D02*
X112700000Y-72900000D01*
X112700000Y-72900000D02*
X112700000Y-77900000D01*
D27*
%TO.N,+5V*%
X110500000Y-92500000D02*
X110500000Y-93100000D01*
X110500000Y-93100000D02*
X112100000Y-94700000D01*
X116900000Y-91300000D02*
X116900000Y-89700000D01*
X107100000Y-86100000D02*
X107700000Y-86100000D01*
X107700000Y-86100000D02*
X107900000Y-85900000D01*
X107900000Y-85900000D02*
X107900000Y-79900000D01*
X107900000Y-79900000D02*
X108700000Y-79100000D01*
X108700000Y-79100000D02*
X110100000Y-77700000D01*
X110100000Y-77700000D02*
X110100000Y-74100000D01*
X111300000Y-69900000D02*
X111300000Y-65500000D01*
X111300000Y-65500000D02*
X110900000Y-65100000D01*
%TO.N,GND*%
X107100000Y-91300000D02*
X107500000Y-91300000D01*
X107500000Y-91300000D02*
X107900000Y-90900000D01*
X107900000Y-90900000D02*
X107900000Y-87700000D01*
X107900000Y-87700000D02*
X109300000Y-86300000D01*
X112700000Y-86900000D02*
X116300000Y-86900000D01*
X116300000Y-86900000D02*
X116900000Y-86300000D01*
X118300000Y-86300000D02*
X118300000Y-88100000D01*
X118300000Y-88100000D02*
X118500000Y-88300000D01*
X118900000Y-89700000D02*
X118900000Y-91300000D01*
X122300000Y-87700000D02*
X123700000Y-87700000D01*
X115500000Y-91300000D02*
X115500000Y-91500000D01*
X123500000Y-74100000D02*
X123500000Y-70700000D01*
X123500000Y-70700000D02*
X123900000Y-70700000D01*
X123900000Y-70700000D02*
X124100000Y-70500000D01*
%TD*%
M02*
