%TF.GenerationSoftware,KiCad,Pcbnew,7.0.11+dfsg-1build4*%
%TF.CreationDate,2026-09-26T21:49:07+00:00*%
%TF.ProjectId,canduino_oled_shield_V000,63616e64-7569-46e6-9f5f-6f6c65645f73,V000*%
%TF.SameCoordinates,Original*%
%TF.FileFunction,Soldermask,Bot*%
%TF.FilePolarity,Negative*%
%FSLAX46Y46*%
G04 Gerber Fmt 4.6, Leading zero omitted, Abs format (unit mm)*
G04 Created by KiCad (PCBNEW 7.0.11+dfsg-1build4) date 2026-09-26 21:49:07*
%MOMM*%
%LPD*%
G01*
G04 APERTURE LIST*
G04 Aperture macros list*
%AMRoundRect*
0 Rectangle with rounded corners*
0 $1 Rounding radius*
0 $2 $3 $4 $5 $6 $7 $8 $9 X,Y pos of 4 corners*
0 Add a 4 corners polygon primitive as box body*
4,1,4,$2,$3,$4,$5,$6,$7,$8,$9,$2,$3,0*
0 Add four circle primitives for the rounded corners*
1,1,$1+$1,$2,$3*
1,1,$1+$1,$4,$5*
1,1,$1+$1,$6,$7*
1,1,$1+$1,$8,$9*
0 Add four rect primitives between the rounded corners*
20,1,$1+$1,$2,$3,$4,$5,0*
20,1,$1+$1,$4,$5,$6,$7,0*
20,1,$1+$1,$6,$7,$8,$9,0*
20,1,$1+$1,$8,$9,$2,$3,0*%
G04 Aperture macros list end*
%ADD10RoundRect,0.050000X-0.850000X-0.850000X0.850000X-0.850000X0.850000X0.850000X-0.850000X0.850000X0*%
%ADD11O,1.800000X1.800000*%
%ADD12RoundRect,0.264706X-0.635294X-0.760294X0.635294X-0.760294X0.635294X0.760294X-0.635294X0.760294X0*%
%ADD13O,1.800000X2.050000*%
%ADD14RoundRect,0.050000X-0.780000X-0.780000X0.780000X-0.780000X0.780000X0.780000X-0.780000X0.780000X0*%
%ADD15C,1.660000*%
%ADD16RoundRect,0.050000X-0.800000X-0.800000X0.800000X-0.800000X0.800000X0.800000X-0.800000X0.800000X0*%
%ADD17O,1.700000X1.700000*%
G04 APERTURE END LIST*
D10*
%TO.C,P1*%
X106380000Y-59000000D03*
D11*
X106380000Y-61540000D03*
X106380000Y-64080000D03*
X106380000Y-66620000D03*
X106380000Y-69160000D03*
X106380000Y-71700000D03*
X106380000Y-74240000D03*
X106380000Y-76780000D03*
X106380000Y-79320000D03*
X106380000Y-81860000D03*
X106380000Y-84400000D03*
X106380000Y-86940000D03*
X106380000Y-89480000D03*
X106380000Y-92020000D03*
X106380000Y-94560000D03*
X106380000Y-97100000D03*
%TD*%
D10*
%TO.C,P2*%
X121620000Y-59000000D03*
D11*
X121620000Y-61540000D03*
X121620000Y-64080000D03*
X121620000Y-66620000D03*
X121620000Y-69160000D03*
X121620000Y-71700000D03*
X121620000Y-74240000D03*
X121620000Y-76780000D03*
X121620000Y-79320000D03*
X121620000Y-81860000D03*
X121620000Y-84400000D03*
X121620000Y-86940000D03*
X121620000Y-89480000D03*
X121620000Y-92020000D03*
X121620000Y-94560000D03*
X121620000Y-97100000D03*
%TD*%
D12*
%TO.C,J1*%
X122750000Y-109500000D03*
D13*
X120250000Y-109500000D03*
X117750000Y-109500000D03*
X115250000Y-109500000D03*
X112750000Y-109500000D03*
X110250000Y-109500000D03*
X107750000Y-109500000D03*
X105250000Y-109500000D03*
%TD*%
D10*
%TO.C,J2*%
X110190000Y-55000000D03*
D11*
X112730000Y-55000000D03*
X115270000Y-55000000D03*
X117810000Y-55000000D03*
%TD*%
D14*
%TO.C,RV1*%
X110500000Y-62500000D03*
D15*
X113000000Y-67500000D03*
X115500000Y-62500000D03*
%TD*%
D14*
%TO.C,RV2*%
X110500000Y-71500000D03*
D15*
X113000000Y-76500000D03*
X115500000Y-71500000D03*
%TD*%
D16*
%TO.C,U1*%
X110000000Y-82000000D03*
D17*
X110000000Y-84540000D03*
X117620000Y-84540000D03*
X117620000Y-82000000D03*
%TD*%
M02*
