%TF.GenerationSoftware,KiCad,Pcbnew,7.0.11+dfsg-1build4*%
%TF.CreationDate,2026-09-27T08:57:36+00:00*%
%TF.ProjectId,canduino_oled_shield_V002,63616e64-7569-46e6-9f5f-6f6c65645f73,V002*%
%TF.SameCoordinates,Original*%
%TF.FileFunction,Copper,L2,Bot*%
%TF.FilePolarity,Positive*%
%FSLAX46Y46*%
G04 Gerber Fmt 4.6, Leading zero omitted, Abs format (unit mm)*
G04 Created by KiCad (PCBNEW 7.0.11+dfsg-1build4) date 2026-09-27 08:57:36*
%MOMM*%
%LPD*%
G01*
G04 APERTURE LIST*
G04 Aperture macros list*
%AMRoundRect*
0 Rectangle with rounded corners*
0 $1 Rounding radius*
0 $2 $3 $4 $5 $6 $7 $8 $9 X,Y pos of 4 corners*
0 Add a 4 corners polygon primitive as box body*
4,1,4,$2,$3,$4,$5,$6,$7,$8,$9,$2,$3,0*
0 Add four circle primitives for the rounded corners*
1,1,$1+$1,$2,$3*
1,1,$1+$1,$4,$5*
1,1,$1+$1,$6,$7*
1,1,$1+$1,$8,$9*
0 Add four rect primitives between the rounded corners*
20,1,$1+$1,$2,$3,$4,$5,0*
20,1,$1+$1,$4,$5,$6,$7,0*
20,1,$1+$1,$6,$7,$8,$9,0*
20,1,$1+$1,$8,$9,$2,$3,0*%
G04 Aperture macros list end*
%TA.AperFunction,ComponentPad*%
%ADD10R,1.700000X1.700000*%
%TD*%
%TA.AperFunction,ComponentPad*%
%ADD11O,1.700000X1.700000*%
%TD*%
%TA.AperFunction,ComponentPad*%
%ADD12RoundRect,0.250000X-0.600000X-0.725000X0.600000X-0.725000X0.600000X0.725000X-0.600000X0.725000X0*%
%TD*%
%TA.AperFunction,ComponentPad*%
%ADD13O,1.700000X1.950000*%
%TD*%
%TA.AperFunction,ComponentPad*%
%ADD14R,1.560000X1.560000*%
%TD*%
%TA.AperFunction,ComponentPad*%
%ADD15C,1.560000*%
%TD*%
%TA.AperFunction,ComponentPad*%
%ADD16R,1.600000X1.600000*%
%TD*%
%TA.AperFunction,ComponentPad*%
%ADD17O,1.600000X1.600000*%
%TD*%
%TA.AperFunction,ViaPad*%
%ADD18C,0.800000*%
%TD*%
%TA.AperFunction,Conductor*%
%ADD19C,0.400000*%
%TD*%
%TA.AperFunction,Conductor*%
%ADD20C,0.600000*%
%TD*%
G04 APERTURE END LIST*
D10*
%TO.P,P1,1*%
%TO.N,N/C*%
X106380000Y-59000000D03*
D11*
%TO.P,P1,2*%
X106380000Y-61540000D03*
%TO.P,P1,3*%
X106380000Y-64080000D03*
%TO.P,P1,4*%
%TO.N,BRIGHT_DAY*%
X106380000Y-66620000D03*
%TO.P,P1,5*%
%TO.N,BRIGHT_NIGHT*%
X106380000Y-69160000D03*
%TO.P,P1,6*%
%TO.N,SPARE_A2*%
X106380000Y-71700000D03*
%TO.P,P1,7*%
%TO.N,N/C*%
X106380000Y-74240000D03*
%TO.P,P1,8*%
%TO.N,SDA*%
X106380000Y-76780000D03*
%TO.P,P1,9*%
%TO.N,SCL*%
X106380000Y-79320000D03*
%TO.P,P1,10*%
%TO.N,N/C*%
X106380000Y-81860000D03*
%TO.P,P1,11*%
X106380000Y-84400000D03*
%TO.P,P1,12*%
%TO.N,+5V*%
X106380000Y-86940000D03*
%TO.P,P1,13*%
%TO.N,N/C*%
X106380000Y-89480000D03*
%TO.P,P1,14*%
%TO.N,GND*%
X106380000Y-92020000D03*
%TO.P,P1,15*%
%TO.N,VIN*%
X106380000Y-94560000D03*
%TO.P,P1,16*%
%TO.N,CAN_H*%
X106380000Y-97100000D03*
%TD*%
D10*
%TO.P,P2,1*%
%TO.N,N/C*%
X121620000Y-59000000D03*
D11*
%TO.P,P2,2*%
X121620000Y-61540000D03*
%TO.P,P2,3*%
X121620000Y-64080000D03*
%TO.P,P2,4*%
X121620000Y-66620000D03*
%TO.P,P2,5*%
X121620000Y-69160000D03*
%TO.P,P2,6*%
X121620000Y-71700000D03*
%TO.P,P2,7*%
%TO.N,SPARE_D6*%
X121620000Y-74240000D03*
%TO.P,P2,8*%
%TO.N,LIGHT_D5*%
X121620000Y-76780000D03*
%TO.P,P2,9*%
%TO.N,N/C*%
X121620000Y-79320000D03*
%TO.P,P2,10*%
X121620000Y-81860000D03*
%TO.P,P2,11*%
X121620000Y-84400000D03*
%TO.P,P2,12*%
%TO.N,GND*%
X121620000Y-86940000D03*
%TO.P,P2,13*%
%TO.N,N/C*%
X121620000Y-89480000D03*
%TO.P,P2,14*%
X121620000Y-92020000D03*
%TO.P,P2,15*%
X121620000Y-94560000D03*
%TO.P,P2,16*%
%TO.N,CAN_L*%
X121620000Y-97100000D03*
%TD*%
D12*
%TO.P,J1,1*%
%TO.N,+12V_IN*%
X122750000Y-113500000D03*
D13*
%TO.P,J1,2*%
%TO.N,GND*%
X120250000Y-113500000D03*
%TO.P,J1,3*%
%TO.N,CAN_H*%
X117750000Y-113500000D03*
%TO.P,J1,4*%
%TO.N,CAN_L*%
X115250000Y-113500000D03*
%TO.P,J1,5*%
%TO.N,LIGHT_IN*%
X112750000Y-113500000D03*
%TO.P,J1,6*%
%TO.N,GND*%
X110250000Y-113500000D03*
%TO.P,J1,7*%
%TO.N,SPARE_A2*%
X107750000Y-113500000D03*
%TO.P,J1,8*%
%TO.N,SPARE_D6*%
X105250000Y-113500000D03*
%TD*%
D12*
%TO.P,J2,1*%
%TO.N,GND*%
X110250000Y-52500000D03*
D13*
%TO.P,J2,2*%
%TO.N,+5V*%
X112750000Y-52500000D03*
%TO.P,J2,3*%
%TO.N,SCL*%
X115250000Y-52500000D03*
%TO.P,J2,4*%
%TO.N,SDA*%
X117750000Y-52500000D03*
%TD*%
D14*
%TO.P,RV1,1*%
%TO.N,+5V*%
X110500000Y-64500000D03*
D15*
%TO.P,RV1,2*%
%TO.N,BRIGHT_DAY*%
X113000000Y-69500000D03*
%TO.P,RV1,3*%
%TO.N,GND*%
X115500000Y-64500000D03*
%TD*%
D14*
%TO.P,RV2,1*%
%TO.N,+5V*%
X110500000Y-73500000D03*
D15*
%TO.P,RV2,2*%
%TO.N,BRIGHT_NIGHT*%
X113000000Y-78500000D03*
%TO.P,RV2,3*%
%TO.N,GND*%
X115500000Y-73500000D03*
%TD*%
D16*
%TO.P,U1,1*%
%TO.N,LIGHT_A*%
X110000000Y-83000000D03*
D17*
%TO.P,U1,2*%
%TO.N,GND*%
X110000000Y-85540000D03*
%TO.P,U1,3*%
X117620000Y-85540000D03*
%TO.P,U1,4*%
%TO.N,LIGHT_D5*%
X117620000Y-83000000D03*
%TD*%
D18*
%TO.N,CAN_L*%
X118300000Y-109900000D03*
%TO.N,VIN*%
X119700000Y-98700000D03*
X122100000Y-98700000D03*
%TO.N,V_FUSED*%
X124700000Y-90500000D03*
X124700000Y-86300000D03*
%TO.N,SPARE_D6*%
X108100000Y-94100000D03*
%TO.N,LIGHT_IN*%
X112900000Y-93500000D03*
%TO.N,LIGHT_A*%
X113900000Y-89300000D03*
X111700000Y-91500000D03*
%TO.N,SDA*%
X109100000Y-74900000D03*
%TO.N,BRIGHT_NIGHT*%
X110300000Y-70500000D03*
%TO.N,+5V*%
X110500000Y-92500000D03*
X116500000Y-92500000D03*
X111300000Y-69900000D03*
%TO.N,GND*%
X112700000Y-86900000D03*
X118900000Y-92100000D03*
X118900000Y-94500000D03*
X115500000Y-91300000D03*
X124500000Y-75100000D03*
%TD*%
D19*
%TO.N,CAN_L*%
X118300000Y-109900000D02*
X116100000Y-112100000D01*
X116100000Y-112100000D02*
X116100000Y-112700000D01*
D20*
%TO.N,VIN*%
X119700000Y-98700000D02*
X122100000Y-98700000D01*
%TO.N,V_FUSED*%
X124700000Y-90500000D02*
X124700000Y-86300000D01*
D19*
%TO.N,SPARE_D6*%
X108100000Y-94100000D02*
X108100000Y-110100000D01*
X108100000Y-110100000D02*
X106300000Y-111900000D01*
X106300000Y-111900000D02*
X106300000Y-112500000D01*
X106300000Y-112500000D02*
X106100000Y-112700000D01*
%TO.N,LIGHT_IN*%
X112900000Y-112700000D02*
X112900000Y-93500000D01*
%TO.N,LIGHT_A*%
X113900000Y-89300000D02*
X111700000Y-91500000D01*
X113900000Y-89300000D02*
X113900000Y-86500000D01*
X113900000Y-86500000D02*
X111500000Y-84100000D01*
X111500000Y-84100000D02*
X111100000Y-84100000D01*
X111100000Y-84100000D02*
X110700000Y-83700000D01*
%TO.N,SDA*%
X107100000Y-76100000D02*
X107900000Y-76100000D01*
X107900000Y-76100000D02*
X109100000Y-74900000D01*
%TO.N,BRIGHT_DAY*%
X107100000Y-67300000D02*
X110700000Y-67300000D01*
X110700000Y-67300000D02*
X112300000Y-68900000D01*
%TO.N,BRIGHT_NIGHT*%
X107100000Y-69900000D02*
X109700000Y-69900000D01*
X109700000Y-69900000D02*
X110300000Y-70500000D01*
D20*
%TO.N,+5V*%
X107100000Y-87700000D02*
X107700000Y-87700000D01*
X107700000Y-87700000D02*
X107900000Y-87900000D01*
X107900000Y-87900000D02*
X107900000Y-89900000D01*
X107900000Y-89900000D02*
X110500000Y-92500000D01*
X110500000Y-92500000D02*
X116500000Y-92500000D01*
X111100000Y-72900000D02*
X111300000Y-72700000D01*
X111300000Y-72700000D02*
X111300000Y-69900000D01*
X111100000Y-63900000D02*
X111900000Y-63100000D01*
X111900000Y-63100000D02*
X111900000Y-53300000D01*
%TO.N,GND*%
X110700000Y-86300000D02*
X112100000Y-86300000D01*
X112100000Y-86300000D02*
X112700000Y-86900000D01*
X118900000Y-92100000D02*
X118900000Y-94500000D01*
X118300000Y-86300000D02*
X120700000Y-86300000D01*
X120700000Y-86300000D02*
X120900000Y-86500000D01*
X118900000Y-92100000D02*
X118100000Y-91300000D01*
X118100000Y-91300000D02*
X115500000Y-91300000D01*
X116900000Y-84900000D02*
X116500000Y-84900000D01*
X116500000Y-84900000D02*
X116100000Y-84500000D01*
X116100000Y-84500000D02*
X116100000Y-74300000D01*
X116100000Y-74300000D02*
X115900000Y-74100000D01*
X115500000Y-72900000D02*
X115500000Y-65100000D01*
X122300000Y-86100000D02*
X122900000Y-86100000D01*
X122900000Y-86100000D02*
X123100000Y-85900000D01*
X123100000Y-85900000D02*
X123100000Y-76500000D01*
X123100000Y-76500000D02*
X124500000Y-75100000D01*
X114900000Y-65100000D02*
X114100000Y-65900000D01*
X114100000Y-65900000D02*
X109100000Y-65900000D01*
X109100000Y-65900000D02*
X109100000Y-54100000D01*
X109100000Y-54100000D02*
X109900000Y-53300000D01*
X118900000Y-94500000D02*
X118700000Y-94700000D01*
X118700000Y-94700000D02*
X118700000Y-108700000D01*
X118700000Y-108700000D02*
X119700000Y-109700000D01*
X119700000Y-109700000D02*
X119700000Y-112700000D01*
X119500000Y-114300000D02*
X119500000Y-114900000D01*
X119500000Y-114900000D02*
X119300000Y-115100000D01*
X119300000Y-115100000D02*
X111300000Y-115100000D01*
X111300000Y-115100000D02*
X111100000Y-114900000D01*
X111100000Y-114900000D02*
X111100000Y-114700000D01*
X111100000Y-114700000D02*
X110700000Y-114300000D01*
%TD*%
%TA.AperFunction,Conductor*%
%TO.N,GND*%
G36*
X115201500Y-73151500D02*
G01*
X115201500Y-73798500D01*
X115850000Y-73798500D01*
X115850100Y-73798500D01*
X115850300Y-73798500D01*
X115850400Y-73798600D01*
X115850600Y-73798600D01*
X115850700Y-73798700D01*
X115850800Y-73798800D01*
X115851000Y-73798800D01*
X115851100Y-73798900D01*
X115851200Y-73799000D01*
X115851200Y-73799200D01*
X115851300Y-73799300D01*
X115851400Y-73799400D01*
X115851400Y-73799600D01*
X115851500Y-73799700D01*
X115851500Y-73799900D01*
X115851500Y-73800000D01*
X116680000Y-73800000D01*
X116680000Y-74680000D01*
X115800000Y-74680000D01*
X115800000Y-73801500D01*
X115201500Y-73801500D01*
X115201500Y-73850000D01*
X115201500Y-73850100D01*
X115201500Y-73850300D01*
X115201400Y-73850400D01*
X115201400Y-73850600D01*
X115201300Y-73850700D01*
X115201200Y-73850800D01*
X115201200Y-73851000D01*
X115201100Y-73851100D01*
X115201000Y-73851200D01*
X115200800Y-73851200D01*
X115200700Y-73851300D01*
X115200600Y-73851400D01*
X115200400Y-73851400D01*
X115200300Y-73851500D01*
X115200100Y-73851500D01*
X115200000Y-73851500D01*
X115200000Y-74680000D01*
X114320000Y-74680000D01*
X114320000Y-73800000D01*
X115150000Y-73800000D01*
X115150000Y-73799900D01*
X115150000Y-73799700D01*
X115150100Y-73799600D01*
X115150100Y-73799400D01*
X115150200Y-73799300D01*
X115150300Y-73799200D01*
X115150300Y-73799000D01*
X115150400Y-73798900D01*
X115150500Y-73798800D01*
X115150700Y-73798800D01*
X115150800Y-73798700D01*
X115150900Y-73798600D01*
X115151100Y-73798600D01*
X115151200Y-73798500D01*
X115151400Y-73798500D01*
X115151500Y-73798500D01*
X115198500Y-73798500D01*
X115198500Y-73200000D01*
X114320000Y-73200000D01*
X114320000Y-72331000D01*
X114078500Y-70580000D01*
X111920000Y-70580000D01*
X111920000Y-70224400D01*
X111900000Y-70258900D01*
X111900000Y-72700000D01*
X111897100Y-72758800D01*
X111888500Y-72817100D01*
X111874200Y-72874200D01*
X111854300Y-72929600D01*
X111829200Y-72982800D01*
X111798900Y-73033300D01*
X111763800Y-73080600D01*
X111724300Y-73124300D01*
X111580000Y-73268500D01*
X111580000Y-74580000D01*
X109722100Y-74580000D01*
X109746700Y-74632100D01*
X109769900Y-74696800D01*
X109786500Y-74763400D01*
X109796600Y-74831400D01*
X109800000Y-74900000D01*
X109796600Y-74968600D01*
X109786500Y-75036600D01*
X109769900Y-75103200D01*
X109746700Y-75167900D01*
X109717300Y-75230000D01*
X109682000Y-75288900D01*
X109641100Y-75344100D01*
X109595000Y-75395000D01*
X109544100Y-75441100D01*
X109488900Y-75482000D01*
X109430000Y-75517300D01*
X109367900Y-75546700D01*
X109303200Y-75569900D01*
X109236600Y-75586500D01*
X109168600Y-75596600D01*
X109107500Y-75599600D01*
X108253600Y-76453600D01*
X108217200Y-76486500D01*
X108177800Y-76515700D01*
X108135700Y-76541000D01*
X108091300Y-76561900D01*
X108045100Y-76578500D01*
X107997500Y-76590400D01*
X107949000Y-76597600D01*
X107900000Y-76600000D01*
X107530000Y-76600000D01*
X107530000Y-77878500D01*
X107530100Y-77878500D01*
X107530300Y-77878500D01*
X107530400Y-77878600D01*
X107530600Y-77878600D01*
X107530700Y-77878700D01*
X107530800Y-77878800D01*
X107531000Y-77878800D01*
X107531100Y-77878900D01*
X107531200Y-77879000D01*
X107531200Y-77879200D01*
X107531300Y-77879300D01*
X107531400Y-77879400D01*
X107531400Y-77879600D01*
X107531500Y-77879700D01*
X107531500Y-77879900D01*
X107531500Y-77880000D01*
X107531500Y-78220000D01*
X107531500Y-78220100D01*
X107531500Y-78220300D01*
X107531400Y-78220400D01*
X107531400Y-78220600D01*
X107531300Y-78220700D01*
X107531200Y-78220800D01*
X107531200Y-78221000D01*
X107531100Y-78221100D01*
X107531000Y-78221200D01*
X107530800Y-78221200D01*
X107530700Y-78221300D01*
X107530600Y-78221400D01*
X107530400Y-78221400D01*
X107530300Y-78221500D01*
X107530100Y-78221500D01*
X107530000Y-78221500D01*
X107530000Y-80418500D01*
X107530100Y-80418500D01*
X107530300Y-80418500D01*
X107530400Y-80418600D01*
X107530600Y-80418600D01*
X107530700Y-80418700D01*
X107530800Y-80418800D01*
X107531000Y-80418800D01*
X107531100Y-80418900D01*
X107531200Y-80419000D01*
X107531200Y-80419200D01*
X107531300Y-80419300D01*
X107531400Y-80419400D01*
X107531400Y-80419600D01*
X107531500Y-80419700D01*
X107531500Y-80419900D01*
X107531500Y-80420000D01*
X107531500Y-80760000D01*
X107531500Y-80760100D01*
X107531500Y-80760300D01*
X107531400Y-80760400D01*
X107531400Y-80760600D01*
X107531300Y-80760700D01*
X107531200Y-80760800D01*
X107531200Y-80761000D01*
X107531100Y-80761100D01*
X107531000Y-80761200D01*
X107530800Y-80761200D01*
X107530700Y-80761300D01*
X107530600Y-80761400D01*
X107530400Y-80761400D01*
X107530300Y-80761500D01*
X107530100Y-80761500D01*
X107530000Y-80761500D01*
X107530000Y-83010000D01*
X105231500Y-83010000D01*
X105231500Y-83250000D01*
X107530000Y-83250000D01*
X107530000Y-85550000D01*
X105231500Y-85550000D01*
X105231500Y-85790000D01*
X107530000Y-85790000D01*
X107530000Y-87100000D01*
X107700000Y-87100000D01*
X107758800Y-87102900D01*
X107817100Y-87111500D01*
X107874200Y-87125800D01*
X107929600Y-87145700D01*
X107982800Y-87170800D01*
X108033300Y-87201100D01*
X108080600Y-87236200D01*
X108124300Y-87275700D01*
X108324300Y-87475700D01*
X108363800Y-87519400D01*
X108398900Y-87566700D01*
X108429200Y-87617200D01*
X108454300Y-87670400D01*
X108474200Y-87725800D01*
X108488500Y-87782900D01*
X108497100Y-87841200D01*
X108500000Y-87900000D01*
X108500000Y-89651500D01*
X110670500Y-91821900D01*
X110703200Y-91830100D01*
X110767900Y-91853300D01*
X110830000Y-91882700D01*
X110858900Y-91900000D01*
X111126200Y-91900000D01*
X111082700Y-91830000D01*
X111053300Y-91767900D01*
X111030100Y-91703200D01*
X111013500Y-91636600D01*
X111003400Y-91568600D01*
X111000000Y-91500000D01*
X111003400Y-91431400D01*
X111013500Y-91363400D01*
X111030100Y-91296800D01*
X111053300Y-91232100D01*
X111082700Y-91170000D01*
X111118000Y-91111100D01*
X111158900Y-91055900D01*
X111205000Y-91005000D01*
X111255900Y-90958900D01*
X111311100Y-90918000D01*
X111370000Y-90882700D01*
X111432100Y-90853300D01*
X111496800Y-90830100D01*
X111563400Y-90813500D01*
X111631400Y-90803400D01*
X111692500Y-90800400D01*
X113200400Y-89292500D01*
X113203400Y-89231400D01*
X113213500Y-89163400D01*
X113230100Y-89096800D01*
X113253300Y-89032100D01*
X113282700Y-88970000D01*
X113318000Y-88911100D01*
X113358900Y-88855900D01*
X113400000Y-88810600D01*
X113400000Y-86707100D01*
X111292900Y-84600000D01*
X111200000Y-84600000D01*
X111200000Y-85240000D01*
X110300000Y-85240000D01*
X110300000Y-84340000D01*
X110632900Y-84340000D01*
X110392900Y-84100000D01*
X108901500Y-84100000D01*
X108901500Y-84340000D01*
X109700000Y-84340000D01*
X109700000Y-85188500D01*
X109700100Y-85188500D01*
X109700300Y-85188500D01*
X109700400Y-85188600D01*
X109700600Y-85188600D01*
X109700700Y-85188700D01*
X109700800Y-85188800D01*
X109701000Y-85188800D01*
X109701100Y-85188900D01*
X109701200Y-85189000D01*
X109701200Y-85189200D01*
X109701300Y-85189300D01*
X109701400Y-85189400D01*
X109701400Y-85189600D01*
X109701500Y-85189700D01*
X109701500Y-85189900D01*
X109701500Y-85190000D01*
X109701500Y-85888500D01*
X110300000Y-85888500D01*
X110300000Y-85840000D01*
X111200000Y-85840000D01*
X111200000Y-86740000D01*
X110300000Y-86740000D01*
X110300000Y-85891500D01*
X109700000Y-85891500D01*
X109700000Y-86740000D01*
X108800000Y-86740000D01*
X108800000Y-85840000D01*
X109698500Y-85840000D01*
X109698500Y-85240000D01*
X108800000Y-85240000D01*
X108800000Y-84340000D01*
X108898500Y-84340000D01*
X108898500Y-84050000D01*
X108898500Y-84049900D01*
X108898500Y-84049700D01*
X108898600Y-84049600D01*
X108898600Y-84049400D01*
X108898700Y-84049300D01*
X108898800Y-84049200D01*
X108898800Y-84049000D01*
X108898900Y-84048900D01*
X108899000Y-84048800D01*
X108899200Y-84048800D01*
X108899300Y-84048700D01*
X108899400Y-84048600D01*
X108899600Y-84048600D01*
X108899700Y-84048500D01*
X108899900Y-84048500D01*
X108900000Y-84048500D01*
X108900000Y-81900000D01*
X111098400Y-81900000D01*
X111920000Y-79575500D01*
X111920000Y-77420000D01*
X114080000Y-77420000D01*
X114080000Y-79580000D01*
X111921600Y-79580000D01*
X111100000Y-81904500D01*
X111100000Y-83392900D01*
X111307100Y-83600000D01*
X111549000Y-83602400D01*
X111597500Y-83609600D01*
X111645100Y-83621500D01*
X111691300Y-83638100D01*
X111735700Y-83659000D01*
X111777800Y-83684300D01*
X111817200Y-83713500D01*
X111853600Y-83746400D01*
X114253600Y-86146400D01*
X114286500Y-86182800D01*
X114315700Y-86222200D01*
X114341000Y-86264300D01*
X114361900Y-86308700D01*
X114378500Y-86354900D01*
X114390400Y-86402500D01*
X114397600Y-86451000D01*
X114400000Y-86500000D01*
X114400000Y-88810600D01*
X114441100Y-88855900D01*
X114482000Y-88911100D01*
X114517300Y-88970000D01*
X114546700Y-89032100D01*
X114569900Y-89096800D01*
X114586500Y-89163400D01*
X114596600Y-89231400D01*
X114600000Y-89300000D01*
X114596600Y-89368600D01*
X114586500Y-89436600D01*
X114569900Y-89503200D01*
X114546700Y-89567900D01*
X114517300Y-89630000D01*
X114482000Y-89688900D01*
X114441100Y-89744100D01*
X114395000Y-89795000D01*
X114344100Y-89841100D01*
X114288900Y-89882000D01*
X114230000Y-89917300D01*
X114167900Y-89946700D01*
X114103200Y-89969900D01*
X114036600Y-89986500D01*
X113968600Y-89996600D01*
X113907500Y-89999600D01*
X112399600Y-91507500D01*
X112396600Y-91568600D01*
X112386500Y-91636600D01*
X112369900Y-91703200D01*
X112346700Y-91767900D01*
X112317300Y-91830000D01*
X112273800Y-91900000D01*
X116141100Y-91900000D01*
X116170000Y-91882700D01*
X116232100Y-91853300D01*
X116296800Y-91830100D01*
X116363400Y-91813500D01*
X116431400Y-91803400D01*
X116500000Y-91800000D01*
X116568600Y-91803400D01*
X116636600Y-91813500D01*
X116703200Y-91830100D01*
X116767900Y-91853300D01*
X116830000Y-91882700D01*
X116888900Y-91918000D01*
X116944100Y-91958900D01*
X116995000Y-92005000D01*
X117041100Y-92055900D01*
X117082000Y-92111100D01*
X117117300Y-92170000D01*
X117146700Y-92232100D01*
X117169900Y-92296800D01*
X117186500Y-92363400D01*
X117196600Y-92431400D01*
X117200000Y-92500000D01*
X117196600Y-92568600D01*
X117186500Y-92636600D01*
X117169900Y-92703200D01*
X117146700Y-92767900D01*
X117117300Y-92830000D01*
X117082000Y-92888900D01*
X117042000Y-92942900D01*
X120350900Y-95843600D01*
X120470000Y-95707700D01*
X120470000Y-93410000D01*
X122770000Y-93410000D01*
X122770000Y-95710000D01*
X120472000Y-95710000D01*
X120353100Y-95845600D01*
X120472300Y-95950000D01*
X122770000Y-95950000D01*
X122770000Y-98250000D01*
X122635700Y-98250000D01*
X122682000Y-98311100D01*
X122717300Y-98370000D01*
X122746700Y-98432100D01*
X122769900Y-98496800D01*
X122786500Y-98563400D01*
X122796600Y-98631400D01*
X122800000Y-98700000D01*
X122796600Y-98768600D01*
X122786500Y-98836600D01*
X122769900Y-98903200D01*
X122746700Y-98967900D01*
X122717300Y-99030000D01*
X122682000Y-99088900D01*
X122641100Y-99144100D01*
X122595000Y-99195000D01*
X122544100Y-99241100D01*
X122488900Y-99282000D01*
X122430000Y-99317300D01*
X122367900Y-99346700D01*
X122303200Y-99369900D01*
X122236600Y-99386500D01*
X122168600Y-99396600D01*
X122100000Y-99400000D01*
X122031400Y-99396600D01*
X121963400Y-99386500D01*
X121896800Y-99369900D01*
X121832100Y-99346700D01*
X121770000Y-99317300D01*
X121741100Y-99300000D01*
X120058900Y-99300000D01*
X120030000Y-99317300D01*
X119967900Y-99346700D01*
X119903200Y-99369900D01*
X119836600Y-99386500D01*
X119768600Y-99396600D01*
X119700000Y-99400000D01*
X119631400Y-99396600D01*
X119563400Y-99386500D01*
X119496800Y-99369900D01*
X119432100Y-99346700D01*
X119370000Y-99317300D01*
X119311100Y-99282000D01*
X119255900Y-99241100D01*
X119205000Y-99195000D01*
X119158900Y-99144100D01*
X119118000Y-99088900D01*
X119082700Y-99030000D01*
X119053300Y-98967900D01*
X119030100Y-98903200D01*
X119013500Y-98836600D01*
X119003400Y-98768600D01*
X119000000Y-98700000D01*
X119003400Y-98631400D01*
X119013500Y-98563400D01*
X119030100Y-98496800D01*
X119053300Y-98432100D01*
X119082700Y-98370000D01*
X119118000Y-98311100D01*
X119158900Y-98255900D01*
X119205000Y-98205000D01*
X119255900Y-98158900D01*
X119311100Y-98118000D01*
X119370000Y-98082700D01*
X119432100Y-98053300D01*
X119496800Y-98030100D01*
X119563400Y-98013500D01*
X119631400Y-98003400D01*
X119700000Y-98000000D01*
X119768600Y-98003400D01*
X119836600Y-98013500D01*
X119903200Y-98030100D01*
X119967900Y-98053300D01*
X120030000Y-98082700D01*
X120058900Y-98100000D01*
X120470000Y-98100000D01*
X120470000Y-95952000D01*
X120351200Y-95847800D01*
X120320200Y-95883200D01*
X120320100Y-95883300D01*
X120320000Y-95883400D01*
X120319900Y-95883500D01*
X120319700Y-95883500D01*
X120319600Y-95883600D01*
X120319400Y-95883600D01*
X120319300Y-95883700D01*
X120319200Y-95883700D01*
X120319000Y-95883700D01*
X120318900Y-95883700D01*
X120318700Y-95883600D01*
X120318600Y-95883600D01*
X120318400Y-95883500D01*
X120318300Y-95883500D01*
X120318200Y-95883400D01*
X120318100Y-95883300D01*
X120318000Y-95883200D01*
X120317900Y-95883100D01*
X120317800Y-95883000D01*
X120317700Y-95882800D01*
X120317700Y-95882700D01*
X120317600Y-95882600D01*
X120317600Y-95882400D01*
X120317600Y-95882300D01*
X120317600Y-95882100D01*
X120317600Y-95882000D01*
X120317600Y-95881800D01*
X120317600Y-95881700D01*
X120317700Y-95881600D01*
X120317800Y-95881400D01*
X120317800Y-95881300D01*
X120317900Y-95881200D01*
X120348900Y-95845800D01*
X117040100Y-92945200D01*
X116995000Y-92995000D01*
X116944100Y-93041100D01*
X116888900Y-93082000D01*
X116830000Y-93117300D01*
X116767900Y-93146700D01*
X116703200Y-93169900D01*
X116636600Y-93186500D01*
X116568600Y-93196600D01*
X116500000Y-93200000D01*
X116431400Y-93196600D01*
X116363400Y-93186500D01*
X116296800Y-93169900D01*
X116232100Y-93146700D01*
X116170000Y-93117300D01*
X116141100Y-93100000D01*
X113473800Y-93100000D01*
X113517300Y-93170000D01*
X113546700Y-93232100D01*
X113569900Y-93296800D01*
X113586500Y-93363400D01*
X113596600Y-93431400D01*
X113600000Y-93500000D01*
X113596600Y-93568600D01*
X113586500Y-93636600D01*
X113569900Y-93703200D01*
X113546700Y-93767900D01*
X113517300Y-93830000D01*
X113482000Y-93888900D01*
X113441100Y-93944100D01*
X113400000Y-93989400D01*
X113400000Y-112225000D01*
X113900000Y-112225000D01*
X113900000Y-114773500D01*
X114100000Y-114773500D01*
X114100000Y-112225000D01*
X115600000Y-112225000D01*
X115602400Y-112051000D01*
X115609600Y-112002500D01*
X115621500Y-111954900D01*
X115638100Y-111908700D01*
X115659000Y-111864300D01*
X115684300Y-111822200D01*
X115713500Y-111782800D01*
X115746400Y-111746400D01*
X117600400Y-109892500D01*
X117603400Y-109831400D01*
X117613500Y-109763400D01*
X117630100Y-109696800D01*
X117653300Y-109632100D01*
X117682700Y-109570000D01*
X117718000Y-109511100D01*
X117758900Y-109455900D01*
X117805000Y-109405000D01*
X117855900Y-109358900D01*
X117911100Y-109318000D01*
X117970000Y-109282700D01*
X118032100Y-109253300D01*
X118096800Y-109230100D01*
X118163400Y-109213500D01*
X118231400Y-109203400D01*
X118300000Y-109200000D01*
X118368600Y-109203400D01*
X118436600Y-109213500D01*
X118503200Y-109230100D01*
X118567900Y-109253300D01*
X118630000Y-109282700D01*
X118688900Y-109318000D01*
X118744100Y-109358900D01*
X118795000Y-109405000D01*
X118841100Y-109455900D01*
X118882000Y-109511100D01*
X118917300Y-109570000D01*
X118946700Y-109632100D01*
X118969900Y-109696800D01*
X118986500Y-109763400D01*
X118996600Y-109831400D01*
X119000000Y-109900000D01*
X118996600Y-109968600D01*
X118986500Y-110036600D01*
X118969900Y-110103200D01*
X118946700Y-110167900D01*
X118917300Y-110230000D01*
X118882000Y-110288900D01*
X118841100Y-110344100D01*
X118795000Y-110395000D01*
X118744100Y-110441100D01*
X118688900Y-110482000D01*
X118630000Y-110517300D01*
X118567900Y-110546700D01*
X118503200Y-110569900D01*
X118436600Y-110586500D01*
X118368600Y-110596600D01*
X118307500Y-110599600D01*
X116682100Y-112225000D01*
X118900000Y-112225000D01*
X118900000Y-113198500D01*
X119000000Y-113198500D01*
X119000000Y-112125000D01*
X119950000Y-112125000D01*
X119950000Y-113198500D01*
X120550000Y-113198500D01*
X120550000Y-112125000D01*
X121500000Y-112125000D01*
X121500000Y-113200000D01*
X120601500Y-113200000D01*
X120601500Y-113800000D01*
X121500000Y-113800000D01*
X121500000Y-114773500D01*
X121600000Y-114773500D01*
X121600000Y-112225000D01*
X123900000Y-112225000D01*
X123900000Y-114775000D01*
X121651500Y-114775000D01*
X121651500Y-114775100D01*
X121651500Y-114775300D01*
X121651400Y-114775400D01*
X121651400Y-114775600D01*
X121651300Y-114775700D01*
X121651200Y-114775800D01*
X121651200Y-114776000D01*
X121651100Y-114776100D01*
X121651000Y-114776200D01*
X121650800Y-114776200D01*
X121650700Y-114776300D01*
X121650600Y-114776400D01*
X121650400Y-114776400D01*
X121650300Y-114776500D01*
X121650100Y-114776500D01*
X121650000Y-114776500D01*
X121500000Y-114776500D01*
X121500000Y-114875000D01*
X120550000Y-114875000D01*
X120550000Y-113800000D01*
X120598500Y-113800000D01*
X120598500Y-113201500D01*
X119900000Y-113201500D01*
X119899900Y-113201500D01*
X119899700Y-113201500D01*
X119899600Y-113201400D01*
X119899400Y-113201400D01*
X119899300Y-113201300D01*
X119899200Y-113201200D01*
X119899000Y-113201200D01*
X119898900Y-113201100D01*
X119898800Y-113201000D01*
X119898800Y-113200800D01*
X119898700Y-113200700D01*
X119898600Y-113200600D01*
X119898600Y-113200400D01*
X119898500Y-113200300D01*
X119898500Y-113200100D01*
X119898500Y-113200000D01*
X119051500Y-113200000D01*
X119051500Y-113200100D01*
X119051500Y-113200300D01*
X119051400Y-113200400D01*
X119051400Y-113200600D01*
X119051300Y-113200700D01*
X119051200Y-113200800D01*
X119051200Y-113201000D01*
X119051100Y-113201100D01*
X119051000Y-113201200D01*
X119050800Y-113201200D01*
X119050700Y-113201300D01*
X119050600Y-113201400D01*
X119050400Y-113201400D01*
X119050300Y-113201500D01*
X119050100Y-113201500D01*
X119050000Y-113201500D01*
X118900000Y-113201500D01*
X118900000Y-114773500D01*
X119000000Y-114773500D01*
X119000000Y-113800000D01*
X119950000Y-113800000D01*
X119950000Y-114875000D01*
X119000000Y-114875000D01*
X119000000Y-114776500D01*
X118850000Y-114776500D01*
X118849900Y-114776500D01*
X118849700Y-114776500D01*
X118849600Y-114776400D01*
X118849400Y-114776400D01*
X118849300Y-114776300D01*
X118849200Y-114776200D01*
X118849000Y-114776200D01*
X118848900Y-114776100D01*
X118848800Y-114776000D01*
X118848800Y-114775800D01*
X118848700Y-114775700D01*
X118848600Y-114775600D01*
X118848600Y-114775400D01*
X118848500Y-114775300D01*
X118848500Y-114775100D01*
X118848500Y-114775000D01*
X116600000Y-114775000D01*
X116600000Y-112307100D01*
X116600000Y-112700000D01*
X116597600Y-112749000D01*
X116590400Y-112797500D01*
X116578500Y-112845100D01*
X116561900Y-112891300D01*
X116541000Y-112935700D01*
X116515700Y-112977800D01*
X116486500Y-113017200D01*
X116453600Y-113053600D01*
X116400000Y-113099300D01*
X116400000Y-114775000D01*
X114151500Y-114775000D01*
X114151500Y-114775100D01*
X114151500Y-114775300D01*
X114151400Y-114775400D01*
X114151400Y-114775600D01*
X114151300Y-114775700D01*
X114151200Y-114775800D01*
X114151200Y-114776000D01*
X114151100Y-114776100D01*
X114151000Y-114776200D01*
X114150800Y-114776200D01*
X114150700Y-114776300D01*
X114150600Y-114776400D01*
X114150400Y-114776400D01*
X114150300Y-114776500D01*
X114150100Y-114776500D01*
X114150000Y-114776500D01*
X113850000Y-114776500D01*
X113849900Y-114776500D01*
X113849700Y-114776500D01*
X113849600Y-114776400D01*
X113849400Y-114776400D01*
X113849300Y-114776300D01*
X113849200Y-114776200D01*
X113849000Y-114776200D01*
X113848900Y-114776100D01*
X113848800Y-114776000D01*
X113848800Y-114775800D01*
X113848700Y-114775700D01*
X113848600Y-114775600D01*
X113848600Y-114775400D01*
X113848500Y-114775300D01*
X113848500Y-114775100D01*
X113848500Y-114775000D01*
X111651500Y-114775000D01*
X111651500Y-114775100D01*
X111651500Y-114775300D01*
X111651400Y-114775400D01*
X111651400Y-114775600D01*
X111651300Y-114775700D01*
X111651200Y-114775800D01*
X111651200Y-114776000D01*
X111651100Y-114776100D01*
X111651000Y-114776200D01*
X111650800Y-114776200D01*
X111650700Y-114776300D01*
X111650600Y-114776400D01*
X111650400Y-114776400D01*
X111650300Y-114776500D01*
X111650100Y-114776500D01*
X111650000Y-114776500D01*
X111500000Y-114776500D01*
X111500000Y-114875000D01*
X110550000Y-114875000D01*
X110550000Y-113800000D01*
X111500000Y-113800000D01*
X111500000Y-114773500D01*
X111600000Y-114773500D01*
X111600000Y-112226500D01*
X111500000Y-112226500D01*
X111500000Y-113200000D01*
X110550000Y-113200000D01*
X110550000Y-112125000D01*
X111500000Y-112125000D01*
X111500000Y-112223500D01*
X111650000Y-112223500D01*
X111650100Y-112223500D01*
X111650300Y-112223500D01*
X111650400Y-112223600D01*
X111650600Y-112223600D01*
X111650700Y-112223700D01*
X111650800Y-112223800D01*
X111651000Y-112223800D01*
X111651100Y-112223900D01*
X111651200Y-112224000D01*
X111651200Y-112224200D01*
X111651300Y-112224300D01*
X111651400Y-112224400D01*
X111651400Y-112224600D01*
X111651500Y-112224700D01*
X111651500Y-112224900D01*
X111651500Y-112225000D01*
X112400000Y-112225000D01*
X112400000Y-93989400D01*
X112358900Y-93944100D01*
X112318000Y-93888900D01*
X112282700Y-93830000D01*
X112253300Y-93767900D01*
X112230100Y-93703200D01*
X112213500Y-93636600D01*
X112203400Y-93568600D01*
X112200000Y-93500000D01*
X112203400Y-93431400D01*
X112213500Y-93363400D01*
X112230100Y-93296800D01*
X112253300Y-93232100D01*
X112282700Y-93170000D01*
X112326200Y-93100000D01*
X110858900Y-93100000D01*
X110830000Y-93117300D01*
X110767900Y-93146700D01*
X110703200Y-93169900D01*
X110636600Y-93186500D01*
X110568600Y-93196600D01*
X110500000Y-93200000D01*
X110431400Y-93196600D01*
X110363400Y-93186500D01*
X110296800Y-93169900D01*
X110232100Y-93146700D01*
X110170000Y-93117300D01*
X110111100Y-93082000D01*
X110055900Y-93041100D01*
X110005000Y-92995000D01*
X109958900Y-92944100D01*
X109918000Y-92888900D01*
X109882700Y-92830000D01*
X109853300Y-92767900D01*
X109830100Y-92703200D01*
X109821900Y-92670500D01*
X107530000Y-90378500D01*
X107530000Y-90578500D01*
X107530100Y-90578500D01*
X107530300Y-90578500D01*
X107530400Y-90578600D01*
X107530600Y-90578600D01*
X107530700Y-90578700D01*
X107530800Y-90578800D01*
X107531000Y-90578800D01*
X107531100Y-90578900D01*
X107531200Y-90579000D01*
X107531200Y-90579200D01*
X107531300Y-90579300D01*
X107531400Y-90579400D01*
X107531400Y-90579600D01*
X107531500Y-90579700D01*
X107531500Y-90579900D01*
X107531500Y-90580000D01*
X107531500Y-90770000D01*
X107630000Y-90770000D01*
X107630000Y-91720000D01*
X106680000Y-91720000D01*
X106680000Y-90770000D01*
X107528500Y-90770000D01*
X107528500Y-90630000D01*
X105231500Y-90630000D01*
X105231500Y-90770000D01*
X106080000Y-90770000D01*
X106080000Y-91668500D01*
X106080100Y-91668500D01*
X106080300Y-91668500D01*
X106080400Y-91668600D01*
X106080600Y-91668600D01*
X106080700Y-91668700D01*
X106080800Y-91668800D01*
X106081000Y-91668800D01*
X106081100Y-91668900D01*
X106081200Y-91669000D01*
X106081200Y-91669200D01*
X106081300Y-91669300D01*
X106081400Y-91669400D01*
X106081400Y-91669600D01*
X106081500Y-91669700D01*
X106081500Y-91669900D01*
X106081500Y-91670000D01*
X106081500Y-92370000D01*
X106081500Y-92370100D01*
X106081500Y-92370300D01*
X106081400Y-92370400D01*
X106081400Y-92370600D01*
X106081300Y-92370700D01*
X106081200Y-92370800D01*
X106081200Y-92371000D01*
X106081100Y-92371100D01*
X106081000Y-92371200D01*
X106080800Y-92371200D01*
X106080700Y-92371300D01*
X106080600Y-92371400D01*
X106080400Y-92371400D01*
X106080300Y-92371500D01*
X106080100Y-92371500D01*
X106080000Y-92371500D01*
X106080000Y-93218500D01*
X106080100Y-93218500D01*
X106080300Y-93218500D01*
X106080400Y-93218600D01*
X106080600Y-93218600D01*
X106080700Y-93218700D01*
X106080800Y-93218800D01*
X106081000Y-93218800D01*
X106081100Y-93218900D01*
X106081200Y-93219000D01*
X106081200Y-93219200D01*
X106081300Y-93219300D01*
X106081400Y-93219400D01*
X106081400Y-93219600D01*
X106081500Y-93219700D01*
X106081500Y-93219900D01*
X106081500Y-93220000D01*
X106081500Y-93410000D01*
X107528500Y-93410000D01*
X107528500Y-93270000D01*
X106680000Y-93270000D01*
X106680000Y-92320000D01*
X107630000Y-92320000D01*
X107630000Y-93270000D01*
X107531500Y-93270000D01*
X107531500Y-93460000D01*
X107531500Y-93460100D01*
X107531500Y-93460300D01*
X107531400Y-93460400D01*
X107531400Y-93460600D01*
X107531300Y-93460700D01*
X107531200Y-93460800D01*
X107531200Y-93461000D01*
X107531100Y-93461100D01*
X107531000Y-93461200D01*
X107530800Y-93461200D01*
X107530700Y-93461300D01*
X107530600Y-93461400D01*
X107530400Y-93461400D01*
X107530300Y-93461500D01*
X107530100Y-93461500D01*
X107530000Y-93461500D01*
X107530000Y-93694900D01*
X107558900Y-93655900D01*
X107605000Y-93605000D01*
X107655900Y-93558900D01*
X107711100Y-93518000D01*
X107770000Y-93482700D01*
X107832100Y-93453300D01*
X107896800Y-93430100D01*
X107963400Y-93413500D01*
X108031400Y-93403400D01*
X108100000Y-93400000D01*
X108168600Y-93403400D01*
X108236600Y-93413500D01*
X108303200Y-93430100D01*
X108367900Y-93453300D01*
X108430000Y-93482700D01*
X108488900Y-93518000D01*
X108544100Y-93558900D01*
X108595000Y-93605000D01*
X108641100Y-93655900D01*
X108682000Y-93711100D01*
X108717300Y-93770000D01*
X108746700Y-93832100D01*
X108769900Y-93896800D01*
X108786500Y-93963400D01*
X108796600Y-94031400D01*
X108800000Y-94100000D01*
X108796600Y-94168600D01*
X108786500Y-94236600D01*
X108769900Y-94303200D01*
X108746700Y-94367900D01*
X108717300Y-94430000D01*
X108682000Y-94488900D01*
X108641100Y-94544100D01*
X108600000Y-94589400D01*
X108600000Y-110100000D01*
X108597600Y-110149000D01*
X108590400Y-110197500D01*
X108578500Y-110245100D01*
X108561900Y-110291300D01*
X108541000Y-110335700D01*
X108515700Y-110377800D01*
X108486500Y-110417200D01*
X108453600Y-110453600D01*
X106800000Y-112107100D01*
X106800000Y-112225000D01*
X108848500Y-112225000D01*
X108848500Y-112224900D01*
X108848500Y-112224700D01*
X108848600Y-112224600D01*
X108848600Y-112224400D01*
X108848700Y-112224300D01*
X108848800Y-112224200D01*
X108848800Y-112224000D01*
X108848900Y-112223900D01*
X108849000Y-112223800D01*
X108849200Y-112223800D01*
X108849300Y-112223700D01*
X108849400Y-112223600D01*
X108849600Y-112223600D01*
X108849700Y-112223500D01*
X108849900Y-112223500D01*
X108850000Y-112223500D01*
X109000000Y-112223500D01*
X109000000Y-112125000D01*
X109950000Y-112125000D01*
X109950000Y-113200000D01*
X109000000Y-113200000D01*
X109000000Y-112226500D01*
X108900000Y-112226500D01*
X108900000Y-114773500D01*
X109000000Y-114773500D01*
X109000000Y-113800000D01*
X109950000Y-113800000D01*
X109950000Y-114875000D01*
X109000000Y-114875000D01*
X109000000Y-114776500D01*
X108850000Y-114776500D01*
X108849900Y-114776500D01*
X108849700Y-114776500D01*
X108849600Y-114776400D01*
X108849400Y-114776400D01*
X108849300Y-114776300D01*
X108849200Y-114776200D01*
X108849000Y-114776200D01*
X108848900Y-114776100D01*
X108848800Y-114776000D01*
X108848800Y-114775800D01*
X108848700Y-114775700D01*
X108848600Y-114775600D01*
X108848600Y-114775400D01*
X108848500Y-114775300D01*
X108848500Y-114775100D01*
X108848500Y-114775000D01*
X106600000Y-114775000D01*
X106600000Y-112907100D01*
X106453600Y-113053600D01*
X106400000Y-113099300D01*
X106400000Y-114775000D01*
X104100000Y-114775000D01*
X104100000Y-112225000D01*
X105800000Y-112225000D01*
X105800000Y-111900000D01*
X105802400Y-111851000D01*
X105809600Y-111802500D01*
X105821500Y-111754900D01*
X105838100Y-111708700D01*
X105859000Y-111664300D01*
X105884300Y-111622200D01*
X105913500Y-111582800D01*
X105946400Y-111546400D01*
X107600000Y-109892900D01*
X107600000Y-98251500D01*
X107480000Y-98251500D01*
X107479900Y-98251500D01*
X107479700Y-98251500D01*
X107479600Y-98251400D01*
X107479400Y-98251400D01*
X107479300Y-98251300D01*
X107479200Y-98251200D01*
X107479000Y-98251200D01*
X107478900Y-98251100D01*
X107478800Y-98251000D01*
X107478800Y-98250800D01*
X107478700Y-98250700D01*
X107478600Y-98250600D01*
X107478600Y-98250400D01*
X107478500Y-98250300D01*
X107478500Y-98250100D01*
X107478500Y-98250000D01*
X105230000Y-98250000D01*
X105230000Y-95950000D01*
X107530000Y-95950000D01*
X107530000Y-98248500D01*
X107600000Y-98248500D01*
X107600000Y-94589400D01*
X107558900Y-94544100D01*
X107530000Y-94505100D01*
X107530000Y-95710000D01*
X105230000Y-95710000D01*
X105230000Y-93410000D01*
X106078500Y-93410000D01*
X106078500Y-93270000D01*
X105130000Y-93270000D01*
X105130000Y-92320000D01*
X106078500Y-92320000D01*
X106078500Y-91720000D01*
X105130000Y-91720000D01*
X105130000Y-90770000D01*
X105228500Y-90770000D01*
X105228500Y-90580000D01*
X105228500Y-90579900D01*
X105228500Y-90579700D01*
X105228600Y-90579600D01*
X105228600Y-90579400D01*
X105228700Y-90579300D01*
X105228800Y-90579200D01*
X105228800Y-90579000D01*
X105228900Y-90578900D01*
X105229000Y-90578800D01*
X105229200Y-90578800D01*
X105229300Y-90578700D01*
X105229400Y-90578600D01*
X105229600Y-90578600D01*
X105229700Y-90578500D01*
X105229900Y-90578500D01*
X105230000Y-90578500D01*
X105230000Y-88330000D01*
X107300000Y-88330000D01*
X107300000Y-88300000D01*
X107100000Y-88300000D01*
X107041200Y-88297100D01*
X106982900Y-88288500D01*
X106925800Y-88274200D01*
X106870400Y-88254300D01*
X106817200Y-88229200D01*
X106766700Y-88198900D01*
X106719400Y-88163800D01*
X106675700Y-88124300D01*
X106644700Y-88090000D01*
X105230000Y-88090000D01*
X105230000Y-85841500D01*
X105229900Y-85841500D01*
X105229700Y-85841500D01*
X105229600Y-85841400D01*
X105229400Y-85841400D01*
X105229300Y-85841300D01*
X105229200Y-85841200D01*
X105229000Y-85841200D01*
X105228900Y-85841100D01*
X105228800Y-85841000D01*
X105228800Y-85840800D01*
X105228700Y-85840700D01*
X105228600Y-85840600D01*
X105228600Y-85840400D01*
X105228500Y-85840300D01*
X105228500Y-85840100D01*
X105228500Y-85840000D01*
X105228500Y-85500000D01*
X105228500Y-85499900D01*
X105228500Y-85499700D01*
X105228600Y-85499600D01*
X105228600Y-85499400D01*
X105228700Y-85499300D01*
X105228800Y-85499200D01*
X105228800Y-85499000D01*
X105228900Y-85498900D01*
X105229000Y-85498800D01*
X105229200Y-85498800D01*
X105229300Y-85498700D01*
X105229400Y-85498600D01*
X105229600Y-85498600D01*
X105229700Y-85498500D01*
X105229900Y-85498500D01*
X105230000Y-85498500D01*
X105230000Y-83301500D01*
X105229900Y-83301500D01*
X105229700Y-83301500D01*
X105229600Y-83301400D01*
X105229400Y-83301400D01*
X105229300Y-83301300D01*
X105229200Y-83301200D01*
X105229000Y-83301200D01*
X105228900Y-83301100D01*
X105228800Y-83301000D01*
X105228800Y-83300800D01*
X105228700Y-83300700D01*
X105228600Y-83300600D01*
X105228600Y-83300400D01*
X105228500Y-83300300D01*
X105228500Y-83300100D01*
X105228500Y-83300000D01*
X105228500Y-82960000D01*
X105228500Y-82959900D01*
X105228500Y-82959700D01*
X105228600Y-82959600D01*
X105228600Y-82959400D01*
X105228700Y-82959300D01*
X105228800Y-82959200D01*
X105228800Y-82959000D01*
X105228900Y-82958900D01*
X105229000Y-82958800D01*
X105229200Y-82958800D01*
X105229300Y-82958700D01*
X105229400Y-82958600D01*
X105229600Y-82958600D01*
X105229700Y-82958500D01*
X105229900Y-82958500D01*
X105230000Y-82958500D01*
X105230000Y-80710000D01*
X107528500Y-80710000D01*
X107528500Y-80470000D01*
X105230000Y-80470000D01*
X105230000Y-78170000D01*
X107528500Y-78170000D01*
X107528500Y-77930000D01*
X105230000Y-77930000D01*
X105230000Y-75630000D01*
X106931200Y-75630000D01*
X107002500Y-75609600D01*
X107051000Y-75602400D01*
X107098500Y-75600100D01*
X107098500Y-75390000D01*
X105230000Y-75390000D01*
X105230000Y-73090000D01*
X107530000Y-73090000D01*
X107530000Y-75390000D01*
X107101500Y-75390000D01*
X107101500Y-75600000D01*
X107692900Y-75600000D01*
X108400400Y-74892500D01*
X108403400Y-74831400D01*
X108413500Y-74763400D01*
X108430100Y-74696800D01*
X108453300Y-74632100D01*
X108482700Y-74570000D01*
X108518000Y-74511100D01*
X108558900Y-74455900D01*
X108605000Y-74405000D01*
X108655900Y-74358900D01*
X108711100Y-74318000D01*
X108770000Y-74282700D01*
X108832100Y-74253300D01*
X108896800Y-74230100D01*
X108963400Y-74213500D01*
X109031400Y-74203400D01*
X109100000Y-74200000D01*
X109168600Y-74203400D01*
X109236600Y-74213500D01*
X109303200Y-74230100D01*
X109367900Y-74253300D01*
X109420000Y-74277900D01*
X109420000Y-72420000D01*
X110700000Y-72420000D01*
X110700000Y-71073800D01*
X110630000Y-71117300D01*
X110567900Y-71146700D01*
X110503200Y-71169900D01*
X110436600Y-71186500D01*
X110368600Y-71196600D01*
X110300000Y-71200000D01*
X110231400Y-71196600D01*
X110163400Y-71186500D01*
X110096800Y-71169900D01*
X110032100Y-71146700D01*
X109970000Y-71117300D01*
X109911100Y-71082000D01*
X109855900Y-71041100D01*
X109805000Y-70995000D01*
X109758900Y-70944100D01*
X109718000Y-70888900D01*
X109682700Y-70830000D01*
X109653300Y-70767900D01*
X109630100Y-70703200D01*
X109613500Y-70636600D01*
X109603400Y-70568600D01*
X109600400Y-70507500D01*
X109492900Y-70400000D01*
X107101500Y-70400000D01*
X107101500Y-70550000D01*
X107530000Y-70550000D01*
X107530000Y-72850000D01*
X105230000Y-72850000D01*
X105230000Y-70550000D01*
X107098500Y-70550000D01*
X107098500Y-70399900D01*
X107051000Y-70397600D01*
X107002500Y-70390400D01*
X106954900Y-70378500D01*
X106908700Y-70361900D01*
X106864300Y-70341000D01*
X106814500Y-70310000D01*
X105230000Y-70310000D01*
X105230000Y-68010000D01*
X107530000Y-68010000D01*
X107530000Y-69400000D01*
X109700000Y-69400000D01*
X109749000Y-69402400D01*
X109797500Y-69409600D01*
X109845100Y-69421500D01*
X109891300Y-69438100D01*
X109935700Y-69459000D01*
X109977800Y-69484300D01*
X110017200Y-69513500D01*
X110053600Y-69546400D01*
X110307500Y-69800400D01*
X110368600Y-69803400D01*
X110436600Y-69813500D01*
X110503200Y-69830100D01*
X110567900Y-69853300D01*
X110601500Y-69869200D01*
X110603400Y-69831400D01*
X110613500Y-69763400D01*
X110630100Y-69696800D01*
X110653300Y-69632100D01*
X110682700Y-69570000D01*
X110718000Y-69511100D01*
X110758900Y-69455900D01*
X110805000Y-69405000D01*
X110855900Y-69358900D01*
X110911100Y-69318000D01*
X110970000Y-69282700D01*
X111032100Y-69253300D01*
X111096800Y-69230100D01*
X111163400Y-69213500D01*
X111231400Y-69203400D01*
X111300000Y-69200000D01*
X111368600Y-69203400D01*
X111436600Y-69213500D01*
X111503200Y-69230100D01*
X111567900Y-69253300D01*
X111630000Y-69282700D01*
X111688900Y-69318000D01*
X111744100Y-69358900D01*
X111795000Y-69405000D01*
X111841100Y-69455900D01*
X111882000Y-69511100D01*
X111920000Y-69575600D01*
X111920000Y-69227100D01*
X110492900Y-67800000D01*
X107100000Y-67800000D01*
X107051000Y-67797600D01*
X107002500Y-67790400D01*
X106931200Y-67770000D01*
X105230000Y-67770000D01*
X105230000Y-65521500D01*
X105229900Y-65521500D01*
X105229700Y-65521500D01*
X105229600Y-65521400D01*
X105229400Y-65521400D01*
X105229300Y-65521300D01*
X105229200Y-65521200D01*
X105229000Y-65521200D01*
X105228900Y-65521100D01*
X105228800Y-65521000D01*
X105228800Y-65520800D01*
X105228700Y-65520700D01*
X105228600Y-65520600D01*
X105228600Y-65520400D01*
X105228500Y-65520300D01*
X105228500Y-65520100D01*
X105228500Y-65520000D01*
X105228500Y-65180000D01*
X105228500Y-65179900D01*
X105228500Y-65179700D01*
X105228600Y-65179600D01*
X105228600Y-65179400D01*
X105228700Y-65179300D01*
X105228800Y-65179200D01*
X105228800Y-65179000D01*
X105228900Y-65178900D01*
X105229000Y-65178800D01*
X105229200Y-65178800D01*
X105229300Y-65178700D01*
X105229400Y-65178600D01*
X105229600Y-65178600D01*
X105229700Y-65178500D01*
X105229900Y-65178500D01*
X105230000Y-65178500D01*
X105230000Y-62930000D01*
X107528500Y-62930000D01*
X107528500Y-62690000D01*
X105230000Y-62690000D01*
X105230000Y-60390000D01*
X105278500Y-60390000D01*
X105278500Y-60151500D01*
X100350000Y-60151500D01*
X100350000Y-115650000D01*
X127650000Y-115650000D01*
X127650000Y-78171500D01*
X122771500Y-78171500D01*
X122771500Y-78218500D01*
X122771500Y-78218600D01*
X122771500Y-78218800D01*
X122771400Y-78218900D01*
X122771400Y-78219100D01*
X122771300Y-78219200D01*
X122771200Y-78219300D01*
X122771200Y-78219500D01*
X122771100Y-78219600D01*
X122771000Y-78219700D01*
X122770800Y-78219700D01*
X122770700Y-78219800D01*
X122770600Y-78219900D01*
X122770400Y-78219900D01*
X122770300Y-78220000D01*
X122770100Y-78220000D01*
X122770000Y-78220000D01*
X122770000Y-80470000D01*
X120471500Y-80470000D01*
X120471500Y-80710000D01*
X122770000Y-80710000D01*
X122770000Y-83010000D01*
X120521500Y-83010000D01*
X120521500Y-83250000D01*
X122770000Y-83250000D01*
X122770000Y-85550000D01*
X121921500Y-85550000D01*
X121921500Y-85690000D01*
X122870000Y-85690000D01*
X122870000Y-86298500D01*
X124000100Y-86298500D01*
X124003400Y-86231400D01*
X124013500Y-86163400D01*
X124030100Y-86096800D01*
X124053300Y-86032100D01*
X124082700Y-85970000D01*
X124118000Y-85911100D01*
X124158900Y-85855900D01*
X124205000Y-85805000D01*
X124255900Y-85758900D01*
X124311100Y-85718000D01*
X124370000Y-85682700D01*
X124432100Y-85653300D01*
X124496800Y-85630100D01*
X124563400Y-85613500D01*
X124631400Y-85603400D01*
X124700000Y-85600000D01*
X124768600Y-85603400D01*
X124836600Y-85613500D01*
X124903200Y-85630100D01*
X124967900Y-85653300D01*
X125030000Y-85682700D01*
X125088900Y-85718000D01*
X125144100Y-85758900D01*
X125195000Y-85805000D01*
X125241100Y-85855900D01*
X125282000Y-85911100D01*
X125317300Y-85970000D01*
X125346700Y-86032100D01*
X125369900Y-86096800D01*
X125386500Y-86163400D01*
X125396600Y-86231400D01*
X125400000Y-86300000D01*
X125396600Y-86368600D01*
X125386500Y-86436600D01*
X125369900Y-86503200D01*
X125346700Y-86567900D01*
X125317300Y-86630000D01*
X125300000Y-86658900D01*
X125300000Y-90141100D01*
X125317300Y-90170000D01*
X125346700Y-90232100D01*
X125369900Y-90296800D01*
X125386500Y-90363400D01*
X125396600Y-90431400D01*
X125400000Y-90500000D01*
X125396600Y-90568600D01*
X125386500Y-90636600D01*
X125369900Y-90703200D01*
X125346700Y-90767900D01*
X125317300Y-90830000D01*
X125282000Y-90888900D01*
X125241100Y-90944100D01*
X125195000Y-90995000D01*
X125144100Y-91041100D01*
X125088900Y-91082000D01*
X125030000Y-91117300D01*
X124967900Y-91146700D01*
X124903200Y-91169900D01*
X124836600Y-91186500D01*
X124768600Y-91196600D01*
X124700000Y-91200000D01*
X124631400Y-91196600D01*
X124563400Y-91186500D01*
X124496800Y-91169900D01*
X124432100Y-91146700D01*
X124370000Y-91117300D01*
X124311100Y-91082000D01*
X124255900Y-91041100D01*
X124205000Y-90995000D01*
X124158900Y-90944100D01*
X124118000Y-90888900D01*
X124082700Y-90830000D01*
X124053300Y-90767900D01*
X124030100Y-90703200D01*
X124013500Y-90636600D01*
X124003400Y-90568600D01*
X124000000Y-90500000D01*
X124003400Y-90431400D01*
X124013500Y-90363400D01*
X124030100Y-90296800D01*
X124053300Y-90232100D01*
X124082700Y-90170000D01*
X124100000Y-90141100D01*
X124100000Y-86658900D01*
X124082700Y-86630000D01*
X124053300Y-86567900D01*
X124030100Y-86503200D01*
X124013500Y-86436600D01*
X124003400Y-86368600D01*
X124000100Y-86301500D01*
X122870000Y-86301500D01*
X122870000Y-86640000D01*
X121920000Y-86640000D01*
X121920000Y-85741500D01*
X121919900Y-85741500D01*
X121919700Y-85741500D01*
X121919600Y-85741400D01*
X121919400Y-85741400D01*
X121919300Y-85741300D01*
X121919200Y-85741200D01*
X121919000Y-85741200D01*
X121918900Y-85741100D01*
X121918800Y-85741000D01*
X121918800Y-85740800D01*
X121918700Y-85740700D01*
X121918600Y-85740600D01*
X121918600Y-85740400D01*
X121918500Y-85740300D01*
X121918500Y-85740100D01*
X121918500Y-85740000D01*
X121918500Y-85550000D01*
X120471500Y-85550000D01*
X120471500Y-85690000D01*
X121320000Y-85690000D01*
X121320000Y-86640000D01*
X120371500Y-86640000D01*
X120371500Y-87240000D01*
X121320000Y-87240000D01*
X121320000Y-88190000D01*
X120471500Y-88190000D01*
X120471500Y-88330000D01*
X122768500Y-88330000D01*
X122768500Y-88190000D01*
X121920000Y-88190000D01*
X121920000Y-87240000D01*
X122870000Y-87240000D01*
X122870000Y-88190000D01*
X122771500Y-88190000D01*
X122771500Y-88380000D01*
X122771500Y-88380100D01*
X122771500Y-88380300D01*
X122771400Y-88380400D01*
X122771400Y-88380600D01*
X122771300Y-88380700D01*
X122771200Y-88380800D01*
X122771200Y-88381000D01*
X122771100Y-88381100D01*
X122771000Y-88381200D01*
X122770800Y-88381200D01*
X122770700Y-88381300D01*
X122770600Y-88381400D01*
X122770400Y-88381400D01*
X122770300Y-88381500D01*
X122770100Y-88381500D01*
X122770000Y-88381500D01*
X122770000Y-90578500D01*
X122770100Y-90578500D01*
X122770300Y-90578500D01*
X122770400Y-90578600D01*
X122770600Y-90578600D01*
X122770700Y-90578700D01*
X122770800Y-90578800D01*
X122771000Y-90578800D01*
X122771100Y-90578900D01*
X122771200Y-90579000D01*
X122771200Y-90579200D01*
X122771300Y-90579300D01*
X122771400Y-90579400D01*
X122771400Y-90579600D01*
X122771500Y-90579700D01*
X122771500Y-90579900D01*
X122771500Y-90580000D01*
X122771500Y-90920000D01*
X122771500Y-90920100D01*
X122771500Y-90920300D01*
X122771400Y-90920400D01*
X122771400Y-90920600D01*
X122771300Y-90920700D01*
X122771200Y-90920800D01*
X122771200Y-90921000D01*
X122771100Y-90921100D01*
X122771000Y-90921200D01*
X122770800Y-90921200D01*
X122770700Y-90921300D01*
X122770600Y-90921400D01*
X122770400Y-90921400D01*
X122770300Y-90921500D01*
X122770100Y-90921500D01*
X122770000Y-90921500D01*
X122770000Y-93170000D01*
X120470000Y-93170000D01*
X120470000Y-90870000D01*
X122768500Y-90870000D01*
X122768500Y-90630000D01*
X120470000Y-90630000D01*
X120470000Y-88381500D01*
X120469900Y-88381500D01*
X120469700Y-88381500D01*
X120469600Y-88381400D01*
X120469400Y-88381400D01*
X120469300Y-88381300D01*
X120469200Y-88381200D01*
X120469000Y-88381200D01*
X120468900Y-88381100D01*
X120468800Y-88381000D01*
X120468800Y-88380800D01*
X120468700Y-88380700D01*
X120468600Y-88380600D01*
X120468600Y-88380400D01*
X120468500Y-88380300D01*
X120468500Y-88380100D01*
X120468500Y-88380000D01*
X120468500Y-88190000D01*
X120370000Y-88190000D01*
X120370000Y-87291500D01*
X120369900Y-87291500D01*
X120369700Y-87291500D01*
X120369600Y-87291400D01*
X120369400Y-87291400D01*
X120369300Y-87291300D01*
X120369200Y-87291200D01*
X120369000Y-87291200D01*
X120368900Y-87291100D01*
X120368800Y-87291000D01*
X120368800Y-87290800D01*
X120368700Y-87290700D01*
X120368600Y-87290600D01*
X120368600Y-87290400D01*
X120368500Y-87290300D01*
X120368500Y-87290100D01*
X120368500Y-87290000D01*
X120368500Y-86590000D01*
X120368500Y-86589900D01*
X120368500Y-86589700D01*
X120368600Y-86589600D01*
X120368600Y-86589400D01*
X120368700Y-86589300D01*
X120368800Y-86589200D01*
X120368800Y-86589000D01*
X120368900Y-86588900D01*
X120369000Y-86588800D01*
X120369200Y-86588800D01*
X120369300Y-86588700D01*
X120369400Y-86588600D01*
X120369600Y-86588600D01*
X120369700Y-86588500D01*
X120369900Y-86588500D01*
X120370000Y-86588500D01*
X120370000Y-85690000D01*
X120468500Y-85690000D01*
X120468500Y-85500000D01*
X120468500Y-85499900D01*
X120468500Y-85499700D01*
X120468600Y-85499600D01*
X120468600Y-85499400D01*
X120468700Y-85499300D01*
X120468800Y-85499200D01*
X120468800Y-85499000D01*
X120468900Y-85498900D01*
X120469000Y-85498800D01*
X120469200Y-85498800D01*
X120469300Y-85498700D01*
X120469400Y-85498600D01*
X120469600Y-85498600D01*
X120469700Y-85498500D01*
X120469900Y-85498500D01*
X120470000Y-85498500D01*
X120470000Y-83250000D01*
X120518500Y-83250000D01*
X120518500Y-83011500D01*
X118720000Y-83011500D01*
X118720000Y-84048500D01*
X118720100Y-84048500D01*
X118720300Y-84048500D01*
X118720400Y-84048600D01*
X118720600Y-84048600D01*
X118720700Y-84048700D01*
X118720800Y-84048800D01*
X118721000Y-84048800D01*
X118721100Y-84048900D01*
X118721200Y-84049000D01*
X118721200Y-84049200D01*
X118721300Y-84049300D01*
X118721400Y-84049400D01*
X118721400Y-84049600D01*
X118721500Y-84049700D01*
X118721500Y-84049900D01*
X118721500Y-84050000D01*
X118721500Y-84340000D01*
X118820000Y-84340000D01*
X118820000Y-85188500D01*
X118820100Y-85188500D01*
X118820300Y-85188500D01*
X118820400Y-85188600D01*
X118820600Y-85188600D01*
X118820700Y-85188700D01*
X118820800Y-85188800D01*
X118821000Y-85188800D01*
X118821100Y-85188900D01*
X118821200Y-85189000D01*
X118821200Y-85189200D01*
X118821300Y-85189300D01*
X118821400Y-85189400D01*
X118821400Y-85189600D01*
X118821500Y-85189700D01*
X118821500Y-85189900D01*
X118821500Y-85190000D01*
X118821500Y-85890000D01*
X118821500Y-85890100D01*
X118821500Y-85890300D01*
X118821400Y-85890400D01*
X118821400Y-85890600D01*
X118821300Y-85890700D01*
X118821200Y-85890800D01*
X118821200Y-85891000D01*
X118821100Y-85891100D01*
X118821000Y-85891200D01*
X118820800Y-85891200D01*
X118820700Y-85891300D01*
X118820600Y-85891400D01*
X118820400Y-85891400D01*
X118820300Y-85891500D01*
X118820100Y-85891500D01*
X118820000Y-85891500D01*
X118820000Y-86740000D01*
X117920000Y-86740000D01*
X117920000Y-85840000D01*
X118818500Y-85840000D01*
X118818500Y-85240000D01*
X117920000Y-85240000D01*
X117920000Y-84340000D01*
X118718500Y-84340000D01*
X118718500Y-84100000D01*
X116521500Y-84100000D01*
X116521500Y-84340000D01*
X117320000Y-84340000D01*
X117320000Y-85240000D01*
X116421500Y-85240000D01*
X116421500Y-85840000D01*
X117320000Y-85840000D01*
X117320000Y-86740000D01*
X116420000Y-86740000D01*
X116420000Y-85891500D01*
X116419900Y-85891500D01*
X116419700Y-85891500D01*
X116419600Y-85891400D01*
X116419400Y-85891400D01*
X116419300Y-85891300D01*
X116419200Y-85891200D01*
X116419000Y-85891200D01*
X116418900Y-85891100D01*
X116418800Y-85891000D01*
X116418800Y-85890800D01*
X116418700Y-85890700D01*
X116418600Y-85890600D01*
X116418600Y-85890400D01*
X116418500Y-85890300D01*
X116418500Y-85890100D01*
X116418500Y-85890000D01*
X116418500Y-85190000D01*
X116418500Y-85189900D01*
X116418500Y-85189700D01*
X116418600Y-85189600D01*
X116418600Y-85189400D01*
X116418700Y-85189300D01*
X116418800Y-85189200D01*
X116418800Y-85189000D01*
X116418900Y-85188900D01*
X116419000Y-85188800D01*
X116419200Y-85188800D01*
X116419300Y-85188700D01*
X116419400Y-85188600D01*
X116419600Y-85188600D01*
X116419700Y-85188500D01*
X116419900Y-85188500D01*
X116420000Y-85188500D01*
X116420000Y-84340000D01*
X116518500Y-84340000D01*
X116518500Y-84050000D01*
X116518500Y-84049900D01*
X116518500Y-84049700D01*
X116518600Y-84049600D01*
X116518600Y-84049400D01*
X116518700Y-84049300D01*
X116518800Y-84049200D01*
X116518800Y-84049000D01*
X116518900Y-84048900D01*
X116519000Y-84048800D01*
X116519200Y-84048800D01*
X116519300Y-84048700D01*
X116519400Y-84048600D01*
X116519600Y-84048600D01*
X116519700Y-84048500D01*
X116519900Y-84048500D01*
X116520000Y-84048500D01*
X116520000Y-81900000D01*
X118720000Y-81900000D01*
X118720000Y-83008500D01*
X120470000Y-83008500D01*
X120470000Y-80761500D01*
X120469900Y-80761500D01*
X120469700Y-80761500D01*
X120469600Y-80761400D01*
X120469400Y-80761400D01*
X120469300Y-80761300D01*
X120469200Y-80761200D01*
X120469000Y-80761200D01*
X120468900Y-80761100D01*
X120468800Y-80761000D01*
X120468800Y-80760800D01*
X120468700Y-80760700D01*
X120468600Y-80760600D01*
X120468600Y-80760400D01*
X120468500Y-80760300D01*
X120468500Y-80760100D01*
X120468500Y-80760000D01*
X120468500Y-80420000D01*
X120468500Y-80419900D01*
X120468500Y-80419700D01*
X120468600Y-80419600D01*
X120468600Y-80419400D01*
X120468700Y-80419300D01*
X120468800Y-80419200D01*
X120468800Y-80419000D01*
X120468900Y-80418900D01*
X120469000Y-80418800D01*
X120469200Y-80418800D01*
X120469300Y-80418700D01*
X120469400Y-80418600D01*
X120469600Y-80418600D01*
X120469700Y-80418500D01*
X120469900Y-80418500D01*
X120470000Y-80418500D01*
X120470000Y-78170000D01*
X122718500Y-78170000D01*
X122718500Y-78169900D01*
X122718500Y-78169700D01*
X122718600Y-78169600D01*
X122718600Y-78169400D01*
X122718700Y-78169300D01*
X122718800Y-78169200D01*
X122718800Y-78169000D01*
X122718900Y-78168900D01*
X122719000Y-78168800D01*
X122719200Y-78168800D01*
X122719300Y-78168700D01*
X122719400Y-78168600D01*
X122719600Y-78168600D01*
X122719700Y-78168500D01*
X122719900Y-78168500D01*
X122720000Y-78168500D01*
X122768500Y-78168500D01*
X122768500Y-77930000D01*
X120470000Y-77930000D01*
X120470000Y-75630000D01*
X122770000Y-75630000D01*
X122770000Y-77878500D01*
X122770100Y-77878500D01*
X122770300Y-77878500D01*
X122770400Y-77878600D01*
X122770600Y-77878600D01*
X122770700Y-77878700D01*
X122770800Y-77878800D01*
X122771000Y-77878800D01*
X122771100Y-77878900D01*
X122771200Y-77879000D01*
X122771200Y-77879200D01*
X122771300Y-77879300D01*
X122771400Y-77879400D01*
X122771400Y-77879600D01*
X122771500Y-77879700D01*
X122771500Y-77879900D01*
X122771500Y-77880000D01*
X122771500Y-78168500D01*
X127650000Y-78168500D01*
X127650000Y-50350000D01*
X109001500Y-50350000D01*
X109001500Y-51125000D01*
X109950000Y-51125000D01*
X109950000Y-52200000D01*
X109001500Y-52200000D01*
X109001500Y-52800000D01*
X109950000Y-52800000D01*
X109950000Y-53873500D01*
X110550000Y-53873500D01*
X110550000Y-52800000D01*
X111500000Y-52800000D01*
X111500000Y-52853700D01*
X111566700Y-52801100D01*
X111600000Y-52781100D01*
X111600000Y-52201500D01*
X111450000Y-52201500D01*
X111449900Y-52201500D01*
X111449700Y-52201500D01*
X111449600Y-52201400D01*
X111449400Y-52201400D01*
X111449300Y-52201300D01*
X111449200Y-52201200D01*
X111449000Y-52201200D01*
X111448900Y-52201100D01*
X111448800Y-52201000D01*
X111448800Y-52200800D01*
X111448700Y-52200700D01*
X111448600Y-52200600D01*
X111448600Y-52200400D01*
X111448500Y-52200300D01*
X111448500Y-52200100D01*
X111448500Y-52200000D01*
X110550000Y-52200000D01*
X110550000Y-51125000D01*
X111500000Y-51125000D01*
X111500000Y-52198500D01*
X111600000Y-52198500D01*
X111600000Y-51225000D01*
X113848500Y-51225000D01*
X113848500Y-51224900D01*
X113848500Y-51224700D01*
X113848600Y-51224600D01*
X113848600Y-51224400D01*
X113848700Y-51224300D01*
X113848800Y-51224200D01*
X113848800Y-51224000D01*
X113848900Y-51223900D01*
X113849000Y-51223800D01*
X113849200Y-51223800D01*
X113849300Y-51223700D01*
X113849400Y-51223600D01*
X113849600Y-51223600D01*
X113849700Y-51223500D01*
X113849900Y-51223500D01*
X113850000Y-51223500D01*
X114150000Y-51223500D01*
X114150100Y-51223500D01*
X114150300Y-51223500D01*
X114150400Y-51223600D01*
X114150600Y-51223600D01*
X114150700Y-51223700D01*
X114150800Y-51223800D01*
X114151000Y-51223800D01*
X114151100Y-51223900D01*
X114151200Y-51224000D01*
X114151200Y-51224200D01*
X114151300Y-51224300D01*
X114151400Y-51224400D01*
X114151400Y-51224600D01*
X114151500Y-51224700D01*
X114151500Y-51224900D01*
X114151500Y-51225000D01*
X116348500Y-51225000D01*
X116348500Y-51224900D01*
X116348500Y-51224700D01*
X116348600Y-51224600D01*
X116348600Y-51224400D01*
X116348700Y-51224300D01*
X116348800Y-51224200D01*
X116348800Y-51224000D01*
X116348900Y-51223900D01*
X116349000Y-51223800D01*
X116349200Y-51223800D01*
X116349300Y-51223700D01*
X116349400Y-51223600D01*
X116349600Y-51223600D01*
X116349700Y-51223500D01*
X116349900Y-51223500D01*
X116350000Y-51223500D01*
X116650000Y-51223500D01*
X116650100Y-51223500D01*
X116650300Y-51223500D01*
X116650400Y-51223600D01*
X116650600Y-51223600D01*
X116650700Y-51223700D01*
X116650800Y-51223800D01*
X116651000Y-51223800D01*
X116651100Y-51223900D01*
X116651200Y-51224000D01*
X116651200Y-51224200D01*
X116651300Y-51224300D01*
X116651400Y-51224400D01*
X116651400Y-51224600D01*
X116651500Y-51224700D01*
X116651500Y-51224900D01*
X116651500Y-51225000D01*
X118900000Y-51225000D01*
X118900000Y-53770800D01*
X120471600Y-57850000D01*
X122770000Y-57850000D01*
X122770000Y-60150000D01*
X120471500Y-60150000D01*
X120471500Y-60390000D01*
X122770000Y-60390000D01*
X122770000Y-62638500D01*
X122770100Y-62638500D01*
X122770300Y-62638500D01*
X122770400Y-62638600D01*
X122770600Y-62638600D01*
X122770700Y-62638700D01*
X122770800Y-62638800D01*
X122771000Y-62638800D01*
X122771100Y-62638900D01*
X122771200Y-62639000D01*
X122771200Y-62639200D01*
X122771300Y-62639300D01*
X122771400Y-62639400D01*
X122771400Y-62639600D01*
X122771500Y-62639700D01*
X122771500Y-62639900D01*
X122771500Y-62640000D01*
X122771500Y-62980000D01*
X122771500Y-62980100D01*
X122771500Y-62980300D01*
X122771400Y-62980400D01*
X122771400Y-62980600D01*
X122771300Y-62980700D01*
X122771200Y-62980800D01*
X122771200Y-62981000D01*
X122771100Y-62981100D01*
X122771000Y-62981200D01*
X122770800Y-62981200D01*
X122770700Y-62981300D01*
X122770600Y-62981400D01*
X122770400Y-62981400D01*
X122770300Y-62981500D01*
X122770100Y-62981500D01*
X122770000Y-62981500D01*
X122770000Y-65178500D01*
X122770100Y-65178500D01*
X122770300Y-65178500D01*
X122770400Y-65178600D01*
X122770600Y-65178600D01*
X122770700Y-65178700D01*
X122770800Y-65178800D01*
X122771000Y-65178800D01*
X122771100Y-65178900D01*
X122771200Y-65179000D01*
X122771200Y-65179200D01*
X122771300Y-65179300D01*
X122771400Y-65179400D01*
X122771400Y-65179600D01*
X122771500Y-65179700D01*
X122771500Y-65179900D01*
X122771500Y-65180000D01*
X122771500Y-65520000D01*
X122771500Y-65520100D01*
X122771500Y-65520300D01*
X122771400Y-65520400D01*
X122771400Y-65520600D01*
X122771300Y-65520700D01*
X122771200Y-65520800D01*
X122771200Y-65521000D01*
X122771100Y-65521100D01*
X122771000Y-65521200D01*
X122770800Y-65521200D01*
X122770700Y-65521300D01*
X122770600Y-65521400D01*
X122770400Y-65521400D01*
X122770300Y-65521500D01*
X122770100Y-65521500D01*
X122770000Y-65521500D01*
X122770000Y-67770000D01*
X120471500Y-67770000D01*
X120471500Y-68010000D01*
X122770000Y-68010000D01*
X122770000Y-70310000D01*
X120471500Y-70310000D01*
X120471500Y-70550000D01*
X122770000Y-70550000D01*
X122770000Y-72798500D01*
X122770100Y-72798500D01*
X122770300Y-72798500D01*
X122770400Y-72798600D01*
X122770600Y-72798600D01*
X122770700Y-72798700D01*
X122770800Y-72798800D01*
X122771000Y-72798800D01*
X122771100Y-72798900D01*
X122771200Y-72799000D01*
X122771200Y-72799200D01*
X122771300Y-72799300D01*
X122771400Y-72799400D01*
X122771400Y-72799600D01*
X122771500Y-72799700D01*
X122771500Y-72799900D01*
X122771500Y-72800000D01*
X122771500Y-73140000D01*
X122771500Y-73140100D01*
X122771500Y-73140300D01*
X122771400Y-73140400D01*
X122771400Y-73140600D01*
X122771300Y-73140700D01*
X122771200Y-73140800D01*
X122771200Y-73141000D01*
X122771100Y-73141100D01*
X122771000Y-73141200D01*
X122770800Y-73141200D01*
X122770700Y-73141300D01*
X122770600Y-73141400D01*
X122770400Y-73141400D01*
X122770300Y-73141500D01*
X122770100Y-73141500D01*
X122770000Y-73141500D01*
X122770000Y-75390000D01*
X120470000Y-75390000D01*
X120470000Y-73090000D01*
X122768500Y-73090000D01*
X122768500Y-72850000D01*
X120470000Y-72850000D01*
X120470000Y-70601500D01*
X120469900Y-70601500D01*
X120469700Y-70601500D01*
X120469600Y-70601400D01*
X120469400Y-70601400D01*
X120469300Y-70601300D01*
X120469200Y-70601200D01*
X120469000Y-70601200D01*
X120468900Y-70601100D01*
X120468800Y-70601000D01*
X120468800Y-70600800D01*
X120468700Y-70600700D01*
X120468600Y-70600600D01*
X120468600Y-70600400D01*
X120468500Y-70600300D01*
X120468500Y-70600100D01*
X120468500Y-70600000D01*
X120468500Y-70260000D01*
X120468500Y-70259900D01*
X120468500Y-70259700D01*
X120468600Y-70259600D01*
X120468600Y-70259400D01*
X120468700Y-70259300D01*
X120468800Y-70259200D01*
X120468800Y-70259000D01*
X120468900Y-70258900D01*
X120469000Y-70258800D01*
X120469200Y-70258800D01*
X120469300Y-70258700D01*
X120469400Y-70258600D01*
X120469600Y-70258600D01*
X120469700Y-70258500D01*
X120469900Y-70258500D01*
X120470000Y-70258500D01*
X120470000Y-68061500D01*
X120469900Y-68061500D01*
X120469700Y-68061500D01*
X120469600Y-68061400D01*
X120469400Y-68061400D01*
X120469300Y-68061300D01*
X120469200Y-68061200D01*
X120469000Y-68061200D01*
X120468900Y-68061100D01*
X120468800Y-68061000D01*
X120468800Y-68060800D01*
X120468700Y-68060700D01*
X120468600Y-68060600D01*
X120468600Y-68060400D01*
X120468500Y-68060300D01*
X120468500Y-68060100D01*
X120468500Y-68060000D01*
X120468500Y-67720000D01*
X120468500Y-67719900D01*
X120468500Y-67719700D01*
X120468600Y-67719600D01*
X120468600Y-67719400D01*
X120468700Y-67719300D01*
X120468800Y-67719200D01*
X120468800Y-67719000D01*
X120468900Y-67718900D01*
X120469000Y-67718800D01*
X120469200Y-67718800D01*
X120469300Y-67718700D01*
X120469400Y-67718600D01*
X120469600Y-67718600D01*
X120469700Y-67718500D01*
X120469900Y-67718500D01*
X120470000Y-67718500D01*
X120470000Y-65470000D01*
X122768500Y-65470000D01*
X122768500Y-65230000D01*
X120470000Y-65230000D01*
X120470000Y-62930000D01*
X122768500Y-62930000D01*
X122768500Y-62690000D01*
X120470000Y-62690000D01*
X120470000Y-60441500D01*
X120469900Y-60441500D01*
X120469700Y-60441500D01*
X120469600Y-60441400D01*
X120469400Y-60441400D01*
X120469300Y-60441300D01*
X120469200Y-60441200D01*
X120469000Y-60441200D01*
X120468900Y-60441100D01*
X120468800Y-60441000D01*
X120468800Y-60440800D01*
X120468700Y-60440700D01*
X120468600Y-60440600D01*
X120468600Y-60440400D01*
X120468500Y-60440300D01*
X120468500Y-60440100D01*
X120468500Y-60440000D01*
X120468500Y-60100000D01*
X120468500Y-60099900D01*
X120468500Y-60099700D01*
X120468600Y-60099600D01*
X120468600Y-60099400D01*
X120468700Y-60099300D01*
X120468800Y-60099200D01*
X120468800Y-60099000D01*
X120468900Y-60098900D01*
X120469000Y-60098800D01*
X120469200Y-60098800D01*
X120469300Y-60098700D01*
X120469400Y-60098600D01*
X120469600Y-60098600D01*
X120469700Y-60098500D01*
X120469900Y-60098500D01*
X120470000Y-60098500D01*
X120470000Y-57854200D01*
X118898400Y-53775000D01*
X116600000Y-53775000D01*
X116600000Y-51226500D01*
X116400000Y-51226500D01*
X116400000Y-53775000D01*
X114100000Y-53775000D01*
X114100000Y-51226500D01*
X113900000Y-51226500D01*
X113900000Y-53775000D01*
X112500000Y-53775000D01*
X112500000Y-63100000D01*
X112497200Y-63157300D01*
X114337000Y-63320000D01*
X115200000Y-63320000D01*
X115200000Y-64148500D01*
X115800000Y-64148500D01*
X115800000Y-63320000D01*
X116680000Y-63320000D01*
X116680000Y-64200000D01*
X115800000Y-64200000D01*
X115800000Y-64151500D01*
X115201500Y-64151500D01*
X115201500Y-64848500D01*
X115800000Y-64848500D01*
X115800000Y-64800000D01*
X116680000Y-64800000D01*
X116680000Y-65680000D01*
X115800000Y-65680000D01*
X115800000Y-64851500D01*
X115200000Y-64851500D01*
X115200000Y-65680000D01*
X114320000Y-65680000D01*
X114320000Y-64800000D01*
X115198500Y-64800000D01*
X115198500Y-64200000D01*
X114320000Y-64200000D01*
X114320000Y-63321500D01*
X112496900Y-63160300D01*
X112488500Y-63217100D01*
X112474200Y-63274200D01*
X112454300Y-63329600D01*
X112429200Y-63382800D01*
X112398900Y-63433300D01*
X112363800Y-63480600D01*
X112324300Y-63524300D01*
X111580000Y-64268500D01*
X111580000Y-65580000D01*
X109420000Y-65580000D01*
X109420000Y-63420000D01*
X110731500Y-63420000D01*
X111300000Y-62851500D01*
X111300000Y-53875000D01*
X110601500Y-53875000D01*
X110601500Y-53875100D01*
X110601500Y-53875300D01*
X110601400Y-53875400D01*
X110601400Y-53875600D01*
X110601300Y-53875700D01*
X110601200Y-53875800D01*
X110601200Y-53876000D01*
X110601100Y-53876100D01*
X110601000Y-53876200D01*
X110600800Y-53876200D01*
X110600700Y-53876300D01*
X110600600Y-53876400D01*
X110600400Y-53876400D01*
X110600300Y-53876500D01*
X110600100Y-53876500D01*
X110600000Y-53876500D01*
X109900000Y-53876500D01*
X109899900Y-53876500D01*
X109899700Y-53876500D01*
X109899600Y-53876400D01*
X109899400Y-53876400D01*
X109899300Y-53876300D01*
X109899200Y-53876200D01*
X109899000Y-53876200D01*
X109898900Y-53876100D01*
X109898800Y-53876000D01*
X109898800Y-53875800D01*
X109898700Y-53875700D01*
X109898600Y-53875600D01*
X109898600Y-53875400D01*
X109898500Y-53875300D01*
X109898500Y-53875100D01*
X109898500Y-53875000D01*
X109000000Y-53875000D01*
X109000000Y-52851500D01*
X108999900Y-52851500D01*
X108999700Y-52851500D01*
X108999600Y-52851400D01*
X108999400Y-52851400D01*
X108999300Y-52851300D01*
X108999200Y-52851200D01*
X108999000Y-52851200D01*
X108998900Y-52851100D01*
X108998800Y-52851000D01*
X108998800Y-52850800D01*
X108998700Y-52850700D01*
X108998600Y-52850600D01*
X108998600Y-52850400D01*
X108998500Y-52850300D01*
X108998500Y-52850100D01*
X108998500Y-52850000D01*
X108998500Y-52150000D01*
X108998500Y-52149900D01*
X108998500Y-52149700D01*
X108998600Y-52149600D01*
X108998600Y-52149400D01*
X108998700Y-52149300D01*
X108998800Y-52149200D01*
X108998800Y-52149000D01*
X108998900Y-52148900D01*
X108999000Y-52148800D01*
X108999200Y-52148800D01*
X108999300Y-52148700D01*
X108999400Y-52148600D01*
X108999600Y-52148600D01*
X108999700Y-52148500D01*
X108999900Y-52148500D01*
X109000000Y-52148500D01*
X109000000Y-51176500D01*
X108999900Y-51176500D01*
X108999700Y-51176500D01*
X108999600Y-51176400D01*
X108999400Y-51176400D01*
X108999300Y-51176300D01*
X108999200Y-51176200D01*
X108999000Y-51176200D01*
X108998900Y-51176100D01*
X108998800Y-51176000D01*
X108998800Y-51175800D01*
X108998700Y-51175700D01*
X108998600Y-51175600D01*
X108998600Y-51175400D01*
X108998500Y-51175300D01*
X108998500Y-51175100D01*
X108998500Y-51175000D01*
X108998500Y-50350000D01*
X100350000Y-50350000D01*
X100350000Y-60148500D01*
X105230000Y-60148500D01*
X105230000Y-57850000D01*
X107530000Y-57850000D01*
X107530000Y-60150000D01*
X105281500Y-60150000D01*
X105281500Y-60390000D01*
X107530000Y-60390000D01*
X107530000Y-62638500D01*
X107530100Y-62638500D01*
X107530300Y-62638500D01*
X107530400Y-62638600D01*
X107530600Y-62638600D01*
X107530700Y-62638700D01*
X107530800Y-62638800D01*
X107531000Y-62638800D01*
X107531100Y-62638900D01*
X107531200Y-62639000D01*
X107531200Y-62639200D01*
X107531300Y-62639300D01*
X107531400Y-62639400D01*
X107531400Y-62639600D01*
X107531500Y-62639700D01*
X107531500Y-62639900D01*
X107531500Y-62640000D01*
X107531500Y-62980000D01*
X107531500Y-62980100D01*
X107531500Y-62980300D01*
X107531400Y-62980400D01*
X107531400Y-62980600D01*
X107531300Y-62980700D01*
X107531200Y-62980800D01*
X107531200Y-62981000D01*
X107531100Y-62981100D01*
X107531000Y-62981200D01*
X107530800Y-62981200D01*
X107530700Y-62981300D01*
X107530600Y-62981400D01*
X107530400Y-62981400D01*
X107530300Y-62981500D01*
X107530100Y-62981500D01*
X107530000Y-62981500D01*
X107530000Y-65230000D01*
X105231500Y-65230000D01*
X105231500Y-65470000D01*
X107530000Y-65470000D01*
X107530000Y-66800000D01*
X110700000Y-66800000D01*
X110749000Y-66802400D01*
X110797500Y-66809600D01*
X110845100Y-66821500D01*
X110891300Y-66838100D01*
X110935700Y-66859000D01*
X110977800Y-66884300D01*
X111017200Y-66913500D01*
X111053600Y-66946400D01*
X112527100Y-68420000D01*
X114080000Y-68420000D01*
X114080000Y-70569000D01*
X114321500Y-72320000D01*
X115200000Y-72320000D01*
X115200000Y-73148500D01*
X115800000Y-73148500D01*
X115800000Y-72320000D01*
X116680000Y-72320000D01*
X116680000Y-73200000D01*
X115800000Y-73200000D01*
X115800000Y-73151500D01*
X115201500Y-73151500D01*
G37*
%TD.AperFunction*%
%TD*%
M02*
