%TF.GenerationSoftware,KiCad,Pcbnew,7.0.11+dfsg-1build4*%
%TF.CreationDate,2026-09-27T08:57:36+00:00*%
%TF.ProjectId,canduino_oled_shield_V002,63616e64-7569-46e6-9f5f-6f6c65645f73,V002*%
%TF.SameCoordinates,Original*%
%TF.FileFunction,Legend,Bot*%
%TF.FilePolarity,Positive*%
%FSLAX46Y46*%
G04 Gerber Fmt 4.6, Leading zero omitted, Abs format (unit mm)*
G04 Created by KiCad (PCBNEW 7.0.11+dfsg-1build4) date 2026-09-27 08:57:36*
%MOMM*%
%LPD*%
G01*
G04 APERTURE LIST*
%ADD10C,0.150000*%
%ADD11C,0.120000*%
G04 APERTURE END LIST*
D10*
X114359580Y-65142855D02*
X114407200Y-65095236D01*
X114407200Y-65095236D02*
X114454819Y-64952379D01*
X114454819Y-64952379D02*
X114454819Y-64857141D01*
X114454819Y-64857141D02*
X114407200Y-64714284D01*
X114407200Y-64714284D02*
X114311961Y-64619046D01*
X114311961Y-64619046D02*
X114216723Y-64571427D01*
X114216723Y-64571427D02*
X114026247Y-64523808D01*
X114026247Y-64523808D02*
X113883390Y-64523808D01*
X113883390Y-64523808D02*
X113692914Y-64571427D01*
X113692914Y-64571427D02*
X113597676Y-64619046D01*
X113597676Y-64619046D02*
X113502438Y-64714284D01*
X113502438Y-64714284D02*
X113454819Y-64857141D01*
X113454819Y-64857141D02*
X113454819Y-64952379D01*
X113454819Y-64952379D02*
X113502438Y-65095236D01*
X113502438Y-65095236D02*
X113550057Y-65142855D01*
X114169104Y-65523808D02*
X114169104Y-65999998D01*
X114454819Y-65428570D02*
X113454819Y-65761903D01*
X113454819Y-65761903D02*
X114454819Y-66095236D01*
X114454819Y-66428570D02*
X113454819Y-66428570D01*
X113454819Y-66428570D02*
X114454819Y-66999998D01*
X114454819Y-66999998D02*
X113454819Y-66999998D01*
X114454819Y-67904760D02*
X113454819Y-67904760D01*
X114407200Y-67904760D02*
X114454819Y-67809522D01*
X114454819Y-67809522D02*
X114454819Y-67619046D01*
X114454819Y-67619046D02*
X114407200Y-67523808D01*
X114407200Y-67523808D02*
X114359580Y-67476189D01*
X114359580Y-67476189D02*
X114264342Y-67428570D01*
X114264342Y-67428570D02*
X113978628Y-67428570D01*
X113978628Y-67428570D02*
X113883390Y-67476189D01*
X113883390Y-67476189D02*
X113835771Y-67523808D01*
X113835771Y-67523808D02*
X113788152Y-67619046D01*
X113788152Y-67619046D02*
X113788152Y-67809522D01*
X113788152Y-67809522D02*
X113835771Y-67904760D01*
X113788152Y-68809522D02*
X114454819Y-68809522D01*
X113788152Y-68380951D02*
X114311961Y-68380951D01*
X114311961Y-68380951D02*
X114407200Y-68428570D01*
X114407200Y-68428570D02*
X114454819Y-68523808D01*
X114454819Y-68523808D02*
X114454819Y-68666665D01*
X114454819Y-68666665D02*
X114407200Y-68761903D01*
X114407200Y-68761903D02*
X114359580Y-68809522D01*
X114454819Y-69285713D02*
X113788152Y-69285713D01*
X113454819Y-69285713D02*
X113502438Y-69238094D01*
X113502438Y-69238094D02*
X113550057Y-69285713D01*
X113550057Y-69285713D02*
X113502438Y-69333332D01*
X113502438Y-69333332D02*
X113454819Y-69285713D01*
X113454819Y-69285713D02*
X113550057Y-69285713D01*
X113788152Y-69761903D02*
X114454819Y-69761903D01*
X113883390Y-69761903D02*
X113835771Y-69809522D01*
X113835771Y-69809522D02*
X113788152Y-69904760D01*
X113788152Y-69904760D02*
X113788152Y-70047617D01*
X113788152Y-70047617D02*
X113835771Y-70142855D01*
X113835771Y-70142855D02*
X113931009Y-70190474D01*
X113931009Y-70190474D02*
X114454819Y-70190474D01*
X114454819Y-70809522D02*
X114407200Y-70714284D01*
X114407200Y-70714284D02*
X114359580Y-70666665D01*
X114359580Y-70666665D02*
X114264342Y-70619046D01*
X114264342Y-70619046D02*
X113978628Y-70619046D01*
X113978628Y-70619046D02*
X113883390Y-70666665D01*
X113883390Y-70666665D02*
X113835771Y-70714284D01*
X113835771Y-70714284D02*
X113788152Y-70809522D01*
X113788152Y-70809522D02*
X113788152Y-70952379D01*
X113788152Y-70952379D02*
X113835771Y-71047617D01*
X113835771Y-71047617D02*
X113883390Y-71095236D01*
X113883390Y-71095236D02*
X113978628Y-71142855D01*
X113978628Y-71142855D02*
X114264342Y-71142855D01*
X114264342Y-71142855D02*
X114359580Y-71095236D01*
X114359580Y-71095236D02*
X114407200Y-71047617D01*
X114407200Y-71047617D02*
X114454819Y-70952379D01*
X114454819Y-70952379D02*
X114454819Y-70809522D01*
X113454819Y-72523808D02*
X113454819Y-72714284D01*
X113454819Y-72714284D02*
X113502438Y-72809522D01*
X113502438Y-72809522D02*
X113597676Y-72904760D01*
X113597676Y-72904760D02*
X113788152Y-72952379D01*
X113788152Y-72952379D02*
X114121485Y-72952379D01*
X114121485Y-72952379D02*
X114311961Y-72904760D01*
X114311961Y-72904760D02*
X114407200Y-72809522D01*
X114407200Y-72809522D02*
X114454819Y-72714284D01*
X114454819Y-72714284D02*
X114454819Y-72523808D01*
X114454819Y-72523808D02*
X114407200Y-72428570D01*
X114407200Y-72428570D02*
X114311961Y-72333332D01*
X114311961Y-72333332D02*
X114121485Y-72285713D01*
X114121485Y-72285713D02*
X113788152Y-72285713D01*
X113788152Y-72285713D02*
X113597676Y-72333332D01*
X113597676Y-72333332D02*
X113502438Y-72428570D01*
X113502438Y-72428570D02*
X113454819Y-72523808D01*
X114454819Y-73857141D02*
X114454819Y-73380951D01*
X114454819Y-73380951D02*
X113454819Y-73380951D01*
X113931009Y-74190475D02*
X113931009Y-74523808D01*
X114454819Y-74666665D02*
X114454819Y-74190475D01*
X114454819Y-74190475D02*
X113454819Y-74190475D01*
X113454819Y-74190475D02*
X113454819Y-74666665D01*
X114454819Y-75095237D02*
X113454819Y-75095237D01*
X113454819Y-75095237D02*
X113454819Y-75333332D01*
X113454819Y-75333332D02*
X113502438Y-75476189D01*
X113502438Y-75476189D02*
X113597676Y-75571427D01*
X113597676Y-75571427D02*
X113692914Y-75619046D01*
X113692914Y-75619046D02*
X113883390Y-75666665D01*
X113883390Y-75666665D02*
X114026247Y-75666665D01*
X114026247Y-75666665D02*
X114216723Y-75619046D01*
X114216723Y-75619046D02*
X114311961Y-75571427D01*
X114311961Y-75571427D02*
X114407200Y-75476189D01*
X114407200Y-75476189D02*
X114454819Y-75333332D01*
X114454819Y-75333332D02*
X114454819Y-75095237D01*
X113788152Y-77285713D02*
X114597676Y-77285713D01*
X114597676Y-77285713D02*
X114692914Y-77238094D01*
X114692914Y-77238094D02*
X114740533Y-77190475D01*
X114740533Y-77190475D02*
X114788152Y-77095237D01*
X114788152Y-77095237D02*
X114788152Y-76952380D01*
X114788152Y-76952380D02*
X114740533Y-76857142D01*
X114407200Y-77285713D02*
X114454819Y-77190475D01*
X114454819Y-77190475D02*
X114454819Y-76999999D01*
X114454819Y-76999999D02*
X114407200Y-76904761D01*
X114407200Y-76904761D02*
X114359580Y-76857142D01*
X114359580Y-76857142D02*
X114264342Y-76809523D01*
X114264342Y-76809523D02*
X113978628Y-76809523D01*
X113978628Y-76809523D02*
X113883390Y-76857142D01*
X113883390Y-76857142D02*
X113835771Y-76904761D01*
X113835771Y-76904761D02*
X113788152Y-76999999D01*
X113788152Y-76999999D02*
X113788152Y-77190475D01*
X113788152Y-77190475D02*
X113835771Y-77285713D01*
X114407200Y-78142856D02*
X114454819Y-78047618D01*
X114454819Y-78047618D02*
X114454819Y-77857142D01*
X114454819Y-77857142D02*
X114407200Y-77761904D01*
X114407200Y-77761904D02*
X114311961Y-77714285D01*
X114311961Y-77714285D02*
X113931009Y-77714285D01*
X113931009Y-77714285D02*
X113835771Y-77761904D01*
X113835771Y-77761904D02*
X113788152Y-77857142D01*
X113788152Y-77857142D02*
X113788152Y-78047618D01*
X113788152Y-78047618D02*
X113835771Y-78142856D01*
X113835771Y-78142856D02*
X113931009Y-78190475D01*
X113931009Y-78190475D02*
X114026247Y-78190475D01*
X114026247Y-78190475D02*
X114121485Y-77714285D01*
X114454819Y-79047618D02*
X113931009Y-79047618D01*
X113931009Y-79047618D02*
X113835771Y-78999999D01*
X113835771Y-78999999D02*
X113788152Y-78904761D01*
X113788152Y-78904761D02*
X113788152Y-78714285D01*
X113788152Y-78714285D02*
X113835771Y-78619047D01*
X114407200Y-79047618D02*
X114454819Y-78952380D01*
X114454819Y-78952380D02*
X114454819Y-78714285D01*
X114454819Y-78714285D02*
X114407200Y-78619047D01*
X114407200Y-78619047D02*
X114311961Y-78571428D01*
X114311961Y-78571428D02*
X114216723Y-78571428D01*
X114216723Y-78571428D02*
X114121485Y-78619047D01*
X114121485Y-78619047D02*
X114073866Y-78714285D01*
X114073866Y-78714285D02*
X114073866Y-78952380D01*
X114073866Y-78952380D02*
X114026247Y-79047618D01*
X114454819Y-79523809D02*
X113788152Y-79523809D01*
X113978628Y-79523809D02*
X113883390Y-79571428D01*
X113883390Y-79571428D02*
X113835771Y-79619047D01*
X113835771Y-79619047D02*
X113788152Y-79714285D01*
X113788152Y-79714285D02*
X113788152Y-79809523D01*
X114454819Y-81333333D02*
X113454819Y-81333333D01*
X114407200Y-81333333D02*
X114454819Y-81238095D01*
X114454819Y-81238095D02*
X114454819Y-81047619D01*
X114454819Y-81047619D02*
X114407200Y-80952381D01*
X114407200Y-80952381D02*
X114359580Y-80904762D01*
X114359580Y-80904762D02*
X114264342Y-80857143D01*
X114264342Y-80857143D02*
X113978628Y-80857143D01*
X113978628Y-80857143D02*
X113883390Y-80904762D01*
X113883390Y-80904762D02*
X113835771Y-80952381D01*
X113835771Y-80952381D02*
X113788152Y-81047619D01*
X113788152Y-81047619D02*
X113788152Y-81238095D01*
X113788152Y-81238095D02*
X113835771Y-81333333D01*
X114454819Y-81809524D02*
X113788152Y-81809524D01*
X113454819Y-81809524D02*
X113502438Y-81761905D01*
X113502438Y-81761905D02*
X113550057Y-81809524D01*
X113550057Y-81809524D02*
X113502438Y-81857143D01*
X113502438Y-81857143D02*
X113454819Y-81809524D01*
X113454819Y-81809524D02*
X113550057Y-81809524D01*
X114407200Y-82238095D02*
X114454819Y-82333333D01*
X114454819Y-82333333D02*
X114454819Y-82523809D01*
X114454819Y-82523809D02*
X114407200Y-82619047D01*
X114407200Y-82619047D02*
X114311961Y-82666666D01*
X114311961Y-82666666D02*
X114264342Y-82666666D01*
X114264342Y-82666666D02*
X114169104Y-82619047D01*
X114169104Y-82619047D02*
X114121485Y-82523809D01*
X114121485Y-82523809D02*
X114121485Y-82380952D01*
X114121485Y-82380952D02*
X114073866Y-82285714D01*
X114073866Y-82285714D02*
X113978628Y-82238095D01*
X113978628Y-82238095D02*
X113931009Y-82238095D01*
X113931009Y-82238095D02*
X113835771Y-82285714D01*
X113835771Y-82285714D02*
X113788152Y-82380952D01*
X113788152Y-82380952D02*
X113788152Y-82523809D01*
X113788152Y-82523809D02*
X113835771Y-82619047D01*
X113788152Y-83095238D02*
X114788152Y-83095238D01*
X113835771Y-83095238D02*
X113788152Y-83190476D01*
X113788152Y-83190476D02*
X113788152Y-83380952D01*
X113788152Y-83380952D02*
X113835771Y-83476190D01*
X113835771Y-83476190D02*
X113883390Y-83523809D01*
X113883390Y-83523809D02*
X113978628Y-83571428D01*
X113978628Y-83571428D02*
X114264342Y-83571428D01*
X114264342Y-83571428D02*
X114359580Y-83523809D01*
X114359580Y-83523809D02*
X114407200Y-83476190D01*
X114407200Y-83476190D02*
X114454819Y-83380952D01*
X114454819Y-83380952D02*
X114454819Y-83190476D01*
X114454819Y-83190476D02*
X114407200Y-83095238D01*
X114454819Y-84142857D02*
X114407200Y-84047619D01*
X114407200Y-84047619D02*
X114311961Y-84000000D01*
X114311961Y-84000000D02*
X113454819Y-84000000D01*
X114454819Y-84952381D02*
X113931009Y-84952381D01*
X113931009Y-84952381D02*
X113835771Y-84904762D01*
X113835771Y-84904762D02*
X113788152Y-84809524D01*
X113788152Y-84809524D02*
X113788152Y-84619048D01*
X113788152Y-84619048D02*
X113835771Y-84523810D01*
X114407200Y-84952381D02*
X114454819Y-84857143D01*
X114454819Y-84857143D02*
X114454819Y-84619048D01*
X114454819Y-84619048D02*
X114407200Y-84523810D01*
X114407200Y-84523810D02*
X114311961Y-84476191D01*
X114311961Y-84476191D02*
X114216723Y-84476191D01*
X114216723Y-84476191D02*
X114121485Y-84523810D01*
X114121485Y-84523810D02*
X114073866Y-84619048D01*
X114073866Y-84619048D02*
X114073866Y-84857143D01*
X114073866Y-84857143D02*
X114026247Y-84952381D01*
X113788152Y-85333334D02*
X114454819Y-85571429D01*
X113788152Y-85809524D02*
X114454819Y-85571429D01*
X114454819Y-85571429D02*
X114692914Y-85476191D01*
X114692914Y-85476191D02*
X114740533Y-85428572D01*
X114740533Y-85428572D02*
X114788152Y-85333334D01*
X114407200Y-86904763D02*
X114454819Y-87000001D01*
X114454819Y-87000001D02*
X114454819Y-87190477D01*
X114454819Y-87190477D02*
X114407200Y-87285715D01*
X114407200Y-87285715D02*
X114311961Y-87333334D01*
X114311961Y-87333334D02*
X114264342Y-87333334D01*
X114264342Y-87333334D02*
X114169104Y-87285715D01*
X114169104Y-87285715D02*
X114121485Y-87190477D01*
X114121485Y-87190477D02*
X114121485Y-87047620D01*
X114121485Y-87047620D02*
X114073866Y-86952382D01*
X114073866Y-86952382D02*
X113978628Y-86904763D01*
X113978628Y-86904763D02*
X113931009Y-86904763D01*
X113931009Y-86904763D02*
X113835771Y-86952382D01*
X113835771Y-86952382D02*
X113788152Y-87047620D01*
X113788152Y-87047620D02*
X113788152Y-87190477D01*
X113788152Y-87190477D02*
X113835771Y-87285715D01*
X114454819Y-87761906D02*
X113454819Y-87761906D01*
X114454819Y-88190477D02*
X113931009Y-88190477D01*
X113931009Y-88190477D02*
X113835771Y-88142858D01*
X113835771Y-88142858D02*
X113788152Y-88047620D01*
X113788152Y-88047620D02*
X113788152Y-87904763D01*
X113788152Y-87904763D02*
X113835771Y-87809525D01*
X113835771Y-87809525D02*
X113883390Y-87761906D01*
X114454819Y-88666668D02*
X113788152Y-88666668D01*
X113454819Y-88666668D02*
X113502438Y-88619049D01*
X113502438Y-88619049D02*
X113550057Y-88666668D01*
X113550057Y-88666668D02*
X113502438Y-88714287D01*
X113502438Y-88714287D02*
X113454819Y-88666668D01*
X113454819Y-88666668D02*
X113550057Y-88666668D01*
X114407200Y-89523810D02*
X114454819Y-89428572D01*
X114454819Y-89428572D02*
X114454819Y-89238096D01*
X114454819Y-89238096D02*
X114407200Y-89142858D01*
X114407200Y-89142858D02*
X114311961Y-89095239D01*
X114311961Y-89095239D02*
X113931009Y-89095239D01*
X113931009Y-89095239D02*
X113835771Y-89142858D01*
X113835771Y-89142858D02*
X113788152Y-89238096D01*
X113788152Y-89238096D02*
X113788152Y-89428572D01*
X113788152Y-89428572D02*
X113835771Y-89523810D01*
X113835771Y-89523810D02*
X113931009Y-89571429D01*
X113931009Y-89571429D02*
X114026247Y-89571429D01*
X114026247Y-89571429D02*
X114121485Y-89095239D01*
X114454819Y-90142858D02*
X114407200Y-90047620D01*
X114407200Y-90047620D02*
X114311961Y-90000001D01*
X114311961Y-90000001D02*
X113454819Y-90000001D01*
X114454819Y-90952382D02*
X113454819Y-90952382D01*
X114407200Y-90952382D02*
X114454819Y-90857144D01*
X114454819Y-90857144D02*
X114454819Y-90666668D01*
X114454819Y-90666668D02*
X114407200Y-90571430D01*
X114407200Y-90571430D02*
X114359580Y-90523811D01*
X114359580Y-90523811D02*
X114264342Y-90476192D01*
X114264342Y-90476192D02*
X113978628Y-90476192D01*
X113978628Y-90476192D02*
X113883390Y-90523811D01*
X113883390Y-90523811D02*
X113835771Y-90571430D01*
X113835771Y-90571430D02*
X113788152Y-90666668D01*
X113788152Y-90666668D02*
X113788152Y-90857144D01*
X113788152Y-90857144D02*
X113835771Y-90952382D01*
X113454819Y-92047621D02*
X114454819Y-92380954D01*
X114454819Y-92380954D02*
X113454819Y-92714287D01*
X113454819Y-93238097D02*
X113454819Y-93333335D01*
X113454819Y-93333335D02*
X113502438Y-93428573D01*
X113502438Y-93428573D02*
X113550057Y-93476192D01*
X113550057Y-93476192D02*
X113645295Y-93523811D01*
X113645295Y-93523811D02*
X113835771Y-93571430D01*
X113835771Y-93571430D02*
X114073866Y-93571430D01*
X114073866Y-93571430D02*
X114264342Y-93523811D01*
X114264342Y-93523811D02*
X114359580Y-93476192D01*
X114359580Y-93476192D02*
X114407200Y-93428573D01*
X114407200Y-93428573D02*
X114454819Y-93333335D01*
X114454819Y-93333335D02*
X114454819Y-93238097D01*
X114454819Y-93238097D02*
X114407200Y-93142859D01*
X114407200Y-93142859D02*
X114359580Y-93095240D01*
X114359580Y-93095240D02*
X114264342Y-93047621D01*
X114264342Y-93047621D02*
X114073866Y-93000002D01*
X114073866Y-93000002D02*
X113835771Y-93000002D01*
X113835771Y-93000002D02*
X113645295Y-93047621D01*
X113645295Y-93047621D02*
X113550057Y-93095240D01*
X113550057Y-93095240D02*
X113502438Y-93142859D01*
X113502438Y-93142859D02*
X113454819Y-93238097D01*
X113454819Y-94190478D02*
X113454819Y-94285716D01*
X113454819Y-94285716D02*
X113502438Y-94380954D01*
X113502438Y-94380954D02*
X113550057Y-94428573D01*
X113550057Y-94428573D02*
X113645295Y-94476192D01*
X113645295Y-94476192D02*
X113835771Y-94523811D01*
X113835771Y-94523811D02*
X114073866Y-94523811D01*
X114073866Y-94523811D02*
X114264342Y-94476192D01*
X114264342Y-94476192D02*
X114359580Y-94428573D01*
X114359580Y-94428573D02*
X114407200Y-94380954D01*
X114407200Y-94380954D02*
X114454819Y-94285716D01*
X114454819Y-94285716D02*
X114454819Y-94190478D01*
X114454819Y-94190478D02*
X114407200Y-94095240D01*
X114407200Y-94095240D02*
X114359580Y-94047621D01*
X114359580Y-94047621D02*
X114264342Y-94000002D01*
X114264342Y-94000002D02*
X114073866Y-93952383D01*
X114073866Y-93952383D02*
X113835771Y-93952383D01*
X113835771Y-93952383D02*
X113645295Y-94000002D01*
X113645295Y-94000002D02*
X113550057Y-94047621D01*
X113550057Y-94047621D02*
X113502438Y-94095240D01*
X113502438Y-94095240D02*
X113454819Y-94190478D01*
X113550057Y-94904764D02*
X113502438Y-94952383D01*
X113502438Y-94952383D02*
X113454819Y-95047621D01*
X113454819Y-95047621D02*
X113454819Y-95285716D01*
X113454819Y-95285716D02*
X113502438Y-95380954D01*
X113502438Y-95380954D02*
X113550057Y-95428573D01*
X113550057Y-95428573D02*
X113645295Y-95476192D01*
X113645295Y-95476192D02*
X113740533Y-95476192D01*
X113740533Y-95476192D02*
X113883390Y-95428573D01*
X113883390Y-95428573D02*
X114454819Y-94857145D01*
X114454819Y-94857145D02*
X114454819Y-95476192D01*
D11*
%TO.C,P1*%
X106380000Y-57670000D02*
X105050000Y-57670000D01*
X105050000Y-57670000D02*
X105050000Y-59000000D01*
X107710000Y-98430000D02*
X105050000Y-98430000D01*
X105050000Y-60270000D02*
X105050000Y-98430000D01*
X107710000Y-60270000D02*
X105050000Y-60270000D01*
X107710000Y-60270000D02*
X107710000Y-98430000D01*
%TO.C,P2*%
X121620000Y-57670000D02*
X120290000Y-57670000D01*
X120290000Y-57670000D02*
X120290000Y-59000000D01*
X122950000Y-98430000D02*
X120290000Y-98430000D01*
X120290000Y-60270000D02*
X120290000Y-98430000D01*
X122950000Y-60270000D02*
X120290000Y-60270000D01*
X122950000Y-60270000D02*
X122950000Y-98430000D01*
%TD*%
M02*
