%TF.GenerationSoftware,KiCad,Pcbnew,7.0.11+dfsg-1build4*%
%TF.CreationDate,2026-09-27T07:55:07+00:00*%
%TF.ProjectId,canduino_oled_shield_V001,63616e64-7569-46e6-9f5f-6f6c65645f73,V001*%
%TF.SameCoordinates,Original*%
%TF.FileFunction,Legend,Bot*%
%TF.FilePolarity,Positive*%
%FSLAX46Y46*%
G04 Gerber Fmt 4.6, Leading zero omitted, Abs format (unit mm)*
G04 Created by KiCad (PCBNEW 7.0.11+dfsg-1build4) date 2026-09-27 07:55:07*
%MOMM*%
%LPD*%
G01*
G04 APERTURE LIST*
%ADD10C,0.150000*%
%ADD11C,0.120000*%
G04 APERTURE END LIST*
D10*
X114359580Y-63142855D02*
X114407200Y-63095236D01*
X114407200Y-63095236D02*
X114454819Y-62952379D01*
X114454819Y-62952379D02*
X114454819Y-62857141D01*
X114454819Y-62857141D02*
X114407200Y-62714284D01*
X114407200Y-62714284D02*
X114311961Y-62619046D01*
X114311961Y-62619046D02*
X114216723Y-62571427D01*
X114216723Y-62571427D02*
X114026247Y-62523808D01*
X114026247Y-62523808D02*
X113883390Y-62523808D01*
X113883390Y-62523808D02*
X113692914Y-62571427D01*
X113692914Y-62571427D02*
X113597676Y-62619046D01*
X113597676Y-62619046D02*
X113502438Y-62714284D01*
X113502438Y-62714284D02*
X113454819Y-62857141D01*
X113454819Y-62857141D02*
X113454819Y-62952379D01*
X113454819Y-62952379D02*
X113502438Y-63095236D01*
X113502438Y-63095236D02*
X113550057Y-63142855D01*
X114169104Y-63523808D02*
X114169104Y-63999998D01*
X114454819Y-63428570D02*
X113454819Y-63761903D01*
X113454819Y-63761903D02*
X114454819Y-64095236D01*
X114454819Y-64428570D02*
X113454819Y-64428570D01*
X113454819Y-64428570D02*
X114454819Y-64999998D01*
X114454819Y-64999998D02*
X113454819Y-64999998D01*
X114454819Y-65904760D02*
X113454819Y-65904760D01*
X114407200Y-65904760D02*
X114454819Y-65809522D01*
X114454819Y-65809522D02*
X114454819Y-65619046D01*
X114454819Y-65619046D02*
X114407200Y-65523808D01*
X114407200Y-65523808D02*
X114359580Y-65476189D01*
X114359580Y-65476189D02*
X114264342Y-65428570D01*
X114264342Y-65428570D02*
X113978628Y-65428570D01*
X113978628Y-65428570D02*
X113883390Y-65476189D01*
X113883390Y-65476189D02*
X113835771Y-65523808D01*
X113835771Y-65523808D02*
X113788152Y-65619046D01*
X113788152Y-65619046D02*
X113788152Y-65809522D01*
X113788152Y-65809522D02*
X113835771Y-65904760D01*
X113788152Y-66809522D02*
X114454819Y-66809522D01*
X113788152Y-66380951D02*
X114311961Y-66380951D01*
X114311961Y-66380951D02*
X114407200Y-66428570D01*
X114407200Y-66428570D02*
X114454819Y-66523808D01*
X114454819Y-66523808D02*
X114454819Y-66666665D01*
X114454819Y-66666665D02*
X114407200Y-66761903D01*
X114407200Y-66761903D02*
X114359580Y-66809522D01*
X114454819Y-67285713D02*
X113788152Y-67285713D01*
X113454819Y-67285713D02*
X113502438Y-67238094D01*
X113502438Y-67238094D02*
X113550057Y-67285713D01*
X113550057Y-67285713D02*
X113502438Y-67333332D01*
X113502438Y-67333332D02*
X113454819Y-67285713D01*
X113454819Y-67285713D02*
X113550057Y-67285713D01*
X113788152Y-67761903D02*
X114454819Y-67761903D01*
X113883390Y-67761903D02*
X113835771Y-67809522D01*
X113835771Y-67809522D02*
X113788152Y-67904760D01*
X113788152Y-67904760D02*
X113788152Y-68047617D01*
X113788152Y-68047617D02*
X113835771Y-68142855D01*
X113835771Y-68142855D02*
X113931009Y-68190474D01*
X113931009Y-68190474D02*
X114454819Y-68190474D01*
X114454819Y-68809522D02*
X114407200Y-68714284D01*
X114407200Y-68714284D02*
X114359580Y-68666665D01*
X114359580Y-68666665D02*
X114264342Y-68619046D01*
X114264342Y-68619046D02*
X113978628Y-68619046D01*
X113978628Y-68619046D02*
X113883390Y-68666665D01*
X113883390Y-68666665D02*
X113835771Y-68714284D01*
X113835771Y-68714284D02*
X113788152Y-68809522D01*
X113788152Y-68809522D02*
X113788152Y-68952379D01*
X113788152Y-68952379D02*
X113835771Y-69047617D01*
X113835771Y-69047617D02*
X113883390Y-69095236D01*
X113883390Y-69095236D02*
X113978628Y-69142855D01*
X113978628Y-69142855D02*
X114264342Y-69142855D01*
X114264342Y-69142855D02*
X114359580Y-69095236D01*
X114359580Y-69095236D02*
X114407200Y-69047617D01*
X114407200Y-69047617D02*
X114454819Y-68952379D01*
X114454819Y-68952379D02*
X114454819Y-68809522D01*
X113454819Y-70523808D02*
X113454819Y-70714284D01*
X113454819Y-70714284D02*
X113502438Y-70809522D01*
X113502438Y-70809522D02*
X113597676Y-70904760D01*
X113597676Y-70904760D02*
X113788152Y-70952379D01*
X113788152Y-70952379D02*
X114121485Y-70952379D01*
X114121485Y-70952379D02*
X114311961Y-70904760D01*
X114311961Y-70904760D02*
X114407200Y-70809522D01*
X114407200Y-70809522D02*
X114454819Y-70714284D01*
X114454819Y-70714284D02*
X114454819Y-70523808D01*
X114454819Y-70523808D02*
X114407200Y-70428570D01*
X114407200Y-70428570D02*
X114311961Y-70333332D01*
X114311961Y-70333332D02*
X114121485Y-70285713D01*
X114121485Y-70285713D02*
X113788152Y-70285713D01*
X113788152Y-70285713D02*
X113597676Y-70333332D01*
X113597676Y-70333332D02*
X113502438Y-70428570D01*
X113502438Y-70428570D02*
X113454819Y-70523808D01*
X114454819Y-71857141D02*
X114454819Y-71380951D01*
X114454819Y-71380951D02*
X113454819Y-71380951D01*
X113931009Y-72190475D02*
X113931009Y-72523808D01*
X114454819Y-72666665D02*
X114454819Y-72190475D01*
X114454819Y-72190475D02*
X113454819Y-72190475D01*
X113454819Y-72190475D02*
X113454819Y-72666665D01*
X114454819Y-73095237D02*
X113454819Y-73095237D01*
X113454819Y-73095237D02*
X113454819Y-73333332D01*
X113454819Y-73333332D02*
X113502438Y-73476189D01*
X113502438Y-73476189D02*
X113597676Y-73571427D01*
X113597676Y-73571427D02*
X113692914Y-73619046D01*
X113692914Y-73619046D02*
X113883390Y-73666665D01*
X113883390Y-73666665D02*
X114026247Y-73666665D01*
X114026247Y-73666665D02*
X114216723Y-73619046D01*
X114216723Y-73619046D02*
X114311961Y-73571427D01*
X114311961Y-73571427D02*
X114407200Y-73476189D01*
X114407200Y-73476189D02*
X114454819Y-73333332D01*
X114454819Y-73333332D02*
X114454819Y-73095237D01*
X113788152Y-75285713D02*
X114597676Y-75285713D01*
X114597676Y-75285713D02*
X114692914Y-75238094D01*
X114692914Y-75238094D02*
X114740533Y-75190475D01*
X114740533Y-75190475D02*
X114788152Y-75095237D01*
X114788152Y-75095237D02*
X114788152Y-74952380D01*
X114788152Y-74952380D02*
X114740533Y-74857142D01*
X114407200Y-75285713D02*
X114454819Y-75190475D01*
X114454819Y-75190475D02*
X114454819Y-74999999D01*
X114454819Y-74999999D02*
X114407200Y-74904761D01*
X114407200Y-74904761D02*
X114359580Y-74857142D01*
X114359580Y-74857142D02*
X114264342Y-74809523D01*
X114264342Y-74809523D02*
X113978628Y-74809523D01*
X113978628Y-74809523D02*
X113883390Y-74857142D01*
X113883390Y-74857142D02*
X113835771Y-74904761D01*
X113835771Y-74904761D02*
X113788152Y-74999999D01*
X113788152Y-74999999D02*
X113788152Y-75190475D01*
X113788152Y-75190475D02*
X113835771Y-75285713D01*
X114407200Y-76142856D02*
X114454819Y-76047618D01*
X114454819Y-76047618D02*
X114454819Y-75857142D01*
X114454819Y-75857142D02*
X114407200Y-75761904D01*
X114407200Y-75761904D02*
X114311961Y-75714285D01*
X114311961Y-75714285D02*
X113931009Y-75714285D01*
X113931009Y-75714285D02*
X113835771Y-75761904D01*
X113835771Y-75761904D02*
X113788152Y-75857142D01*
X113788152Y-75857142D02*
X113788152Y-76047618D01*
X113788152Y-76047618D02*
X113835771Y-76142856D01*
X113835771Y-76142856D02*
X113931009Y-76190475D01*
X113931009Y-76190475D02*
X114026247Y-76190475D01*
X114026247Y-76190475D02*
X114121485Y-75714285D01*
X114454819Y-77047618D02*
X113931009Y-77047618D01*
X113931009Y-77047618D02*
X113835771Y-76999999D01*
X113835771Y-76999999D02*
X113788152Y-76904761D01*
X113788152Y-76904761D02*
X113788152Y-76714285D01*
X113788152Y-76714285D02*
X113835771Y-76619047D01*
X114407200Y-77047618D02*
X114454819Y-76952380D01*
X114454819Y-76952380D02*
X114454819Y-76714285D01*
X114454819Y-76714285D02*
X114407200Y-76619047D01*
X114407200Y-76619047D02*
X114311961Y-76571428D01*
X114311961Y-76571428D02*
X114216723Y-76571428D01*
X114216723Y-76571428D02*
X114121485Y-76619047D01*
X114121485Y-76619047D02*
X114073866Y-76714285D01*
X114073866Y-76714285D02*
X114073866Y-76952380D01*
X114073866Y-76952380D02*
X114026247Y-77047618D01*
X114454819Y-77523809D02*
X113788152Y-77523809D01*
X113978628Y-77523809D02*
X113883390Y-77571428D01*
X113883390Y-77571428D02*
X113835771Y-77619047D01*
X113835771Y-77619047D02*
X113788152Y-77714285D01*
X113788152Y-77714285D02*
X113788152Y-77809523D01*
X114454819Y-79333333D02*
X113454819Y-79333333D01*
X114407200Y-79333333D02*
X114454819Y-79238095D01*
X114454819Y-79238095D02*
X114454819Y-79047619D01*
X114454819Y-79047619D02*
X114407200Y-78952381D01*
X114407200Y-78952381D02*
X114359580Y-78904762D01*
X114359580Y-78904762D02*
X114264342Y-78857143D01*
X114264342Y-78857143D02*
X113978628Y-78857143D01*
X113978628Y-78857143D02*
X113883390Y-78904762D01*
X113883390Y-78904762D02*
X113835771Y-78952381D01*
X113835771Y-78952381D02*
X113788152Y-79047619D01*
X113788152Y-79047619D02*
X113788152Y-79238095D01*
X113788152Y-79238095D02*
X113835771Y-79333333D01*
X114454819Y-79809524D02*
X113788152Y-79809524D01*
X113454819Y-79809524D02*
X113502438Y-79761905D01*
X113502438Y-79761905D02*
X113550057Y-79809524D01*
X113550057Y-79809524D02*
X113502438Y-79857143D01*
X113502438Y-79857143D02*
X113454819Y-79809524D01*
X113454819Y-79809524D02*
X113550057Y-79809524D01*
X114407200Y-80238095D02*
X114454819Y-80333333D01*
X114454819Y-80333333D02*
X114454819Y-80523809D01*
X114454819Y-80523809D02*
X114407200Y-80619047D01*
X114407200Y-80619047D02*
X114311961Y-80666666D01*
X114311961Y-80666666D02*
X114264342Y-80666666D01*
X114264342Y-80666666D02*
X114169104Y-80619047D01*
X114169104Y-80619047D02*
X114121485Y-80523809D01*
X114121485Y-80523809D02*
X114121485Y-80380952D01*
X114121485Y-80380952D02*
X114073866Y-80285714D01*
X114073866Y-80285714D02*
X113978628Y-80238095D01*
X113978628Y-80238095D02*
X113931009Y-80238095D01*
X113931009Y-80238095D02*
X113835771Y-80285714D01*
X113835771Y-80285714D02*
X113788152Y-80380952D01*
X113788152Y-80380952D02*
X113788152Y-80523809D01*
X113788152Y-80523809D02*
X113835771Y-80619047D01*
X113788152Y-81095238D02*
X114788152Y-81095238D01*
X113835771Y-81095238D02*
X113788152Y-81190476D01*
X113788152Y-81190476D02*
X113788152Y-81380952D01*
X113788152Y-81380952D02*
X113835771Y-81476190D01*
X113835771Y-81476190D02*
X113883390Y-81523809D01*
X113883390Y-81523809D02*
X113978628Y-81571428D01*
X113978628Y-81571428D02*
X114264342Y-81571428D01*
X114264342Y-81571428D02*
X114359580Y-81523809D01*
X114359580Y-81523809D02*
X114407200Y-81476190D01*
X114407200Y-81476190D02*
X114454819Y-81380952D01*
X114454819Y-81380952D02*
X114454819Y-81190476D01*
X114454819Y-81190476D02*
X114407200Y-81095238D01*
X114454819Y-82142857D02*
X114407200Y-82047619D01*
X114407200Y-82047619D02*
X114311961Y-82000000D01*
X114311961Y-82000000D02*
X113454819Y-82000000D01*
X114454819Y-82952381D02*
X113931009Y-82952381D01*
X113931009Y-82952381D02*
X113835771Y-82904762D01*
X113835771Y-82904762D02*
X113788152Y-82809524D01*
X113788152Y-82809524D02*
X113788152Y-82619048D01*
X113788152Y-82619048D02*
X113835771Y-82523810D01*
X114407200Y-82952381D02*
X114454819Y-82857143D01*
X114454819Y-82857143D02*
X114454819Y-82619048D01*
X114454819Y-82619048D02*
X114407200Y-82523810D01*
X114407200Y-82523810D02*
X114311961Y-82476191D01*
X114311961Y-82476191D02*
X114216723Y-82476191D01*
X114216723Y-82476191D02*
X114121485Y-82523810D01*
X114121485Y-82523810D02*
X114073866Y-82619048D01*
X114073866Y-82619048D02*
X114073866Y-82857143D01*
X114073866Y-82857143D02*
X114026247Y-82952381D01*
X113788152Y-83333334D02*
X114454819Y-83571429D01*
X113788152Y-83809524D02*
X114454819Y-83571429D01*
X114454819Y-83571429D02*
X114692914Y-83476191D01*
X114692914Y-83476191D02*
X114740533Y-83428572D01*
X114740533Y-83428572D02*
X114788152Y-83333334D01*
X114407200Y-84904763D02*
X114454819Y-85000001D01*
X114454819Y-85000001D02*
X114454819Y-85190477D01*
X114454819Y-85190477D02*
X114407200Y-85285715D01*
X114407200Y-85285715D02*
X114311961Y-85333334D01*
X114311961Y-85333334D02*
X114264342Y-85333334D01*
X114264342Y-85333334D02*
X114169104Y-85285715D01*
X114169104Y-85285715D02*
X114121485Y-85190477D01*
X114121485Y-85190477D02*
X114121485Y-85047620D01*
X114121485Y-85047620D02*
X114073866Y-84952382D01*
X114073866Y-84952382D02*
X113978628Y-84904763D01*
X113978628Y-84904763D02*
X113931009Y-84904763D01*
X113931009Y-84904763D02*
X113835771Y-84952382D01*
X113835771Y-84952382D02*
X113788152Y-85047620D01*
X113788152Y-85047620D02*
X113788152Y-85190477D01*
X113788152Y-85190477D02*
X113835771Y-85285715D01*
X114454819Y-85761906D02*
X113454819Y-85761906D01*
X114454819Y-86190477D02*
X113931009Y-86190477D01*
X113931009Y-86190477D02*
X113835771Y-86142858D01*
X113835771Y-86142858D02*
X113788152Y-86047620D01*
X113788152Y-86047620D02*
X113788152Y-85904763D01*
X113788152Y-85904763D02*
X113835771Y-85809525D01*
X113835771Y-85809525D02*
X113883390Y-85761906D01*
X114454819Y-86666668D02*
X113788152Y-86666668D01*
X113454819Y-86666668D02*
X113502438Y-86619049D01*
X113502438Y-86619049D02*
X113550057Y-86666668D01*
X113550057Y-86666668D02*
X113502438Y-86714287D01*
X113502438Y-86714287D02*
X113454819Y-86666668D01*
X113454819Y-86666668D02*
X113550057Y-86666668D01*
X114407200Y-87523810D02*
X114454819Y-87428572D01*
X114454819Y-87428572D02*
X114454819Y-87238096D01*
X114454819Y-87238096D02*
X114407200Y-87142858D01*
X114407200Y-87142858D02*
X114311961Y-87095239D01*
X114311961Y-87095239D02*
X113931009Y-87095239D01*
X113931009Y-87095239D02*
X113835771Y-87142858D01*
X113835771Y-87142858D02*
X113788152Y-87238096D01*
X113788152Y-87238096D02*
X113788152Y-87428572D01*
X113788152Y-87428572D02*
X113835771Y-87523810D01*
X113835771Y-87523810D02*
X113931009Y-87571429D01*
X113931009Y-87571429D02*
X114026247Y-87571429D01*
X114026247Y-87571429D02*
X114121485Y-87095239D01*
X114454819Y-88142858D02*
X114407200Y-88047620D01*
X114407200Y-88047620D02*
X114311961Y-88000001D01*
X114311961Y-88000001D02*
X113454819Y-88000001D01*
X114454819Y-88952382D02*
X113454819Y-88952382D01*
X114407200Y-88952382D02*
X114454819Y-88857144D01*
X114454819Y-88857144D02*
X114454819Y-88666668D01*
X114454819Y-88666668D02*
X114407200Y-88571430D01*
X114407200Y-88571430D02*
X114359580Y-88523811D01*
X114359580Y-88523811D02*
X114264342Y-88476192D01*
X114264342Y-88476192D02*
X113978628Y-88476192D01*
X113978628Y-88476192D02*
X113883390Y-88523811D01*
X113883390Y-88523811D02*
X113835771Y-88571430D01*
X113835771Y-88571430D02*
X113788152Y-88666668D01*
X113788152Y-88666668D02*
X113788152Y-88857144D01*
X113788152Y-88857144D02*
X113835771Y-88952382D01*
X113454819Y-90047621D02*
X114454819Y-90380954D01*
X114454819Y-90380954D02*
X113454819Y-90714287D01*
X113454819Y-91238097D02*
X113454819Y-91333335D01*
X113454819Y-91333335D02*
X113502438Y-91428573D01*
X113502438Y-91428573D02*
X113550057Y-91476192D01*
X113550057Y-91476192D02*
X113645295Y-91523811D01*
X113645295Y-91523811D02*
X113835771Y-91571430D01*
X113835771Y-91571430D02*
X114073866Y-91571430D01*
X114073866Y-91571430D02*
X114264342Y-91523811D01*
X114264342Y-91523811D02*
X114359580Y-91476192D01*
X114359580Y-91476192D02*
X114407200Y-91428573D01*
X114407200Y-91428573D02*
X114454819Y-91333335D01*
X114454819Y-91333335D02*
X114454819Y-91238097D01*
X114454819Y-91238097D02*
X114407200Y-91142859D01*
X114407200Y-91142859D02*
X114359580Y-91095240D01*
X114359580Y-91095240D02*
X114264342Y-91047621D01*
X114264342Y-91047621D02*
X114073866Y-91000002D01*
X114073866Y-91000002D02*
X113835771Y-91000002D01*
X113835771Y-91000002D02*
X113645295Y-91047621D01*
X113645295Y-91047621D02*
X113550057Y-91095240D01*
X113550057Y-91095240D02*
X113502438Y-91142859D01*
X113502438Y-91142859D02*
X113454819Y-91238097D01*
X113454819Y-92190478D02*
X113454819Y-92285716D01*
X113454819Y-92285716D02*
X113502438Y-92380954D01*
X113502438Y-92380954D02*
X113550057Y-92428573D01*
X113550057Y-92428573D02*
X113645295Y-92476192D01*
X113645295Y-92476192D02*
X113835771Y-92523811D01*
X113835771Y-92523811D02*
X114073866Y-92523811D01*
X114073866Y-92523811D02*
X114264342Y-92476192D01*
X114264342Y-92476192D02*
X114359580Y-92428573D01*
X114359580Y-92428573D02*
X114407200Y-92380954D01*
X114407200Y-92380954D02*
X114454819Y-92285716D01*
X114454819Y-92285716D02*
X114454819Y-92190478D01*
X114454819Y-92190478D02*
X114407200Y-92095240D01*
X114407200Y-92095240D02*
X114359580Y-92047621D01*
X114359580Y-92047621D02*
X114264342Y-92000002D01*
X114264342Y-92000002D02*
X114073866Y-91952383D01*
X114073866Y-91952383D02*
X113835771Y-91952383D01*
X113835771Y-91952383D02*
X113645295Y-92000002D01*
X113645295Y-92000002D02*
X113550057Y-92047621D01*
X113550057Y-92047621D02*
X113502438Y-92095240D01*
X113502438Y-92095240D02*
X113454819Y-92190478D01*
X114454819Y-93476192D02*
X114454819Y-92904764D01*
X114454819Y-93190478D02*
X113454819Y-93190478D01*
X113454819Y-93190478D02*
X113597676Y-93095240D01*
X113597676Y-93095240D02*
X113692914Y-93000002D01*
X113692914Y-93000002D02*
X113740533Y-92904764D01*
D11*
%TO.C,P1*%
X106380000Y-57670000D02*
X105050000Y-57670000D01*
X105050000Y-57670000D02*
X105050000Y-59000000D01*
X107710000Y-98430000D02*
X105050000Y-98430000D01*
X105050000Y-60270000D02*
X105050000Y-98430000D01*
X107710000Y-60270000D02*
X105050000Y-60270000D01*
X107710000Y-60270000D02*
X107710000Y-98430000D01*
%TO.C,P2*%
X121620000Y-57670000D02*
X120290000Y-57670000D01*
X120290000Y-57670000D02*
X120290000Y-59000000D01*
X122950000Y-98430000D02*
X120290000Y-98430000D01*
X120290000Y-60270000D02*
X120290000Y-98430000D01*
X122950000Y-60270000D02*
X120290000Y-60270000D01*
X122950000Y-60270000D02*
X122950000Y-98430000D01*
%TD*%
M02*
