M48
; DRILL file {KiCad 7.0.11+dfsg-1build4} date Sun Sep 27 08:57:37 2026
; FORMAT={-:-/ absolute / metric / decimal}
; #@! TF.CreationDate,2026-09-27T08:57:37+00:00
; #@! TF.GenerationSoftware,Kicad,Pcbnew,7.0.11+dfsg-1build4
; #@! TF.FileFunction,MixedPlating,1,2
FMAT,2
METRIC
; #@! TA.AperFunction,Plated,PTH,ViaDrill
T1C0.400
; #@! TA.AperFunction,Plated,PTH,ComponentDrill
T2C0.800
; #@! TA.AperFunction,Plated,PTH,ComponentDrill
T3C0.950
; #@! TA.AperFunction,Plated,PTH,ComponentDrill
T4C1.000
%
G90
G05
T1
X108.1Y-94.1
X109.1Y-74.9
X110.3Y-70.5
X110.5Y-92.5
X111.3Y-69.9
X111.7Y-91.5
X112.7Y-86.9
X112.9Y-93.5
X113.9Y-89.3
X115.5Y-91.3
X116.5Y-92.5
X118.3Y-109.9
X118.9Y-92.1
X118.9Y-94.5
X119.7Y-98.7
X122.1Y-98.7
X124.5Y-75.1
X124.7Y-86.3
X124.7Y-90.5
T2
X110.0Y-83.0
X110.0Y-85.54
X117.62Y-83.0
X117.62Y-85.54
T3
X105.25Y-113.5
X107.75Y-113.5
X110.25Y-52.5
X110.25Y-113.5
X112.75Y-52.5
X112.75Y-113.5
X115.25Y-52.5
X115.25Y-113.5
X117.75Y-52.5
X117.75Y-113.5
X120.25Y-113.5
X122.75Y-113.5
T4
X106.38Y-59.0
X106.38Y-61.54
X106.38Y-64.08
X106.38Y-66.62
X106.38Y-69.16
X106.38Y-71.7
X106.38Y-74.24
X106.38Y-76.78
X106.38Y-79.32
X106.38Y-81.86
X106.38Y-84.4
X106.38Y-86.94
X106.38Y-89.48
X106.38Y-92.02
X106.38Y-94.56
X106.38Y-97.1
X110.5Y-64.5
X110.5Y-73.5
X113.0Y-69.5
X113.0Y-78.5
X115.5Y-64.5
X115.5Y-73.5
X121.62Y-59.0
X121.62Y-61.54
X121.62Y-64.08
X121.62Y-66.62
X121.62Y-69.16
X121.62Y-71.7
X121.62Y-74.24
X121.62Y-76.78
X121.62Y-79.32
X121.62Y-81.86
X121.62Y-84.4
X121.62Y-86.94
X121.62Y-89.48
X121.62Y-92.02
X121.62Y-94.56
X121.62Y-97.1
M30
