%TF.GenerationSoftware,KiCad,Pcbnew,7.0.11+dfsg-1build4*%
%TF.CreationDate,2026-09-26T21:49:07+00:00*%
%TF.ProjectId,canduino_oled_shield_V000,63616e64-7569-46e6-9f5f-6f6c65645f73,V000*%
%TF.SameCoordinates,Original*%
%TF.FileFunction,Drillmap*%
%TF.FilePolarity,Positive*%
%FSLAX45Y45*%
G04 Gerber Fmt 4.5, Leading zero omitted, Abs format (unit mm)*
G04 Created by KiCad (PCBNEW 7.0.11+dfsg-1build4) date 2026-09-26 21:49:07*
%MOMM*%
%LPD*%
G01*
G04 APERTURE LIST*
%ADD10C,0.100000*%
%ADD11C,0.200000*%
G04 APERTURE END LIST*
D10*
X10200000Y-5000000D02*
X12600000Y-5000000D01*
X12800000Y-5200000D02*
X12800000Y-11000000D01*
X12600000Y-11200000D02*
X10200000Y-11200000D01*
X10000000Y-11000000D02*
X10000000Y-5200000D01*
X10200000Y-5000000D02*
G75*
G03*
X10000000Y-5200000I0J-200000D01*
G01*
X12800000Y-5200000D02*
G75*
G03*
X12600000Y-5000000I-200000J0D01*
G01*
X12600000Y-11200000D02*
G75*
G03*
X12800000Y-11000000I0J200000D01*
G01*
X10000000Y-11000000D02*
G75*
G03*
X10200000Y-11200000I200000J0D01*
G01*
D11*
D10*
X10790000Y-9390000D02*
X10830000Y-9430000D01*
X10830000Y-9390000D02*
X10790000Y-9430000D01*
X10890000Y-7430000D02*
X10930000Y-7470000D01*
X10930000Y-7430000D02*
X10890000Y-7470000D01*
X11030000Y-9130000D02*
X11070000Y-9170000D01*
X11070000Y-9130000D02*
X11030000Y-9170000D01*
X11150000Y-9030000D02*
X11190000Y-9070000D01*
X11190000Y-9030000D02*
X11150000Y-9070000D01*
X11250000Y-8630000D02*
X11290000Y-8670000D01*
X11290000Y-8630000D02*
X11250000Y-8670000D01*
X11270000Y-9230000D02*
X11310000Y-9270000D01*
X11310000Y-9230000D02*
X11270000Y-9270000D01*
X11350000Y-6530000D02*
X11390000Y-6570000D01*
X11390000Y-6530000D02*
X11350000Y-6570000D01*
X11370000Y-8810000D02*
X11410000Y-8850000D01*
X11410000Y-8810000D02*
X11370000Y-8850000D01*
X11630000Y-9130000D02*
X11670000Y-9170000D01*
X11670000Y-9130000D02*
X11630000Y-9170000D01*
X11730000Y-10650000D02*
X11770000Y-10690000D01*
X11770000Y-10650000D02*
X11730000Y-10690000D01*
X11870000Y-9090000D02*
X11910000Y-9130000D01*
X11910000Y-9090000D02*
X11870000Y-9130000D01*
X11870000Y-9330000D02*
X11910000Y-9370000D01*
X11910000Y-9330000D02*
X11870000Y-9370000D01*
X11950000Y-9850000D02*
X11990000Y-9890000D01*
X11990000Y-9850000D02*
X11950000Y-9890000D01*
X12190000Y-9850000D02*
X12230000Y-9890000D01*
X12230000Y-9850000D02*
X12190000Y-9890000D01*
X12430000Y-7490000D02*
X12470000Y-7530000D01*
X12470000Y-7490000D02*
X12430000Y-7530000D01*
X12450000Y-8610000D02*
X12490000Y-8650000D01*
X12490000Y-8610000D02*
X12450000Y-8650000D01*
X12450000Y-9030000D02*
X12490000Y-9070000D01*
X12490000Y-9030000D02*
X12450000Y-9070000D01*
X11040000Y-8200000D02*
G75*
G03*
X10960000Y-8200000I-40000J0D01*
G01*
X10960000Y-8200000D02*
G75*
G03*
X11040000Y-8200000I40000J0D01*
G01*
X11040000Y-8454000D02*
G75*
G03*
X10960000Y-8454000I-40000J0D01*
G01*
X10960000Y-8454000D02*
G75*
G03*
X11040000Y-8454000I40000J0D01*
G01*
X11802000Y-8200000D02*
G75*
G03*
X11722000Y-8200000I-40000J0D01*
G01*
X11722000Y-8200000D02*
G75*
G03*
X11802000Y-8200000I40000J0D01*
G01*
X11802000Y-8454000D02*
G75*
G03*
X11722000Y-8454000I-40000J0D01*
G01*
X11722000Y-8454000D02*
G75*
G03*
X11802000Y-8454000I40000J0D01*
G01*
X10525000Y-10902500D02*
X10525000Y-10997500D01*
X10477500Y-10950000D02*
X10572500Y-10950000D01*
X10775000Y-10902500D02*
X10775000Y-10997500D01*
X10727500Y-10950000D02*
X10822500Y-10950000D01*
X11025000Y-10902500D02*
X11025000Y-10997500D01*
X10977500Y-10950000D02*
X11072500Y-10950000D01*
X11275000Y-10902500D02*
X11275000Y-10997500D01*
X11227500Y-10950000D02*
X11322500Y-10950000D01*
X11525000Y-10902500D02*
X11525000Y-10997500D01*
X11477500Y-10950000D02*
X11572500Y-10950000D01*
X11775000Y-10902500D02*
X11775000Y-10997500D01*
X11727500Y-10950000D02*
X11822500Y-10950000D01*
X12025000Y-10902500D02*
X12025000Y-10997500D01*
X11977500Y-10950000D02*
X12072500Y-10950000D01*
X12275000Y-10902500D02*
X12275000Y-10997500D01*
X12227500Y-10950000D02*
X12322500Y-10950000D01*
X10673356Y-5935356D02*
X10673356Y-5864644D01*
X10602644Y-5864644D01*
X10602644Y-5935356D01*
X10673356Y-5935356D01*
X10673356Y-6189356D02*
X10673356Y-6118644D01*
X10602644Y-6118644D01*
X10602644Y-6189356D01*
X10673356Y-6189356D01*
X10673356Y-6443356D02*
X10673356Y-6372644D01*
X10602644Y-6372644D01*
X10602644Y-6443356D01*
X10673356Y-6443356D01*
X10673356Y-6697356D02*
X10673356Y-6626644D01*
X10602644Y-6626644D01*
X10602644Y-6697356D01*
X10673356Y-6697356D01*
X10673356Y-6951356D02*
X10673356Y-6880644D01*
X10602644Y-6880644D01*
X10602644Y-6951356D01*
X10673356Y-6951356D01*
X10673356Y-7205356D02*
X10673356Y-7134644D01*
X10602644Y-7134644D01*
X10602644Y-7205356D01*
X10673356Y-7205356D01*
X10673356Y-7459356D02*
X10673356Y-7388644D01*
X10602644Y-7388644D01*
X10602644Y-7459356D01*
X10673356Y-7459356D01*
X10673356Y-7713356D02*
X10673356Y-7642644D01*
X10602644Y-7642644D01*
X10602644Y-7713356D01*
X10673356Y-7713356D01*
X10673356Y-7967356D02*
X10673356Y-7896644D01*
X10602644Y-7896644D01*
X10602644Y-7967356D01*
X10673356Y-7967356D01*
X10673356Y-8221356D02*
X10673356Y-8150644D01*
X10602644Y-8150644D01*
X10602644Y-8221356D01*
X10673356Y-8221356D01*
X10673356Y-8475356D02*
X10673356Y-8404644D01*
X10602644Y-8404644D01*
X10602644Y-8475356D01*
X10673356Y-8475356D01*
X10673356Y-8729356D02*
X10673356Y-8658644D01*
X10602644Y-8658644D01*
X10602644Y-8729356D01*
X10673356Y-8729356D01*
X10673356Y-8983356D02*
X10673356Y-8912644D01*
X10602644Y-8912644D01*
X10602644Y-8983356D01*
X10673356Y-8983356D01*
X10673356Y-9237356D02*
X10673356Y-9166644D01*
X10602644Y-9166644D01*
X10602644Y-9237356D01*
X10673356Y-9237356D01*
X10673356Y-9491356D02*
X10673356Y-9420644D01*
X10602644Y-9420644D01*
X10602644Y-9491356D01*
X10673356Y-9491356D01*
X10673356Y-9745356D02*
X10673356Y-9674644D01*
X10602644Y-9674644D01*
X10602644Y-9745356D01*
X10673356Y-9745356D01*
X11054356Y-5535356D02*
X11054356Y-5464644D01*
X10983644Y-5464644D01*
X10983644Y-5535356D01*
X11054356Y-5535356D01*
X11085356Y-6285356D02*
X11085356Y-6214644D01*
X11014644Y-6214644D01*
X11014644Y-6285356D01*
X11085356Y-6285356D01*
X11085356Y-7185356D02*
X11085356Y-7114644D01*
X11014644Y-7114644D01*
X11014644Y-7185356D01*
X11085356Y-7185356D01*
X11308356Y-5535356D02*
X11308356Y-5464644D01*
X11237644Y-5464644D01*
X11237644Y-5535356D01*
X11308356Y-5535356D01*
X11335356Y-6785356D02*
X11335356Y-6714644D01*
X11264644Y-6714644D01*
X11264644Y-6785356D01*
X11335356Y-6785356D01*
X11335356Y-7685356D02*
X11335356Y-7614644D01*
X11264644Y-7614644D01*
X11264644Y-7685356D01*
X11335356Y-7685356D01*
X11562356Y-5535356D02*
X11562356Y-5464644D01*
X11491644Y-5464644D01*
X11491644Y-5535356D01*
X11562356Y-5535356D01*
X11585356Y-6285356D02*
X11585356Y-6214644D01*
X11514644Y-6214644D01*
X11514644Y-6285356D01*
X11585356Y-6285356D01*
X11585356Y-7185356D02*
X11585356Y-7114644D01*
X11514644Y-7114644D01*
X11514644Y-7185356D01*
X11585356Y-7185356D01*
X11816356Y-5535356D02*
X11816356Y-5464644D01*
X11745644Y-5464644D01*
X11745644Y-5535356D01*
X11816356Y-5535356D01*
X12197356Y-5935356D02*
X12197356Y-5864644D01*
X12126644Y-5864644D01*
X12126644Y-5935356D01*
X12197356Y-5935356D01*
X12197356Y-6189356D02*
X12197356Y-6118644D01*
X12126644Y-6118644D01*
X12126644Y-6189356D01*
X12197356Y-6189356D01*
X12197356Y-6443356D02*
X12197356Y-6372644D01*
X12126644Y-6372644D01*
X12126644Y-6443356D01*
X12197356Y-6443356D01*
X12197356Y-6697356D02*
X12197356Y-6626644D01*
X12126644Y-6626644D01*
X12126644Y-6697356D01*
X12197356Y-6697356D01*
X12197356Y-6951356D02*
X12197356Y-6880644D01*
X12126644Y-6880644D01*
X12126644Y-6951356D01*
X12197356Y-6951356D01*
X12197356Y-7205356D02*
X12197356Y-7134644D01*
X12126644Y-7134644D01*
X12126644Y-7205356D01*
X12197356Y-7205356D01*
X12197356Y-7459356D02*
X12197356Y-7388644D01*
X12126644Y-7388644D01*
X12126644Y-7459356D01*
X12197356Y-7459356D01*
X12197356Y-7713356D02*
X12197356Y-7642644D01*
X12126644Y-7642644D01*
X12126644Y-7713356D01*
X12197356Y-7713356D01*
X12197356Y-7967356D02*
X12197356Y-7896644D01*
X12126644Y-7896644D01*
X12126644Y-7967356D01*
X12197356Y-7967356D01*
X12197356Y-8221356D02*
X12197356Y-8150644D01*
X12126644Y-8150644D01*
X12126644Y-8221356D01*
X12197356Y-8221356D01*
X12197356Y-8475356D02*
X12197356Y-8404644D01*
X12126644Y-8404644D01*
X12126644Y-8475356D01*
X12197356Y-8475356D01*
X12197356Y-8729356D02*
X12197356Y-8658644D01*
X12126644Y-8658644D01*
X12126644Y-8729356D01*
X12197356Y-8729356D01*
X12197356Y-8983356D02*
X12197356Y-8912644D01*
X12126644Y-8912644D01*
X12126644Y-8983356D01*
X12197356Y-8983356D01*
X12197356Y-9237356D02*
X12197356Y-9166644D01*
X12126644Y-9166644D01*
X12126644Y-9237356D01*
X12197356Y-9237356D01*
X12197356Y-9491356D02*
X12197356Y-9420644D01*
X12126644Y-9420644D01*
X12126644Y-9491356D01*
X12197356Y-9491356D01*
X12197356Y-9745356D02*
X12197356Y-9674644D01*
X12126644Y-9674644D01*
X12126644Y-9745356D01*
X12197356Y-9745356D01*
D11*
X10255777Y-11516484D02*
X10255777Y-11316484D01*
X10255777Y-11316484D02*
X10303396Y-11316484D01*
X10303396Y-11316484D02*
X10331967Y-11326008D01*
X10331967Y-11326008D02*
X10351015Y-11345055D01*
X10351015Y-11345055D02*
X10360539Y-11364103D01*
X10360539Y-11364103D02*
X10370063Y-11402198D01*
X10370063Y-11402198D02*
X10370063Y-11430769D01*
X10370063Y-11430769D02*
X10360539Y-11468865D01*
X10360539Y-11468865D02*
X10351015Y-11487912D01*
X10351015Y-11487912D02*
X10331967Y-11506960D01*
X10331967Y-11506960D02*
X10303396Y-11516484D01*
X10303396Y-11516484D02*
X10255777Y-11516484D01*
X10455777Y-11516484D02*
X10455777Y-11383150D01*
X10455777Y-11421246D02*
X10465301Y-11402198D01*
X10465301Y-11402198D02*
X10474824Y-11392674D01*
X10474824Y-11392674D02*
X10493872Y-11383150D01*
X10493872Y-11383150D02*
X10512920Y-11383150D01*
X10579586Y-11516484D02*
X10579586Y-11383150D01*
X10579586Y-11316484D02*
X10570063Y-11326008D01*
X10570063Y-11326008D02*
X10579586Y-11335531D01*
X10579586Y-11335531D02*
X10589110Y-11326008D01*
X10589110Y-11326008D02*
X10579586Y-11316484D01*
X10579586Y-11316484D02*
X10579586Y-11335531D01*
X10703396Y-11516484D02*
X10684348Y-11506960D01*
X10684348Y-11506960D02*
X10674824Y-11487912D01*
X10674824Y-11487912D02*
X10674824Y-11316484D01*
X10808158Y-11516484D02*
X10789110Y-11506960D01*
X10789110Y-11506960D02*
X10779586Y-11487912D01*
X10779586Y-11487912D02*
X10779586Y-11316484D01*
X11036729Y-11516484D02*
X11036729Y-11316484D01*
X11036729Y-11316484D02*
X11103396Y-11459341D01*
X11103396Y-11459341D02*
X11170063Y-11316484D01*
X11170063Y-11316484D02*
X11170063Y-11516484D01*
X11351015Y-11516484D02*
X11351015Y-11411722D01*
X11351015Y-11411722D02*
X11341491Y-11392674D01*
X11341491Y-11392674D02*
X11322443Y-11383150D01*
X11322443Y-11383150D02*
X11284348Y-11383150D01*
X11284348Y-11383150D02*
X11265301Y-11392674D01*
X11351015Y-11506960D02*
X11331967Y-11516484D01*
X11331967Y-11516484D02*
X11284348Y-11516484D01*
X11284348Y-11516484D02*
X11265301Y-11506960D01*
X11265301Y-11506960D02*
X11255777Y-11487912D01*
X11255777Y-11487912D02*
X11255777Y-11468865D01*
X11255777Y-11468865D02*
X11265301Y-11449817D01*
X11265301Y-11449817D02*
X11284348Y-11440293D01*
X11284348Y-11440293D02*
X11331967Y-11440293D01*
X11331967Y-11440293D02*
X11351015Y-11430769D01*
X11446253Y-11383150D02*
X11446253Y-11583150D01*
X11446253Y-11392674D02*
X11465301Y-11383150D01*
X11465301Y-11383150D02*
X11503396Y-11383150D01*
X11503396Y-11383150D02*
X11522443Y-11392674D01*
X11522443Y-11392674D02*
X11531967Y-11402198D01*
X11531967Y-11402198D02*
X11541491Y-11421246D01*
X11541491Y-11421246D02*
X11541491Y-11478388D01*
X11541491Y-11478388D02*
X11531967Y-11497436D01*
X11531967Y-11497436D02*
X11522443Y-11506960D01*
X11522443Y-11506960D02*
X11503396Y-11516484D01*
X11503396Y-11516484D02*
X11465301Y-11516484D01*
X11465301Y-11516484D02*
X11446253Y-11506960D01*
X11627205Y-11497436D02*
X11636729Y-11506960D01*
X11636729Y-11506960D02*
X11627205Y-11516484D01*
X11627205Y-11516484D02*
X11617682Y-11506960D01*
X11617682Y-11506960D02*
X11627205Y-11497436D01*
X11627205Y-11497436D02*
X11627205Y-11516484D01*
X11627205Y-11392674D02*
X11636729Y-11402198D01*
X11636729Y-11402198D02*
X11627205Y-11411722D01*
X11627205Y-11411722D02*
X11617682Y-11402198D01*
X11617682Y-11402198D02*
X11627205Y-11392674D01*
X11627205Y-11392674D02*
X11627205Y-11411722D01*
D10*
X9955000Y-11825000D02*
X9995000Y-11865000D01*
X9995000Y-11825000D02*
X9955000Y-11865000D01*
D11*
X10293872Y-11736484D02*
X10312920Y-11736484D01*
X10312920Y-11736484D02*
X10331967Y-11746008D01*
X10331967Y-11746008D02*
X10341491Y-11755531D01*
X10341491Y-11755531D02*
X10351015Y-11774579D01*
X10351015Y-11774579D02*
X10360539Y-11812674D01*
X10360539Y-11812674D02*
X10360539Y-11860293D01*
X10360539Y-11860293D02*
X10351015Y-11898388D01*
X10351015Y-11898388D02*
X10341491Y-11917436D01*
X10341491Y-11917436D02*
X10331967Y-11926960D01*
X10331967Y-11926960D02*
X10312920Y-11936484D01*
X10312920Y-11936484D02*
X10293872Y-11936484D01*
X10293872Y-11936484D02*
X10274824Y-11926960D01*
X10274824Y-11926960D02*
X10265301Y-11917436D01*
X10265301Y-11917436D02*
X10255777Y-11898388D01*
X10255777Y-11898388D02*
X10246253Y-11860293D01*
X10246253Y-11860293D02*
X10246253Y-11812674D01*
X10246253Y-11812674D02*
X10255777Y-11774579D01*
X10255777Y-11774579D02*
X10265301Y-11755531D01*
X10265301Y-11755531D02*
X10274824Y-11746008D01*
X10274824Y-11746008D02*
X10293872Y-11736484D01*
X10446253Y-11917436D02*
X10455777Y-11926960D01*
X10455777Y-11926960D02*
X10446253Y-11936484D01*
X10446253Y-11936484D02*
X10436729Y-11926960D01*
X10436729Y-11926960D02*
X10446253Y-11917436D01*
X10446253Y-11917436D02*
X10446253Y-11936484D01*
X10627205Y-11803150D02*
X10627205Y-11936484D01*
X10579586Y-11726960D02*
X10531967Y-11869817D01*
X10531967Y-11869817D02*
X10655777Y-11869817D01*
X10770063Y-11736484D02*
X10789110Y-11736484D01*
X10789110Y-11736484D02*
X10808158Y-11746008D01*
X10808158Y-11746008D02*
X10817682Y-11755531D01*
X10817682Y-11755531D02*
X10827205Y-11774579D01*
X10827205Y-11774579D02*
X10836729Y-11812674D01*
X10836729Y-11812674D02*
X10836729Y-11860293D01*
X10836729Y-11860293D02*
X10827205Y-11898388D01*
X10827205Y-11898388D02*
X10817682Y-11917436D01*
X10817682Y-11917436D02*
X10808158Y-11926960D01*
X10808158Y-11926960D02*
X10789110Y-11936484D01*
X10789110Y-11936484D02*
X10770063Y-11936484D01*
X10770063Y-11936484D02*
X10751015Y-11926960D01*
X10751015Y-11926960D02*
X10741491Y-11917436D01*
X10741491Y-11917436D02*
X10731967Y-11898388D01*
X10731967Y-11898388D02*
X10722444Y-11860293D01*
X10722444Y-11860293D02*
X10722444Y-11812674D01*
X10722444Y-11812674D02*
X10731967Y-11774579D01*
X10731967Y-11774579D02*
X10741491Y-11755531D01*
X10741491Y-11755531D02*
X10751015Y-11746008D01*
X10751015Y-11746008D02*
X10770063Y-11736484D01*
X10960539Y-11736484D02*
X10979586Y-11736484D01*
X10979586Y-11736484D02*
X10998634Y-11746008D01*
X10998634Y-11746008D02*
X11008158Y-11755531D01*
X11008158Y-11755531D02*
X11017682Y-11774579D01*
X11017682Y-11774579D02*
X11027205Y-11812674D01*
X11027205Y-11812674D02*
X11027205Y-11860293D01*
X11027205Y-11860293D02*
X11017682Y-11898388D01*
X11017682Y-11898388D02*
X11008158Y-11917436D01*
X11008158Y-11917436D02*
X10998634Y-11926960D01*
X10998634Y-11926960D02*
X10979586Y-11936484D01*
X10979586Y-11936484D02*
X10960539Y-11936484D01*
X10960539Y-11936484D02*
X10941491Y-11926960D01*
X10941491Y-11926960D02*
X10931967Y-11917436D01*
X10931967Y-11917436D02*
X10922444Y-11898388D01*
X10922444Y-11898388D02*
X10912920Y-11860293D01*
X10912920Y-11860293D02*
X10912920Y-11812674D01*
X10912920Y-11812674D02*
X10922444Y-11774579D01*
X10922444Y-11774579D02*
X10931967Y-11755531D01*
X10931967Y-11755531D02*
X10941491Y-11746008D01*
X10941491Y-11746008D02*
X10960539Y-11736484D01*
X11112920Y-11936484D02*
X11112920Y-11803150D01*
X11112920Y-11822198D02*
X11122444Y-11812674D01*
X11122444Y-11812674D02*
X11141491Y-11803150D01*
X11141491Y-11803150D02*
X11170063Y-11803150D01*
X11170063Y-11803150D02*
X11189110Y-11812674D01*
X11189110Y-11812674D02*
X11198634Y-11831722D01*
X11198634Y-11831722D02*
X11198634Y-11936484D01*
X11198634Y-11831722D02*
X11208158Y-11812674D01*
X11208158Y-11812674D02*
X11227205Y-11803150D01*
X11227205Y-11803150D02*
X11255777Y-11803150D01*
X11255777Y-11803150D02*
X11274824Y-11812674D01*
X11274824Y-11812674D02*
X11284348Y-11831722D01*
X11284348Y-11831722D02*
X11284348Y-11936484D01*
X11379586Y-11936484D02*
X11379586Y-11803150D01*
X11379586Y-11822198D02*
X11389110Y-11812674D01*
X11389110Y-11812674D02*
X11408158Y-11803150D01*
X11408158Y-11803150D02*
X11436729Y-11803150D01*
X11436729Y-11803150D02*
X11455777Y-11812674D01*
X11455777Y-11812674D02*
X11465301Y-11831722D01*
X11465301Y-11831722D02*
X11465301Y-11936484D01*
X11465301Y-11831722D02*
X11474824Y-11812674D01*
X11474824Y-11812674D02*
X11493872Y-11803150D01*
X11493872Y-11803150D02*
X11522443Y-11803150D01*
X11522443Y-11803150D02*
X11541491Y-11812674D01*
X11541491Y-11812674D02*
X11551015Y-11831722D01*
X11551015Y-11831722D02*
X11551015Y-11936484D01*
X11941491Y-11726960D02*
X11770063Y-11984103D01*
X12198634Y-11736484D02*
X12217682Y-11736484D01*
X12217682Y-11736484D02*
X12236729Y-11746008D01*
X12236729Y-11746008D02*
X12246253Y-11755531D01*
X12246253Y-11755531D02*
X12255777Y-11774579D01*
X12255777Y-11774579D02*
X12265301Y-11812674D01*
X12265301Y-11812674D02*
X12265301Y-11860293D01*
X12265301Y-11860293D02*
X12255777Y-11898388D01*
X12255777Y-11898388D02*
X12246253Y-11917436D01*
X12246253Y-11917436D02*
X12236729Y-11926960D01*
X12236729Y-11926960D02*
X12217682Y-11936484D01*
X12217682Y-11936484D02*
X12198634Y-11936484D01*
X12198634Y-11936484D02*
X12179586Y-11926960D01*
X12179586Y-11926960D02*
X12170063Y-11917436D01*
X12170063Y-11917436D02*
X12160539Y-11898388D01*
X12160539Y-11898388D02*
X12151015Y-11860293D01*
X12151015Y-11860293D02*
X12151015Y-11812674D01*
X12151015Y-11812674D02*
X12160539Y-11774579D01*
X12160539Y-11774579D02*
X12170063Y-11755531D01*
X12170063Y-11755531D02*
X12179586Y-11746008D01*
X12179586Y-11746008D02*
X12198634Y-11736484D01*
X12351015Y-11917436D02*
X12360539Y-11926960D01*
X12360539Y-11926960D02*
X12351015Y-11936484D01*
X12351015Y-11936484D02*
X12341491Y-11926960D01*
X12341491Y-11926960D02*
X12351015Y-11917436D01*
X12351015Y-11917436D02*
X12351015Y-11936484D01*
X12484348Y-11736484D02*
X12503396Y-11736484D01*
X12503396Y-11736484D02*
X12522444Y-11746008D01*
X12522444Y-11746008D02*
X12531967Y-11755531D01*
X12531967Y-11755531D02*
X12541491Y-11774579D01*
X12541491Y-11774579D02*
X12551015Y-11812674D01*
X12551015Y-11812674D02*
X12551015Y-11860293D01*
X12551015Y-11860293D02*
X12541491Y-11898388D01*
X12541491Y-11898388D02*
X12531967Y-11917436D01*
X12531967Y-11917436D02*
X12522444Y-11926960D01*
X12522444Y-11926960D02*
X12503396Y-11936484D01*
X12503396Y-11936484D02*
X12484348Y-11936484D01*
X12484348Y-11936484D02*
X12465301Y-11926960D01*
X12465301Y-11926960D02*
X12455777Y-11917436D01*
X12455777Y-11917436D02*
X12446253Y-11898388D01*
X12446253Y-11898388D02*
X12436729Y-11860293D01*
X12436729Y-11860293D02*
X12436729Y-11812674D01*
X12436729Y-11812674D02*
X12446253Y-11774579D01*
X12446253Y-11774579D02*
X12455777Y-11755531D01*
X12455777Y-11755531D02*
X12465301Y-11746008D01*
X12465301Y-11746008D02*
X12484348Y-11736484D01*
X12741491Y-11936484D02*
X12627206Y-11936484D01*
X12684348Y-11936484D02*
X12684348Y-11736484D01*
X12684348Y-11736484D02*
X12665301Y-11765055D01*
X12665301Y-11765055D02*
X12646253Y-11784103D01*
X12646253Y-11784103D02*
X12627206Y-11793627D01*
X12922444Y-11736484D02*
X12827206Y-11736484D01*
X12827206Y-11736484D02*
X12817682Y-11831722D01*
X12817682Y-11831722D02*
X12827206Y-11822198D01*
X12827206Y-11822198D02*
X12846253Y-11812674D01*
X12846253Y-11812674D02*
X12893872Y-11812674D01*
X12893872Y-11812674D02*
X12912920Y-11822198D01*
X12912920Y-11822198D02*
X12922444Y-11831722D01*
X12922444Y-11831722D02*
X12931967Y-11850769D01*
X12931967Y-11850769D02*
X12931967Y-11898388D01*
X12931967Y-11898388D02*
X12922444Y-11917436D01*
X12922444Y-11917436D02*
X12912920Y-11926960D01*
X12912920Y-11926960D02*
X12893872Y-11936484D01*
X12893872Y-11936484D02*
X12846253Y-11936484D01*
X12846253Y-11936484D02*
X12827206Y-11926960D01*
X12827206Y-11926960D02*
X12817682Y-11917436D01*
X12998634Y-11736484D02*
X13131967Y-11736484D01*
X13131967Y-11736484D02*
X13046253Y-11936484D01*
X13198634Y-11736484D02*
X13198634Y-11774579D01*
X13274825Y-11736484D02*
X13274825Y-11774579D01*
X13570063Y-12012674D02*
X13560539Y-12003150D01*
X13560539Y-12003150D02*
X13541491Y-11974579D01*
X13541491Y-11974579D02*
X13531968Y-11955531D01*
X13531968Y-11955531D02*
X13522444Y-11926960D01*
X13522444Y-11926960D02*
X13512920Y-11879341D01*
X13512920Y-11879341D02*
X13512920Y-11841246D01*
X13512920Y-11841246D02*
X13522444Y-11793627D01*
X13522444Y-11793627D02*
X13531968Y-11765055D01*
X13531968Y-11765055D02*
X13541491Y-11746008D01*
X13541491Y-11746008D02*
X13560539Y-11717436D01*
X13560539Y-11717436D02*
X13570063Y-11707912D01*
X13751015Y-11936484D02*
X13636729Y-11936484D01*
X13693872Y-11936484D02*
X13693872Y-11736484D01*
X13693872Y-11736484D02*
X13674825Y-11765055D01*
X13674825Y-11765055D02*
X13655777Y-11784103D01*
X13655777Y-11784103D02*
X13636729Y-11793627D01*
X13817682Y-11736484D02*
X13951015Y-11736484D01*
X13951015Y-11736484D02*
X13865301Y-11936484D01*
X14179587Y-11936484D02*
X14179587Y-11736484D01*
X14265301Y-11936484D02*
X14265301Y-11831722D01*
X14265301Y-11831722D02*
X14255777Y-11812674D01*
X14255777Y-11812674D02*
X14236730Y-11803150D01*
X14236730Y-11803150D02*
X14208158Y-11803150D01*
X14208158Y-11803150D02*
X14189110Y-11812674D01*
X14189110Y-11812674D02*
X14179587Y-11822198D01*
X14389110Y-11936484D02*
X14370063Y-11926960D01*
X14370063Y-11926960D02*
X14360539Y-11917436D01*
X14360539Y-11917436D02*
X14351015Y-11898388D01*
X14351015Y-11898388D02*
X14351015Y-11841246D01*
X14351015Y-11841246D02*
X14360539Y-11822198D01*
X14360539Y-11822198D02*
X14370063Y-11812674D01*
X14370063Y-11812674D02*
X14389110Y-11803150D01*
X14389110Y-11803150D02*
X14417682Y-11803150D01*
X14417682Y-11803150D02*
X14436730Y-11812674D01*
X14436730Y-11812674D02*
X14446253Y-11822198D01*
X14446253Y-11822198D02*
X14455777Y-11841246D01*
X14455777Y-11841246D02*
X14455777Y-11898388D01*
X14455777Y-11898388D02*
X14446253Y-11917436D01*
X14446253Y-11917436D02*
X14436730Y-11926960D01*
X14436730Y-11926960D02*
X14417682Y-11936484D01*
X14417682Y-11936484D02*
X14389110Y-11936484D01*
X14570063Y-11936484D02*
X14551015Y-11926960D01*
X14551015Y-11926960D02*
X14541491Y-11907912D01*
X14541491Y-11907912D02*
X14541491Y-11736484D01*
X14722444Y-11926960D02*
X14703396Y-11936484D01*
X14703396Y-11936484D02*
X14665301Y-11936484D01*
X14665301Y-11936484D02*
X14646253Y-11926960D01*
X14646253Y-11926960D02*
X14636730Y-11907912D01*
X14636730Y-11907912D02*
X14636730Y-11831722D01*
X14636730Y-11831722D02*
X14646253Y-11812674D01*
X14646253Y-11812674D02*
X14665301Y-11803150D01*
X14665301Y-11803150D02*
X14703396Y-11803150D01*
X14703396Y-11803150D02*
X14722444Y-11812674D01*
X14722444Y-11812674D02*
X14731968Y-11831722D01*
X14731968Y-11831722D02*
X14731968Y-11850769D01*
X14731968Y-11850769D02*
X14636730Y-11869817D01*
X14808158Y-11926960D02*
X14827206Y-11936484D01*
X14827206Y-11936484D02*
X14865301Y-11936484D01*
X14865301Y-11936484D02*
X14884349Y-11926960D01*
X14884349Y-11926960D02*
X14893872Y-11907912D01*
X14893872Y-11907912D02*
X14893872Y-11898388D01*
X14893872Y-11898388D02*
X14884349Y-11879341D01*
X14884349Y-11879341D02*
X14865301Y-11869817D01*
X14865301Y-11869817D02*
X14836730Y-11869817D01*
X14836730Y-11869817D02*
X14817682Y-11860293D01*
X14817682Y-11860293D02*
X14808158Y-11841246D01*
X14808158Y-11841246D02*
X14808158Y-11831722D01*
X14808158Y-11831722D02*
X14817682Y-11812674D01*
X14817682Y-11812674D02*
X14836730Y-11803150D01*
X14836730Y-11803150D02*
X14865301Y-11803150D01*
X14865301Y-11803150D02*
X14884349Y-11812674D01*
X14960539Y-12012674D02*
X14970063Y-12003150D01*
X14970063Y-12003150D02*
X14989111Y-11974579D01*
X14989111Y-11974579D02*
X14998634Y-11955531D01*
X14998634Y-11955531D02*
X15008158Y-11926960D01*
X15008158Y-11926960D02*
X15017682Y-11879341D01*
X15017682Y-11879341D02*
X15017682Y-11841246D01*
X15017682Y-11841246D02*
X15008158Y-11793627D01*
X15008158Y-11793627D02*
X14998634Y-11765055D01*
X14998634Y-11765055D02*
X14989111Y-11746008D01*
X14989111Y-11746008D02*
X14970063Y-11717436D01*
X14970063Y-11717436D02*
X14960539Y-11707912D01*
D10*
X9995000Y-12109000D02*
G75*
G03*
X9915000Y-12109000I-40000J0D01*
G01*
X9915000Y-12109000D02*
G75*
G03*
X9995000Y-12109000I40000J0D01*
G01*
D11*
X10293872Y-12000484D02*
X10312920Y-12000484D01*
X10312920Y-12000484D02*
X10331967Y-12010008D01*
X10331967Y-12010008D02*
X10341491Y-12019531D01*
X10341491Y-12019531D02*
X10351015Y-12038579D01*
X10351015Y-12038579D02*
X10360539Y-12076674D01*
X10360539Y-12076674D02*
X10360539Y-12124293D01*
X10360539Y-12124293D02*
X10351015Y-12162388D01*
X10351015Y-12162388D02*
X10341491Y-12181436D01*
X10341491Y-12181436D02*
X10331967Y-12190960D01*
X10331967Y-12190960D02*
X10312920Y-12200484D01*
X10312920Y-12200484D02*
X10293872Y-12200484D01*
X10293872Y-12200484D02*
X10274824Y-12190960D01*
X10274824Y-12190960D02*
X10265301Y-12181436D01*
X10265301Y-12181436D02*
X10255777Y-12162388D01*
X10255777Y-12162388D02*
X10246253Y-12124293D01*
X10246253Y-12124293D02*
X10246253Y-12076674D01*
X10246253Y-12076674D02*
X10255777Y-12038579D01*
X10255777Y-12038579D02*
X10265301Y-12019531D01*
X10265301Y-12019531D02*
X10274824Y-12010008D01*
X10274824Y-12010008D02*
X10293872Y-12000484D01*
X10446253Y-12181436D02*
X10455777Y-12190960D01*
X10455777Y-12190960D02*
X10446253Y-12200484D01*
X10446253Y-12200484D02*
X10436729Y-12190960D01*
X10436729Y-12190960D02*
X10446253Y-12181436D01*
X10446253Y-12181436D02*
X10446253Y-12200484D01*
X10570063Y-12086198D02*
X10551015Y-12076674D01*
X10551015Y-12076674D02*
X10541491Y-12067150D01*
X10541491Y-12067150D02*
X10531967Y-12048103D01*
X10531967Y-12048103D02*
X10531967Y-12038579D01*
X10531967Y-12038579D02*
X10541491Y-12019531D01*
X10541491Y-12019531D02*
X10551015Y-12010008D01*
X10551015Y-12010008D02*
X10570063Y-12000484D01*
X10570063Y-12000484D02*
X10608158Y-12000484D01*
X10608158Y-12000484D02*
X10627205Y-12010008D01*
X10627205Y-12010008D02*
X10636729Y-12019531D01*
X10636729Y-12019531D02*
X10646253Y-12038579D01*
X10646253Y-12038579D02*
X10646253Y-12048103D01*
X10646253Y-12048103D02*
X10636729Y-12067150D01*
X10636729Y-12067150D02*
X10627205Y-12076674D01*
X10627205Y-12076674D02*
X10608158Y-12086198D01*
X10608158Y-12086198D02*
X10570063Y-12086198D01*
X10570063Y-12086198D02*
X10551015Y-12095722D01*
X10551015Y-12095722D02*
X10541491Y-12105246D01*
X10541491Y-12105246D02*
X10531967Y-12124293D01*
X10531967Y-12124293D02*
X10531967Y-12162388D01*
X10531967Y-12162388D02*
X10541491Y-12181436D01*
X10541491Y-12181436D02*
X10551015Y-12190960D01*
X10551015Y-12190960D02*
X10570063Y-12200484D01*
X10570063Y-12200484D02*
X10608158Y-12200484D01*
X10608158Y-12200484D02*
X10627205Y-12190960D01*
X10627205Y-12190960D02*
X10636729Y-12181436D01*
X10636729Y-12181436D02*
X10646253Y-12162388D01*
X10646253Y-12162388D02*
X10646253Y-12124293D01*
X10646253Y-12124293D02*
X10636729Y-12105246D01*
X10636729Y-12105246D02*
X10627205Y-12095722D01*
X10627205Y-12095722D02*
X10608158Y-12086198D01*
X10770063Y-12000484D02*
X10789110Y-12000484D01*
X10789110Y-12000484D02*
X10808158Y-12010008D01*
X10808158Y-12010008D02*
X10817682Y-12019531D01*
X10817682Y-12019531D02*
X10827205Y-12038579D01*
X10827205Y-12038579D02*
X10836729Y-12076674D01*
X10836729Y-12076674D02*
X10836729Y-12124293D01*
X10836729Y-12124293D02*
X10827205Y-12162388D01*
X10827205Y-12162388D02*
X10817682Y-12181436D01*
X10817682Y-12181436D02*
X10808158Y-12190960D01*
X10808158Y-12190960D02*
X10789110Y-12200484D01*
X10789110Y-12200484D02*
X10770063Y-12200484D01*
X10770063Y-12200484D02*
X10751015Y-12190960D01*
X10751015Y-12190960D02*
X10741491Y-12181436D01*
X10741491Y-12181436D02*
X10731967Y-12162388D01*
X10731967Y-12162388D02*
X10722444Y-12124293D01*
X10722444Y-12124293D02*
X10722444Y-12076674D01*
X10722444Y-12076674D02*
X10731967Y-12038579D01*
X10731967Y-12038579D02*
X10741491Y-12019531D01*
X10741491Y-12019531D02*
X10751015Y-12010008D01*
X10751015Y-12010008D02*
X10770063Y-12000484D01*
X10960539Y-12000484D02*
X10979586Y-12000484D01*
X10979586Y-12000484D02*
X10998634Y-12010008D01*
X10998634Y-12010008D02*
X11008158Y-12019531D01*
X11008158Y-12019531D02*
X11017682Y-12038579D01*
X11017682Y-12038579D02*
X11027205Y-12076674D01*
X11027205Y-12076674D02*
X11027205Y-12124293D01*
X11027205Y-12124293D02*
X11017682Y-12162388D01*
X11017682Y-12162388D02*
X11008158Y-12181436D01*
X11008158Y-12181436D02*
X10998634Y-12190960D01*
X10998634Y-12190960D02*
X10979586Y-12200484D01*
X10979586Y-12200484D02*
X10960539Y-12200484D01*
X10960539Y-12200484D02*
X10941491Y-12190960D01*
X10941491Y-12190960D02*
X10931967Y-12181436D01*
X10931967Y-12181436D02*
X10922444Y-12162388D01*
X10922444Y-12162388D02*
X10912920Y-12124293D01*
X10912920Y-12124293D02*
X10912920Y-12076674D01*
X10912920Y-12076674D02*
X10922444Y-12038579D01*
X10922444Y-12038579D02*
X10931967Y-12019531D01*
X10931967Y-12019531D02*
X10941491Y-12010008D01*
X10941491Y-12010008D02*
X10960539Y-12000484D01*
X11112920Y-12200484D02*
X11112920Y-12067150D01*
X11112920Y-12086198D02*
X11122444Y-12076674D01*
X11122444Y-12076674D02*
X11141491Y-12067150D01*
X11141491Y-12067150D02*
X11170063Y-12067150D01*
X11170063Y-12067150D02*
X11189110Y-12076674D01*
X11189110Y-12076674D02*
X11198634Y-12095722D01*
X11198634Y-12095722D02*
X11198634Y-12200484D01*
X11198634Y-12095722D02*
X11208158Y-12076674D01*
X11208158Y-12076674D02*
X11227205Y-12067150D01*
X11227205Y-12067150D02*
X11255777Y-12067150D01*
X11255777Y-12067150D02*
X11274824Y-12076674D01*
X11274824Y-12076674D02*
X11284348Y-12095722D01*
X11284348Y-12095722D02*
X11284348Y-12200484D01*
X11379586Y-12200484D02*
X11379586Y-12067150D01*
X11379586Y-12086198D02*
X11389110Y-12076674D01*
X11389110Y-12076674D02*
X11408158Y-12067150D01*
X11408158Y-12067150D02*
X11436729Y-12067150D01*
X11436729Y-12067150D02*
X11455777Y-12076674D01*
X11455777Y-12076674D02*
X11465301Y-12095722D01*
X11465301Y-12095722D02*
X11465301Y-12200484D01*
X11465301Y-12095722D02*
X11474824Y-12076674D01*
X11474824Y-12076674D02*
X11493872Y-12067150D01*
X11493872Y-12067150D02*
X11522443Y-12067150D01*
X11522443Y-12067150D02*
X11541491Y-12076674D01*
X11541491Y-12076674D02*
X11551015Y-12095722D01*
X11551015Y-12095722D02*
X11551015Y-12200484D01*
X11941491Y-11990960D02*
X11770063Y-12248103D01*
X12198634Y-12000484D02*
X12217682Y-12000484D01*
X12217682Y-12000484D02*
X12236729Y-12010008D01*
X12236729Y-12010008D02*
X12246253Y-12019531D01*
X12246253Y-12019531D02*
X12255777Y-12038579D01*
X12255777Y-12038579D02*
X12265301Y-12076674D01*
X12265301Y-12076674D02*
X12265301Y-12124293D01*
X12265301Y-12124293D02*
X12255777Y-12162388D01*
X12255777Y-12162388D02*
X12246253Y-12181436D01*
X12246253Y-12181436D02*
X12236729Y-12190960D01*
X12236729Y-12190960D02*
X12217682Y-12200484D01*
X12217682Y-12200484D02*
X12198634Y-12200484D01*
X12198634Y-12200484D02*
X12179586Y-12190960D01*
X12179586Y-12190960D02*
X12170063Y-12181436D01*
X12170063Y-12181436D02*
X12160539Y-12162388D01*
X12160539Y-12162388D02*
X12151015Y-12124293D01*
X12151015Y-12124293D02*
X12151015Y-12076674D01*
X12151015Y-12076674D02*
X12160539Y-12038579D01*
X12160539Y-12038579D02*
X12170063Y-12019531D01*
X12170063Y-12019531D02*
X12179586Y-12010008D01*
X12179586Y-12010008D02*
X12198634Y-12000484D01*
X12351015Y-12181436D02*
X12360539Y-12190960D01*
X12360539Y-12190960D02*
X12351015Y-12200484D01*
X12351015Y-12200484D02*
X12341491Y-12190960D01*
X12341491Y-12190960D02*
X12351015Y-12181436D01*
X12351015Y-12181436D02*
X12351015Y-12200484D01*
X12484348Y-12000484D02*
X12503396Y-12000484D01*
X12503396Y-12000484D02*
X12522444Y-12010008D01*
X12522444Y-12010008D02*
X12531967Y-12019531D01*
X12531967Y-12019531D02*
X12541491Y-12038579D01*
X12541491Y-12038579D02*
X12551015Y-12076674D01*
X12551015Y-12076674D02*
X12551015Y-12124293D01*
X12551015Y-12124293D02*
X12541491Y-12162388D01*
X12541491Y-12162388D02*
X12531967Y-12181436D01*
X12531967Y-12181436D02*
X12522444Y-12190960D01*
X12522444Y-12190960D02*
X12503396Y-12200484D01*
X12503396Y-12200484D02*
X12484348Y-12200484D01*
X12484348Y-12200484D02*
X12465301Y-12190960D01*
X12465301Y-12190960D02*
X12455777Y-12181436D01*
X12455777Y-12181436D02*
X12446253Y-12162388D01*
X12446253Y-12162388D02*
X12436729Y-12124293D01*
X12436729Y-12124293D02*
X12436729Y-12076674D01*
X12436729Y-12076674D02*
X12446253Y-12038579D01*
X12446253Y-12038579D02*
X12455777Y-12019531D01*
X12455777Y-12019531D02*
X12465301Y-12010008D01*
X12465301Y-12010008D02*
X12484348Y-12000484D01*
X12617682Y-12000484D02*
X12741491Y-12000484D01*
X12741491Y-12000484D02*
X12674825Y-12076674D01*
X12674825Y-12076674D02*
X12703396Y-12076674D01*
X12703396Y-12076674D02*
X12722444Y-12086198D01*
X12722444Y-12086198D02*
X12731967Y-12095722D01*
X12731967Y-12095722D02*
X12741491Y-12114769D01*
X12741491Y-12114769D02*
X12741491Y-12162388D01*
X12741491Y-12162388D02*
X12731967Y-12181436D01*
X12731967Y-12181436D02*
X12722444Y-12190960D01*
X12722444Y-12190960D02*
X12703396Y-12200484D01*
X12703396Y-12200484D02*
X12646253Y-12200484D01*
X12646253Y-12200484D02*
X12627206Y-12190960D01*
X12627206Y-12190960D02*
X12617682Y-12181436D01*
X12931967Y-12200484D02*
X12817682Y-12200484D01*
X12874825Y-12200484D02*
X12874825Y-12000484D01*
X12874825Y-12000484D02*
X12855777Y-12029055D01*
X12855777Y-12029055D02*
X12836729Y-12048103D01*
X12836729Y-12048103D02*
X12817682Y-12057627D01*
X13112920Y-12000484D02*
X13017682Y-12000484D01*
X13017682Y-12000484D02*
X13008158Y-12095722D01*
X13008158Y-12095722D02*
X13017682Y-12086198D01*
X13017682Y-12086198D02*
X13036729Y-12076674D01*
X13036729Y-12076674D02*
X13084348Y-12076674D01*
X13084348Y-12076674D02*
X13103396Y-12086198D01*
X13103396Y-12086198D02*
X13112920Y-12095722D01*
X13112920Y-12095722D02*
X13122444Y-12114769D01*
X13122444Y-12114769D02*
X13122444Y-12162388D01*
X13122444Y-12162388D02*
X13112920Y-12181436D01*
X13112920Y-12181436D02*
X13103396Y-12190960D01*
X13103396Y-12190960D02*
X13084348Y-12200484D01*
X13084348Y-12200484D02*
X13036729Y-12200484D01*
X13036729Y-12200484D02*
X13017682Y-12190960D01*
X13017682Y-12190960D02*
X13008158Y-12181436D01*
X13198634Y-12000484D02*
X13198634Y-12038579D01*
X13274825Y-12000484D02*
X13274825Y-12038579D01*
X13570063Y-12276674D02*
X13560539Y-12267150D01*
X13560539Y-12267150D02*
X13541491Y-12238579D01*
X13541491Y-12238579D02*
X13531968Y-12219531D01*
X13531968Y-12219531D02*
X13522444Y-12190960D01*
X13522444Y-12190960D02*
X13512920Y-12143341D01*
X13512920Y-12143341D02*
X13512920Y-12105246D01*
X13512920Y-12105246D02*
X13522444Y-12057627D01*
X13522444Y-12057627D02*
X13531968Y-12029055D01*
X13531968Y-12029055D02*
X13541491Y-12010008D01*
X13541491Y-12010008D02*
X13560539Y-11981436D01*
X13560539Y-11981436D02*
X13570063Y-11971912D01*
X13731968Y-12067150D02*
X13731968Y-12200484D01*
X13684348Y-11990960D02*
X13636729Y-12133817D01*
X13636729Y-12133817D02*
X13760539Y-12133817D01*
X13989110Y-12200484D02*
X13989110Y-12000484D01*
X14074825Y-12200484D02*
X14074825Y-12095722D01*
X14074825Y-12095722D02*
X14065301Y-12076674D01*
X14065301Y-12076674D02*
X14046253Y-12067150D01*
X14046253Y-12067150D02*
X14017682Y-12067150D01*
X14017682Y-12067150D02*
X13998634Y-12076674D01*
X13998634Y-12076674D02*
X13989110Y-12086198D01*
X14198634Y-12200484D02*
X14179587Y-12190960D01*
X14179587Y-12190960D02*
X14170063Y-12181436D01*
X14170063Y-12181436D02*
X14160539Y-12162388D01*
X14160539Y-12162388D02*
X14160539Y-12105246D01*
X14160539Y-12105246D02*
X14170063Y-12086198D01*
X14170063Y-12086198D02*
X14179587Y-12076674D01*
X14179587Y-12076674D02*
X14198634Y-12067150D01*
X14198634Y-12067150D02*
X14227206Y-12067150D01*
X14227206Y-12067150D02*
X14246253Y-12076674D01*
X14246253Y-12076674D02*
X14255777Y-12086198D01*
X14255777Y-12086198D02*
X14265301Y-12105246D01*
X14265301Y-12105246D02*
X14265301Y-12162388D01*
X14265301Y-12162388D02*
X14255777Y-12181436D01*
X14255777Y-12181436D02*
X14246253Y-12190960D01*
X14246253Y-12190960D02*
X14227206Y-12200484D01*
X14227206Y-12200484D02*
X14198634Y-12200484D01*
X14379587Y-12200484D02*
X14360539Y-12190960D01*
X14360539Y-12190960D02*
X14351015Y-12171912D01*
X14351015Y-12171912D02*
X14351015Y-12000484D01*
X14531968Y-12190960D02*
X14512920Y-12200484D01*
X14512920Y-12200484D02*
X14474825Y-12200484D01*
X14474825Y-12200484D02*
X14455777Y-12190960D01*
X14455777Y-12190960D02*
X14446253Y-12171912D01*
X14446253Y-12171912D02*
X14446253Y-12095722D01*
X14446253Y-12095722D02*
X14455777Y-12076674D01*
X14455777Y-12076674D02*
X14474825Y-12067150D01*
X14474825Y-12067150D02*
X14512920Y-12067150D01*
X14512920Y-12067150D02*
X14531968Y-12076674D01*
X14531968Y-12076674D02*
X14541491Y-12095722D01*
X14541491Y-12095722D02*
X14541491Y-12114769D01*
X14541491Y-12114769D02*
X14446253Y-12133817D01*
X14617682Y-12190960D02*
X14636730Y-12200484D01*
X14636730Y-12200484D02*
X14674825Y-12200484D01*
X14674825Y-12200484D02*
X14693872Y-12190960D01*
X14693872Y-12190960D02*
X14703396Y-12171912D01*
X14703396Y-12171912D02*
X14703396Y-12162388D01*
X14703396Y-12162388D02*
X14693872Y-12143341D01*
X14693872Y-12143341D02*
X14674825Y-12133817D01*
X14674825Y-12133817D02*
X14646253Y-12133817D01*
X14646253Y-12133817D02*
X14627206Y-12124293D01*
X14627206Y-12124293D02*
X14617682Y-12105246D01*
X14617682Y-12105246D02*
X14617682Y-12095722D01*
X14617682Y-12095722D02*
X14627206Y-12076674D01*
X14627206Y-12076674D02*
X14646253Y-12067150D01*
X14646253Y-12067150D02*
X14674825Y-12067150D01*
X14674825Y-12067150D02*
X14693872Y-12076674D01*
X14770063Y-12276674D02*
X14779587Y-12267150D01*
X14779587Y-12267150D02*
X14798634Y-12238579D01*
X14798634Y-12238579D02*
X14808158Y-12219531D01*
X14808158Y-12219531D02*
X14817682Y-12190960D01*
X14817682Y-12190960D02*
X14827206Y-12143341D01*
X14827206Y-12143341D02*
X14827206Y-12105246D01*
X14827206Y-12105246D02*
X14817682Y-12057627D01*
X14817682Y-12057627D02*
X14808158Y-12029055D01*
X14808158Y-12029055D02*
X14798634Y-12010008D01*
X14798634Y-12010008D02*
X14779587Y-11981436D01*
X14779587Y-11981436D02*
X14770063Y-11971912D01*
D10*
X9947500Y-12325500D02*
X9947500Y-12420500D01*
X9900000Y-12373000D02*
X9995000Y-12373000D01*
D11*
X10293872Y-12264484D02*
X10312920Y-12264484D01*
X10312920Y-12264484D02*
X10331967Y-12274008D01*
X10331967Y-12274008D02*
X10341491Y-12283531D01*
X10341491Y-12283531D02*
X10351015Y-12302579D01*
X10351015Y-12302579D02*
X10360539Y-12340674D01*
X10360539Y-12340674D02*
X10360539Y-12388293D01*
X10360539Y-12388293D02*
X10351015Y-12426388D01*
X10351015Y-12426388D02*
X10341491Y-12445436D01*
X10341491Y-12445436D02*
X10331967Y-12454960D01*
X10331967Y-12454960D02*
X10312920Y-12464484D01*
X10312920Y-12464484D02*
X10293872Y-12464484D01*
X10293872Y-12464484D02*
X10274824Y-12454960D01*
X10274824Y-12454960D02*
X10265301Y-12445436D01*
X10265301Y-12445436D02*
X10255777Y-12426388D01*
X10255777Y-12426388D02*
X10246253Y-12388293D01*
X10246253Y-12388293D02*
X10246253Y-12340674D01*
X10246253Y-12340674D02*
X10255777Y-12302579D01*
X10255777Y-12302579D02*
X10265301Y-12283531D01*
X10265301Y-12283531D02*
X10274824Y-12274008D01*
X10274824Y-12274008D02*
X10293872Y-12264484D01*
X10446253Y-12445436D02*
X10455777Y-12454960D01*
X10455777Y-12454960D02*
X10446253Y-12464484D01*
X10446253Y-12464484D02*
X10436729Y-12454960D01*
X10436729Y-12454960D02*
X10446253Y-12445436D01*
X10446253Y-12445436D02*
X10446253Y-12464484D01*
X10551015Y-12464484D02*
X10589110Y-12464484D01*
X10589110Y-12464484D02*
X10608158Y-12454960D01*
X10608158Y-12454960D02*
X10617682Y-12445436D01*
X10617682Y-12445436D02*
X10636729Y-12416865D01*
X10636729Y-12416865D02*
X10646253Y-12378769D01*
X10646253Y-12378769D02*
X10646253Y-12302579D01*
X10646253Y-12302579D02*
X10636729Y-12283531D01*
X10636729Y-12283531D02*
X10627205Y-12274008D01*
X10627205Y-12274008D02*
X10608158Y-12264484D01*
X10608158Y-12264484D02*
X10570063Y-12264484D01*
X10570063Y-12264484D02*
X10551015Y-12274008D01*
X10551015Y-12274008D02*
X10541491Y-12283531D01*
X10541491Y-12283531D02*
X10531967Y-12302579D01*
X10531967Y-12302579D02*
X10531967Y-12350198D01*
X10531967Y-12350198D02*
X10541491Y-12369246D01*
X10541491Y-12369246D02*
X10551015Y-12378769D01*
X10551015Y-12378769D02*
X10570063Y-12388293D01*
X10570063Y-12388293D02*
X10608158Y-12388293D01*
X10608158Y-12388293D02*
X10627205Y-12378769D01*
X10627205Y-12378769D02*
X10636729Y-12369246D01*
X10636729Y-12369246D02*
X10646253Y-12350198D01*
X10827205Y-12264484D02*
X10731967Y-12264484D01*
X10731967Y-12264484D02*
X10722444Y-12359722D01*
X10722444Y-12359722D02*
X10731967Y-12350198D01*
X10731967Y-12350198D02*
X10751015Y-12340674D01*
X10751015Y-12340674D02*
X10798634Y-12340674D01*
X10798634Y-12340674D02*
X10817682Y-12350198D01*
X10817682Y-12350198D02*
X10827205Y-12359722D01*
X10827205Y-12359722D02*
X10836729Y-12378769D01*
X10836729Y-12378769D02*
X10836729Y-12426388D01*
X10836729Y-12426388D02*
X10827205Y-12445436D01*
X10827205Y-12445436D02*
X10817682Y-12454960D01*
X10817682Y-12454960D02*
X10798634Y-12464484D01*
X10798634Y-12464484D02*
X10751015Y-12464484D01*
X10751015Y-12464484D02*
X10731967Y-12454960D01*
X10731967Y-12454960D02*
X10722444Y-12445436D01*
X10960539Y-12264484D02*
X10979586Y-12264484D01*
X10979586Y-12264484D02*
X10998634Y-12274008D01*
X10998634Y-12274008D02*
X11008158Y-12283531D01*
X11008158Y-12283531D02*
X11017682Y-12302579D01*
X11017682Y-12302579D02*
X11027205Y-12340674D01*
X11027205Y-12340674D02*
X11027205Y-12388293D01*
X11027205Y-12388293D02*
X11017682Y-12426388D01*
X11017682Y-12426388D02*
X11008158Y-12445436D01*
X11008158Y-12445436D02*
X10998634Y-12454960D01*
X10998634Y-12454960D02*
X10979586Y-12464484D01*
X10979586Y-12464484D02*
X10960539Y-12464484D01*
X10960539Y-12464484D02*
X10941491Y-12454960D01*
X10941491Y-12454960D02*
X10931967Y-12445436D01*
X10931967Y-12445436D02*
X10922444Y-12426388D01*
X10922444Y-12426388D02*
X10912920Y-12388293D01*
X10912920Y-12388293D02*
X10912920Y-12340674D01*
X10912920Y-12340674D02*
X10922444Y-12302579D01*
X10922444Y-12302579D02*
X10931967Y-12283531D01*
X10931967Y-12283531D02*
X10941491Y-12274008D01*
X10941491Y-12274008D02*
X10960539Y-12264484D01*
X11112920Y-12464484D02*
X11112920Y-12331150D01*
X11112920Y-12350198D02*
X11122444Y-12340674D01*
X11122444Y-12340674D02*
X11141491Y-12331150D01*
X11141491Y-12331150D02*
X11170063Y-12331150D01*
X11170063Y-12331150D02*
X11189110Y-12340674D01*
X11189110Y-12340674D02*
X11198634Y-12359722D01*
X11198634Y-12359722D02*
X11198634Y-12464484D01*
X11198634Y-12359722D02*
X11208158Y-12340674D01*
X11208158Y-12340674D02*
X11227205Y-12331150D01*
X11227205Y-12331150D02*
X11255777Y-12331150D01*
X11255777Y-12331150D02*
X11274824Y-12340674D01*
X11274824Y-12340674D02*
X11284348Y-12359722D01*
X11284348Y-12359722D02*
X11284348Y-12464484D01*
X11379586Y-12464484D02*
X11379586Y-12331150D01*
X11379586Y-12350198D02*
X11389110Y-12340674D01*
X11389110Y-12340674D02*
X11408158Y-12331150D01*
X11408158Y-12331150D02*
X11436729Y-12331150D01*
X11436729Y-12331150D02*
X11455777Y-12340674D01*
X11455777Y-12340674D02*
X11465301Y-12359722D01*
X11465301Y-12359722D02*
X11465301Y-12464484D01*
X11465301Y-12359722D02*
X11474824Y-12340674D01*
X11474824Y-12340674D02*
X11493872Y-12331150D01*
X11493872Y-12331150D02*
X11522443Y-12331150D01*
X11522443Y-12331150D02*
X11541491Y-12340674D01*
X11541491Y-12340674D02*
X11551015Y-12359722D01*
X11551015Y-12359722D02*
X11551015Y-12464484D01*
X11941491Y-12254960D02*
X11770063Y-12512103D01*
X12198634Y-12264484D02*
X12217682Y-12264484D01*
X12217682Y-12264484D02*
X12236729Y-12274008D01*
X12236729Y-12274008D02*
X12246253Y-12283531D01*
X12246253Y-12283531D02*
X12255777Y-12302579D01*
X12255777Y-12302579D02*
X12265301Y-12340674D01*
X12265301Y-12340674D02*
X12265301Y-12388293D01*
X12265301Y-12388293D02*
X12255777Y-12426388D01*
X12255777Y-12426388D02*
X12246253Y-12445436D01*
X12246253Y-12445436D02*
X12236729Y-12454960D01*
X12236729Y-12454960D02*
X12217682Y-12464484D01*
X12217682Y-12464484D02*
X12198634Y-12464484D01*
X12198634Y-12464484D02*
X12179586Y-12454960D01*
X12179586Y-12454960D02*
X12170063Y-12445436D01*
X12170063Y-12445436D02*
X12160539Y-12426388D01*
X12160539Y-12426388D02*
X12151015Y-12388293D01*
X12151015Y-12388293D02*
X12151015Y-12340674D01*
X12151015Y-12340674D02*
X12160539Y-12302579D01*
X12160539Y-12302579D02*
X12170063Y-12283531D01*
X12170063Y-12283531D02*
X12179586Y-12274008D01*
X12179586Y-12274008D02*
X12198634Y-12264484D01*
X12351015Y-12445436D02*
X12360539Y-12454960D01*
X12360539Y-12454960D02*
X12351015Y-12464484D01*
X12351015Y-12464484D02*
X12341491Y-12454960D01*
X12341491Y-12454960D02*
X12351015Y-12445436D01*
X12351015Y-12445436D02*
X12351015Y-12464484D01*
X12484348Y-12264484D02*
X12503396Y-12264484D01*
X12503396Y-12264484D02*
X12522444Y-12274008D01*
X12522444Y-12274008D02*
X12531967Y-12283531D01*
X12531967Y-12283531D02*
X12541491Y-12302579D01*
X12541491Y-12302579D02*
X12551015Y-12340674D01*
X12551015Y-12340674D02*
X12551015Y-12388293D01*
X12551015Y-12388293D02*
X12541491Y-12426388D01*
X12541491Y-12426388D02*
X12531967Y-12445436D01*
X12531967Y-12445436D02*
X12522444Y-12454960D01*
X12522444Y-12454960D02*
X12503396Y-12464484D01*
X12503396Y-12464484D02*
X12484348Y-12464484D01*
X12484348Y-12464484D02*
X12465301Y-12454960D01*
X12465301Y-12454960D02*
X12455777Y-12445436D01*
X12455777Y-12445436D02*
X12446253Y-12426388D01*
X12446253Y-12426388D02*
X12436729Y-12388293D01*
X12436729Y-12388293D02*
X12436729Y-12340674D01*
X12436729Y-12340674D02*
X12446253Y-12302579D01*
X12446253Y-12302579D02*
X12455777Y-12283531D01*
X12455777Y-12283531D02*
X12465301Y-12274008D01*
X12465301Y-12274008D02*
X12484348Y-12264484D01*
X12617682Y-12264484D02*
X12741491Y-12264484D01*
X12741491Y-12264484D02*
X12674825Y-12340674D01*
X12674825Y-12340674D02*
X12703396Y-12340674D01*
X12703396Y-12340674D02*
X12722444Y-12350198D01*
X12722444Y-12350198D02*
X12731967Y-12359722D01*
X12731967Y-12359722D02*
X12741491Y-12378769D01*
X12741491Y-12378769D02*
X12741491Y-12426388D01*
X12741491Y-12426388D02*
X12731967Y-12445436D01*
X12731967Y-12445436D02*
X12722444Y-12454960D01*
X12722444Y-12454960D02*
X12703396Y-12464484D01*
X12703396Y-12464484D02*
X12646253Y-12464484D01*
X12646253Y-12464484D02*
X12627206Y-12454960D01*
X12627206Y-12454960D02*
X12617682Y-12445436D01*
X12808158Y-12264484D02*
X12941491Y-12264484D01*
X12941491Y-12264484D02*
X12855777Y-12464484D01*
X13103396Y-12331150D02*
X13103396Y-12464484D01*
X13055777Y-12254960D02*
X13008158Y-12397817D01*
X13008158Y-12397817D02*
X13131967Y-12397817D01*
X13198634Y-12264484D02*
X13198634Y-12302579D01*
X13274825Y-12264484D02*
X13274825Y-12302579D01*
X13570063Y-12540674D02*
X13560539Y-12531150D01*
X13560539Y-12531150D02*
X13541491Y-12502579D01*
X13541491Y-12502579D02*
X13531968Y-12483531D01*
X13531968Y-12483531D02*
X13522444Y-12454960D01*
X13522444Y-12454960D02*
X13512920Y-12407341D01*
X13512920Y-12407341D02*
X13512920Y-12369246D01*
X13512920Y-12369246D02*
X13522444Y-12321627D01*
X13522444Y-12321627D02*
X13531968Y-12293055D01*
X13531968Y-12293055D02*
X13541491Y-12274008D01*
X13541491Y-12274008D02*
X13560539Y-12245436D01*
X13560539Y-12245436D02*
X13570063Y-12235912D01*
X13674825Y-12350198D02*
X13655777Y-12340674D01*
X13655777Y-12340674D02*
X13646253Y-12331150D01*
X13646253Y-12331150D02*
X13636729Y-12312103D01*
X13636729Y-12312103D02*
X13636729Y-12302579D01*
X13636729Y-12302579D02*
X13646253Y-12283531D01*
X13646253Y-12283531D02*
X13655777Y-12274008D01*
X13655777Y-12274008D02*
X13674825Y-12264484D01*
X13674825Y-12264484D02*
X13712920Y-12264484D01*
X13712920Y-12264484D02*
X13731968Y-12274008D01*
X13731968Y-12274008D02*
X13741491Y-12283531D01*
X13741491Y-12283531D02*
X13751015Y-12302579D01*
X13751015Y-12302579D02*
X13751015Y-12312103D01*
X13751015Y-12312103D02*
X13741491Y-12331150D01*
X13741491Y-12331150D02*
X13731968Y-12340674D01*
X13731968Y-12340674D02*
X13712920Y-12350198D01*
X13712920Y-12350198D02*
X13674825Y-12350198D01*
X13674825Y-12350198D02*
X13655777Y-12359722D01*
X13655777Y-12359722D02*
X13646253Y-12369246D01*
X13646253Y-12369246D02*
X13636729Y-12388293D01*
X13636729Y-12388293D02*
X13636729Y-12426388D01*
X13636729Y-12426388D02*
X13646253Y-12445436D01*
X13646253Y-12445436D02*
X13655777Y-12454960D01*
X13655777Y-12454960D02*
X13674825Y-12464484D01*
X13674825Y-12464484D02*
X13712920Y-12464484D01*
X13712920Y-12464484D02*
X13731968Y-12454960D01*
X13731968Y-12454960D02*
X13741491Y-12445436D01*
X13741491Y-12445436D02*
X13751015Y-12426388D01*
X13751015Y-12426388D02*
X13751015Y-12388293D01*
X13751015Y-12388293D02*
X13741491Y-12369246D01*
X13741491Y-12369246D02*
X13731968Y-12359722D01*
X13731968Y-12359722D02*
X13712920Y-12350198D01*
X13989110Y-12464484D02*
X13989110Y-12264484D01*
X14074825Y-12464484D02*
X14074825Y-12359722D01*
X14074825Y-12359722D02*
X14065301Y-12340674D01*
X14065301Y-12340674D02*
X14046253Y-12331150D01*
X14046253Y-12331150D02*
X14017682Y-12331150D01*
X14017682Y-12331150D02*
X13998634Y-12340674D01*
X13998634Y-12340674D02*
X13989110Y-12350198D01*
X14198634Y-12464484D02*
X14179587Y-12454960D01*
X14179587Y-12454960D02*
X14170063Y-12445436D01*
X14170063Y-12445436D02*
X14160539Y-12426388D01*
X14160539Y-12426388D02*
X14160539Y-12369246D01*
X14160539Y-12369246D02*
X14170063Y-12350198D01*
X14170063Y-12350198D02*
X14179587Y-12340674D01*
X14179587Y-12340674D02*
X14198634Y-12331150D01*
X14198634Y-12331150D02*
X14227206Y-12331150D01*
X14227206Y-12331150D02*
X14246253Y-12340674D01*
X14246253Y-12340674D02*
X14255777Y-12350198D01*
X14255777Y-12350198D02*
X14265301Y-12369246D01*
X14265301Y-12369246D02*
X14265301Y-12426388D01*
X14265301Y-12426388D02*
X14255777Y-12445436D01*
X14255777Y-12445436D02*
X14246253Y-12454960D01*
X14246253Y-12454960D02*
X14227206Y-12464484D01*
X14227206Y-12464484D02*
X14198634Y-12464484D01*
X14379587Y-12464484D02*
X14360539Y-12454960D01*
X14360539Y-12454960D02*
X14351015Y-12435912D01*
X14351015Y-12435912D02*
X14351015Y-12264484D01*
X14531968Y-12454960D02*
X14512920Y-12464484D01*
X14512920Y-12464484D02*
X14474825Y-12464484D01*
X14474825Y-12464484D02*
X14455777Y-12454960D01*
X14455777Y-12454960D02*
X14446253Y-12435912D01*
X14446253Y-12435912D02*
X14446253Y-12359722D01*
X14446253Y-12359722D02*
X14455777Y-12340674D01*
X14455777Y-12340674D02*
X14474825Y-12331150D01*
X14474825Y-12331150D02*
X14512920Y-12331150D01*
X14512920Y-12331150D02*
X14531968Y-12340674D01*
X14531968Y-12340674D02*
X14541491Y-12359722D01*
X14541491Y-12359722D02*
X14541491Y-12378769D01*
X14541491Y-12378769D02*
X14446253Y-12397817D01*
X14617682Y-12454960D02*
X14636730Y-12464484D01*
X14636730Y-12464484D02*
X14674825Y-12464484D01*
X14674825Y-12464484D02*
X14693872Y-12454960D01*
X14693872Y-12454960D02*
X14703396Y-12435912D01*
X14703396Y-12435912D02*
X14703396Y-12426388D01*
X14703396Y-12426388D02*
X14693872Y-12407341D01*
X14693872Y-12407341D02*
X14674825Y-12397817D01*
X14674825Y-12397817D02*
X14646253Y-12397817D01*
X14646253Y-12397817D02*
X14627206Y-12388293D01*
X14627206Y-12388293D02*
X14617682Y-12369246D01*
X14617682Y-12369246D02*
X14617682Y-12359722D01*
X14617682Y-12359722D02*
X14627206Y-12340674D01*
X14627206Y-12340674D02*
X14646253Y-12331150D01*
X14646253Y-12331150D02*
X14674825Y-12331150D01*
X14674825Y-12331150D02*
X14693872Y-12340674D01*
X14770063Y-12540674D02*
X14779587Y-12531150D01*
X14779587Y-12531150D02*
X14798634Y-12502579D01*
X14798634Y-12502579D02*
X14808158Y-12483531D01*
X14808158Y-12483531D02*
X14817682Y-12454960D01*
X14817682Y-12454960D02*
X14827206Y-12407341D01*
X14827206Y-12407341D02*
X14827206Y-12369246D01*
X14827206Y-12369246D02*
X14817682Y-12321627D01*
X14817682Y-12321627D02*
X14808158Y-12293055D01*
X14808158Y-12293055D02*
X14798634Y-12274008D01*
X14798634Y-12274008D02*
X14779587Y-12245436D01*
X14779587Y-12245436D02*
X14770063Y-12235912D01*
D10*
X9980356Y-12672356D02*
X9980356Y-12601644D01*
X9909644Y-12601644D01*
X9909644Y-12672356D01*
X9980356Y-12672356D01*
D11*
X10360539Y-12728484D02*
X10246253Y-12728484D01*
X10303396Y-12728484D02*
X10303396Y-12528484D01*
X10303396Y-12528484D02*
X10284348Y-12557055D01*
X10284348Y-12557055D02*
X10265301Y-12576103D01*
X10265301Y-12576103D02*
X10246253Y-12585627D01*
X10446253Y-12709436D02*
X10455777Y-12718960D01*
X10455777Y-12718960D02*
X10446253Y-12728484D01*
X10446253Y-12728484D02*
X10436729Y-12718960D01*
X10436729Y-12718960D02*
X10446253Y-12709436D01*
X10446253Y-12709436D02*
X10446253Y-12728484D01*
X10579586Y-12528484D02*
X10598634Y-12528484D01*
X10598634Y-12528484D02*
X10617682Y-12538008D01*
X10617682Y-12538008D02*
X10627205Y-12547531D01*
X10627205Y-12547531D02*
X10636729Y-12566579D01*
X10636729Y-12566579D02*
X10646253Y-12604674D01*
X10646253Y-12604674D02*
X10646253Y-12652293D01*
X10646253Y-12652293D02*
X10636729Y-12690388D01*
X10636729Y-12690388D02*
X10627205Y-12709436D01*
X10627205Y-12709436D02*
X10617682Y-12718960D01*
X10617682Y-12718960D02*
X10598634Y-12728484D01*
X10598634Y-12728484D02*
X10579586Y-12728484D01*
X10579586Y-12728484D02*
X10560539Y-12718960D01*
X10560539Y-12718960D02*
X10551015Y-12709436D01*
X10551015Y-12709436D02*
X10541491Y-12690388D01*
X10541491Y-12690388D02*
X10531967Y-12652293D01*
X10531967Y-12652293D02*
X10531967Y-12604674D01*
X10531967Y-12604674D02*
X10541491Y-12566579D01*
X10541491Y-12566579D02*
X10551015Y-12547531D01*
X10551015Y-12547531D02*
X10560539Y-12538008D01*
X10560539Y-12538008D02*
X10579586Y-12528484D01*
X10770063Y-12528484D02*
X10789110Y-12528484D01*
X10789110Y-12528484D02*
X10808158Y-12538008D01*
X10808158Y-12538008D02*
X10817682Y-12547531D01*
X10817682Y-12547531D02*
X10827205Y-12566579D01*
X10827205Y-12566579D02*
X10836729Y-12604674D01*
X10836729Y-12604674D02*
X10836729Y-12652293D01*
X10836729Y-12652293D02*
X10827205Y-12690388D01*
X10827205Y-12690388D02*
X10817682Y-12709436D01*
X10817682Y-12709436D02*
X10808158Y-12718960D01*
X10808158Y-12718960D02*
X10789110Y-12728484D01*
X10789110Y-12728484D02*
X10770063Y-12728484D01*
X10770063Y-12728484D02*
X10751015Y-12718960D01*
X10751015Y-12718960D02*
X10741491Y-12709436D01*
X10741491Y-12709436D02*
X10731967Y-12690388D01*
X10731967Y-12690388D02*
X10722444Y-12652293D01*
X10722444Y-12652293D02*
X10722444Y-12604674D01*
X10722444Y-12604674D02*
X10731967Y-12566579D01*
X10731967Y-12566579D02*
X10741491Y-12547531D01*
X10741491Y-12547531D02*
X10751015Y-12538008D01*
X10751015Y-12538008D02*
X10770063Y-12528484D01*
X10960539Y-12528484D02*
X10979586Y-12528484D01*
X10979586Y-12528484D02*
X10998634Y-12538008D01*
X10998634Y-12538008D02*
X11008158Y-12547531D01*
X11008158Y-12547531D02*
X11017682Y-12566579D01*
X11017682Y-12566579D02*
X11027205Y-12604674D01*
X11027205Y-12604674D02*
X11027205Y-12652293D01*
X11027205Y-12652293D02*
X11017682Y-12690388D01*
X11017682Y-12690388D02*
X11008158Y-12709436D01*
X11008158Y-12709436D02*
X10998634Y-12718960D01*
X10998634Y-12718960D02*
X10979586Y-12728484D01*
X10979586Y-12728484D02*
X10960539Y-12728484D01*
X10960539Y-12728484D02*
X10941491Y-12718960D01*
X10941491Y-12718960D02*
X10931967Y-12709436D01*
X10931967Y-12709436D02*
X10922444Y-12690388D01*
X10922444Y-12690388D02*
X10912920Y-12652293D01*
X10912920Y-12652293D02*
X10912920Y-12604674D01*
X10912920Y-12604674D02*
X10922444Y-12566579D01*
X10922444Y-12566579D02*
X10931967Y-12547531D01*
X10931967Y-12547531D02*
X10941491Y-12538008D01*
X10941491Y-12538008D02*
X10960539Y-12528484D01*
X11112920Y-12728484D02*
X11112920Y-12595150D01*
X11112920Y-12614198D02*
X11122444Y-12604674D01*
X11122444Y-12604674D02*
X11141491Y-12595150D01*
X11141491Y-12595150D02*
X11170063Y-12595150D01*
X11170063Y-12595150D02*
X11189110Y-12604674D01*
X11189110Y-12604674D02*
X11198634Y-12623722D01*
X11198634Y-12623722D02*
X11198634Y-12728484D01*
X11198634Y-12623722D02*
X11208158Y-12604674D01*
X11208158Y-12604674D02*
X11227205Y-12595150D01*
X11227205Y-12595150D02*
X11255777Y-12595150D01*
X11255777Y-12595150D02*
X11274824Y-12604674D01*
X11274824Y-12604674D02*
X11284348Y-12623722D01*
X11284348Y-12623722D02*
X11284348Y-12728484D01*
X11379586Y-12728484D02*
X11379586Y-12595150D01*
X11379586Y-12614198D02*
X11389110Y-12604674D01*
X11389110Y-12604674D02*
X11408158Y-12595150D01*
X11408158Y-12595150D02*
X11436729Y-12595150D01*
X11436729Y-12595150D02*
X11455777Y-12604674D01*
X11455777Y-12604674D02*
X11465301Y-12623722D01*
X11465301Y-12623722D02*
X11465301Y-12728484D01*
X11465301Y-12623722D02*
X11474824Y-12604674D01*
X11474824Y-12604674D02*
X11493872Y-12595150D01*
X11493872Y-12595150D02*
X11522443Y-12595150D01*
X11522443Y-12595150D02*
X11541491Y-12604674D01*
X11541491Y-12604674D02*
X11551015Y-12623722D01*
X11551015Y-12623722D02*
X11551015Y-12728484D01*
X11941491Y-12518960D02*
X11770063Y-12776103D01*
X12198634Y-12528484D02*
X12217682Y-12528484D01*
X12217682Y-12528484D02*
X12236729Y-12538008D01*
X12236729Y-12538008D02*
X12246253Y-12547531D01*
X12246253Y-12547531D02*
X12255777Y-12566579D01*
X12255777Y-12566579D02*
X12265301Y-12604674D01*
X12265301Y-12604674D02*
X12265301Y-12652293D01*
X12265301Y-12652293D02*
X12255777Y-12690388D01*
X12255777Y-12690388D02*
X12246253Y-12709436D01*
X12246253Y-12709436D02*
X12236729Y-12718960D01*
X12236729Y-12718960D02*
X12217682Y-12728484D01*
X12217682Y-12728484D02*
X12198634Y-12728484D01*
X12198634Y-12728484D02*
X12179586Y-12718960D01*
X12179586Y-12718960D02*
X12170063Y-12709436D01*
X12170063Y-12709436D02*
X12160539Y-12690388D01*
X12160539Y-12690388D02*
X12151015Y-12652293D01*
X12151015Y-12652293D02*
X12151015Y-12604674D01*
X12151015Y-12604674D02*
X12160539Y-12566579D01*
X12160539Y-12566579D02*
X12170063Y-12547531D01*
X12170063Y-12547531D02*
X12179586Y-12538008D01*
X12179586Y-12538008D02*
X12198634Y-12528484D01*
X12351015Y-12709436D02*
X12360539Y-12718960D01*
X12360539Y-12718960D02*
X12351015Y-12728484D01*
X12351015Y-12728484D02*
X12341491Y-12718960D01*
X12341491Y-12718960D02*
X12351015Y-12709436D01*
X12351015Y-12709436D02*
X12351015Y-12728484D01*
X12484348Y-12528484D02*
X12503396Y-12528484D01*
X12503396Y-12528484D02*
X12522444Y-12538008D01*
X12522444Y-12538008D02*
X12531967Y-12547531D01*
X12531967Y-12547531D02*
X12541491Y-12566579D01*
X12541491Y-12566579D02*
X12551015Y-12604674D01*
X12551015Y-12604674D02*
X12551015Y-12652293D01*
X12551015Y-12652293D02*
X12541491Y-12690388D01*
X12541491Y-12690388D02*
X12531967Y-12709436D01*
X12531967Y-12709436D02*
X12522444Y-12718960D01*
X12522444Y-12718960D02*
X12503396Y-12728484D01*
X12503396Y-12728484D02*
X12484348Y-12728484D01*
X12484348Y-12728484D02*
X12465301Y-12718960D01*
X12465301Y-12718960D02*
X12455777Y-12709436D01*
X12455777Y-12709436D02*
X12446253Y-12690388D01*
X12446253Y-12690388D02*
X12436729Y-12652293D01*
X12436729Y-12652293D02*
X12436729Y-12604674D01*
X12436729Y-12604674D02*
X12446253Y-12566579D01*
X12446253Y-12566579D02*
X12455777Y-12547531D01*
X12455777Y-12547531D02*
X12465301Y-12538008D01*
X12465301Y-12538008D02*
X12484348Y-12528484D01*
X12617682Y-12528484D02*
X12741491Y-12528484D01*
X12741491Y-12528484D02*
X12674825Y-12604674D01*
X12674825Y-12604674D02*
X12703396Y-12604674D01*
X12703396Y-12604674D02*
X12722444Y-12614198D01*
X12722444Y-12614198D02*
X12731967Y-12623722D01*
X12731967Y-12623722D02*
X12741491Y-12642769D01*
X12741491Y-12642769D02*
X12741491Y-12690388D01*
X12741491Y-12690388D02*
X12731967Y-12709436D01*
X12731967Y-12709436D02*
X12722444Y-12718960D01*
X12722444Y-12718960D02*
X12703396Y-12728484D01*
X12703396Y-12728484D02*
X12646253Y-12728484D01*
X12646253Y-12728484D02*
X12627206Y-12718960D01*
X12627206Y-12718960D02*
X12617682Y-12709436D01*
X12836729Y-12728484D02*
X12874825Y-12728484D01*
X12874825Y-12728484D02*
X12893872Y-12718960D01*
X12893872Y-12718960D02*
X12903396Y-12709436D01*
X12903396Y-12709436D02*
X12922444Y-12680865D01*
X12922444Y-12680865D02*
X12931967Y-12642769D01*
X12931967Y-12642769D02*
X12931967Y-12566579D01*
X12931967Y-12566579D02*
X12922444Y-12547531D01*
X12922444Y-12547531D02*
X12912920Y-12538008D01*
X12912920Y-12538008D02*
X12893872Y-12528484D01*
X12893872Y-12528484D02*
X12855777Y-12528484D01*
X12855777Y-12528484D02*
X12836729Y-12538008D01*
X12836729Y-12538008D02*
X12827206Y-12547531D01*
X12827206Y-12547531D02*
X12817682Y-12566579D01*
X12817682Y-12566579D02*
X12817682Y-12614198D01*
X12817682Y-12614198D02*
X12827206Y-12633246D01*
X12827206Y-12633246D02*
X12836729Y-12642769D01*
X12836729Y-12642769D02*
X12855777Y-12652293D01*
X12855777Y-12652293D02*
X12893872Y-12652293D01*
X12893872Y-12652293D02*
X12912920Y-12642769D01*
X12912920Y-12642769D02*
X12922444Y-12633246D01*
X12922444Y-12633246D02*
X12931967Y-12614198D01*
X13103396Y-12595150D02*
X13103396Y-12728484D01*
X13055777Y-12518960D02*
X13008158Y-12661817D01*
X13008158Y-12661817D02*
X13131967Y-12661817D01*
X13198634Y-12528484D02*
X13198634Y-12566579D01*
X13274825Y-12528484D02*
X13274825Y-12566579D01*
X13570063Y-12804674D02*
X13560539Y-12795150D01*
X13560539Y-12795150D02*
X13541491Y-12766579D01*
X13541491Y-12766579D02*
X13531968Y-12747531D01*
X13531968Y-12747531D02*
X13522444Y-12718960D01*
X13522444Y-12718960D02*
X13512920Y-12671341D01*
X13512920Y-12671341D02*
X13512920Y-12633246D01*
X13512920Y-12633246D02*
X13522444Y-12585627D01*
X13522444Y-12585627D02*
X13531968Y-12557055D01*
X13531968Y-12557055D02*
X13541491Y-12538008D01*
X13541491Y-12538008D02*
X13560539Y-12509436D01*
X13560539Y-12509436D02*
X13570063Y-12499912D01*
X13731968Y-12595150D02*
X13731968Y-12728484D01*
X13684348Y-12518960D02*
X13636729Y-12661817D01*
X13636729Y-12661817D02*
X13760539Y-12661817D01*
X13827206Y-12547531D02*
X13836729Y-12538008D01*
X13836729Y-12538008D02*
X13855777Y-12528484D01*
X13855777Y-12528484D02*
X13903396Y-12528484D01*
X13903396Y-12528484D02*
X13922444Y-12538008D01*
X13922444Y-12538008D02*
X13931968Y-12547531D01*
X13931968Y-12547531D02*
X13941491Y-12566579D01*
X13941491Y-12566579D02*
X13941491Y-12585627D01*
X13941491Y-12585627D02*
X13931968Y-12614198D01*
X13931968Y-12614198D02*
X13817682Y-12728484D01*
X13817682Y-12728484D02*
X13941491Y-12728484D01*
X14179587Y-12728484D02*
X14179587Y-12528484D01*
X14265301Y-12728484D02*
X14265301Y-12623722D01*
X14265301Y-12623722D02*
X14255777Y-12604674D01*
X14255777Y-12604674D02*
X14236730Y-12595150D01*
X14236730Y-12595150D02*
X14208158Y-12595150D01*
X14208158Y-12595150D02*
X14189110Y-12604674D01*
X14189110Y-12604674D02*
X14179587Y-12614198D01*
X14389110Y-12728484D02*
X14370063Y-12718960D01*
X14370063Y-12718960D02*
X14360539Y-12709436D01*
X14360539Y-12709436D02*
X14351015Y-12690388D01*
X14351015Y-12690388D02*
X14351015Y-12633246D01*
X14351015Y-12633246D02*
X14360539Y-12614198D01*
X14360539Y-12614198D02*
X14370063Y-12604674D01*
X14370063Y-12604674D02*
X14389110Y-12595150D01*
X14389110Y-12595150D02*
X14417682Y-12595150D01*
X14417682Y-12595150D02*
X14436730Y-12604674D01*
X14436730Y-12604674D02*
X14446253Y-12614198D01*
X14446253Y-12614198D02*
X14455777Y-12633246D01*
X14455777Y-12633246D02*
X14455777Y-12690388D01*
X14455777Y-12690388D02*
X14446253Y-12709436D01*
X14446253Y-12709436D02*
X14436730Y-12718960D01*
X14436730Y-12718960D02*
X14417682Y-12728484D01*
X14417682Y-12728484D02*
X14389110Y-12728484D01*
X14570063Y-12728484D02*
X14551015Y-12718960D01*
X14551015Y-12718960D02*
X14541491Y-12699912D01*
X14541491Y-12699912D02*
X14541491Y-12528484D01*
X14722444Y-12718960D02*
X14703396Y-12728484D01*
X14703396Y-12728484D02*
X14665301Y-12728484D01*
X14665301Y-12728484D02*
X14646253Y-12718960D01*
X14646253Y-12718960D02*
X14636730Y-12699912D01*
X14636730Y-12699912D02*
X14636730Y-12623722D01*
X14636730Y-12623722D02*
X14646253Y-12604674D01*
X14646253Y-12604674D02*
X14665301Y-12595150D01*
X14665301Y-12595150D02*
X14703396Y-12595150D01*
X14703396Y-12595150D02*
X14722444Y-12604674D01*
X14722444Y-12604674D02*
X14731968Y-12623722D01*
X14731968Y-12623722D02*
X14731968Y-12642769D01*
X14731968Y-12642769D02*
X14636730Y-12661817D01*
X14808158Y-12718960D02*
X14827206Y-12728484D01*
X14827206Y-12728484D02*
X14865301Y-12728484D01*
X14865301Y-12728484D02*
X14884349Y-12718960D01*
X14884349Y-12718960D02*
X14893872Y-12699912D01*
X14893872Y-12699912D02*
X14893872Y-12690388D01*
X14893872Y-12690388D02*
X14884349Y-12671341D01*
X14884349Y-12671341D02*
X14865301Y-12661817D01*
X14865301Y-12661817D02*
X14836730Y-12661817D01*
X14836730Y-12661817D02*
X14817682Y-12652293D01*
X14817682Y-12652293D02*
X14808158Y-12633246D01*
X14808158Y-12633246D02*
X14808158Y-12623722D01*
X14808158Y-12623722D02*
X14817682Y-12604674D01*
X14817682Y-12604674D02*
X14836730Y-12595150D01*
X14836730Y-12595150D02*
X14865301Y-12595150D01*
X14865301Y-12595150D02*
X14884349Y-12604674D01*
X14960539Y-12804674D02*
X14970063Y-12795150D01*
X14970063Y-12795150D02*
X14989111Y-12766579D01*
X14989111Y-12766579D02*
X14998634Y-12747531D01*
X14998634Y-12747531D02*
X15008158Y-12718960D01*
X15008158Y-12718960D02*
X15017682Y-12671341D01*
X15017682Y-12671341D02*
X15017682Y-12633246D01*
X15017682Y-12633246D02*
X15008158Y-12585627D01*
X15008158Y-12585627D02*
X14998634Y-12557055D01*
X14998634Y-12557055D02*
X14989111Y-12538008D01*
X14989111Y-12538008D02*
X14970063Y-12509436D01*
X14970063Y-12509436D02*
X14960539Y-12499912D01*
M02*
